<svg xmlns="http://www.w3.org/2000/svg" viewBox="0 0 1080 1080" style="enable-background:new 0 0 1080 1080" xml:space="preserve"><path d="M1021.6 986.6H52.1c-5.5 0-10-4.5-10-10V102.1c0-5.5 4.5-10 10-10h969.5c5.5 0 10 4.5 10 10v874.5c0 5.5-4.5 10-10 10z" style="fill:#f45a8d"/><path d="M923.6 890.1H150.1c-5.5 0-10-4.5-10-10V199.6c0-5.5 4.5-10 10-10h773.5c5.5 0 10 4.5 10 10v680.5c0 5.5-4.5 10-10 10z" style="fill:#fff"/><path d="M417.1 539.1c-1.3-1.4-2.4-2.6-3.6-3.7-39.7-39.7-79.4-79.3-119-119-17.4-17.4-15.5-43.8 3.8-57.7 13.3-9.6 31.6-9.3 44.5.8 1.8 1.4 3.5 3 5.2 4.7 49 48.9 97.9 97.9 146.8 146.8 11.9 11.9 16 25.8 9.8 41.8-1.9 4.9-5.2 9.8-8.9 13.5-49.4 49.7-98.9 99.2-148.5 148.7-15.4 15.4-38.7 15.6-53.6.9-15.1-14.9-14.8-38.1.9-53.9 39.5-39.6 79.1-79.1 118.6-118.7 1.4-1.4 2.6-2.8 4-4.2zM794.1 695.8c-.3.8-.6 1.5-.8 2.3-5.1 19.6-17.9 29.9-37.6 29.9-38.4.1-76.8 0-115.2 0-32.4 0-64.8.2-97.2-.2-19.3-.2-34.6-17-34.8-37-.2-20.7 15.6-37.6 35.9-38 11.3-.2 22.6-.1 33.9-.1 57.1 0 114.2.4 171.3-.2 20.1-.2 38.2 6.3 44.6 32.2-.1 3.8-.1 7.4-.1 11.1z"/></svg>