<svg width="528" height="141" xmlns="http://www.w3.org/2000/svg" xml:space="preserve"><g fill="#F45A8D"><path d="M59.813 140.7c-2.3 0-3.9-1.1-4.9-3.4L.913 8.9c-1.2-2.8-1.2-4.9-.1-6.5 1.1-1.6 2.7-2.3 4.8-2.3 2.3 0 4 1.3 5.2 3.8l51.8 124h-5.2l51.1-123.3c.6-1.7 1.4-2.8 2.3-3.5 1-.7 2.2-1 3.6-1 2.2 0 3.6.9 4.3 2.7.7 1.8.6 3.8-.4 6.1l-53.8 128.3c-.6 1.3-1.4 2.2-2.3 2.7-.7.6-1.6.8-2.4.8zM146.213 140.7c-1.6 0-2.9-.5-3.9-1.5s-1.5-2.3-1.5-3.9V5.5c0-1.6.5-2.8 1.5-3.9 1-1 2.3-1.5 3.9-1.5s2.8.5 3.9 1.5c1 1 1.5 2.3 1.5 3.9v129.8c0 1.6-.5 2.9-1.5 3.9-1.1 1-2.4 1.5-3.9 1.5zM177.213 9.8c-1.4 0-2.6-.5-3.5-1.4-.9-.9-1.3-2.1-1.3-3.5s.5-2.6 1.3-3.5c.9-.9 2.1-1.4 3.5-1.4h101.9c1.4 0 2.6.5 3.5 1.4.9.9 1.3 2.1 1.3 3.5s-.5 2.6-1.3 3.5c-.9.9-2.1 1.4-3.5 1.4h-101.9zm50.9 130.9c-1.6 0-2.9-.5-3.9-1.5s-1.5-2.3-1.5-3.9V.1h10.8v135.2c0 1.6-.5 2.9-1.5 3.9-1.1 1-2.4 1.5-3.9 1.5zM281.013 140.7c-2.3 0-3.9-.9-4.8-2.7-.9-1.8-.9-3.5-.1-5l54.5-129.1c1-2.5 2.7-3.8 5.2-3.8 2.4 0 4.1 1.3 5.2 3.8l54.9 129.1c1 1.7.9 3.4-.2 5.1-1.1 1.7-2.6 2.6-4.7 2.6-1.2 0-2.2-.3-3-.8-.8-.5-1.5-1.4-2.1-2.6l-52.9-126.2h5.8l-52.7 126.2c-.5 1.2-1.1 2.1-2 2.6-.9.5-1.9.8-3.1.8zm13.3-35.3 4.3-9.7h74.9l4.1 9.7h-83.3zM422.113 140.7c-1.6 0-2.9-.5-3.9-1.5s-1.5-2.3-1.5-3.9V5.5c0-1.6.5-2.8 1.5-3.9 1-1 2.3-1.5 3.9-1.5 1.7 0 3.1.6 4.1 1.8l91.4 119V5.5c0-1.6.5-2.8 1.5-3.9 1-1 2.3-1.5 3.9-1.5 1.4 0 2.7.5 3.8 1.5 1.1 1 1.6 2.3 1.6 3.9v129.8c0 1.6-.5 2.9-1.6 3.9s-2.3 1.5-3.8 1.5c-.8 0-1.6-.1-2.3-.5-.7-.3-1.2-.7-1.7-1.2l-91.5-119.1v115.4c0 1.6-.5 2.9-1.5 3.9s-2.3 1.5-3.9 1.5z"/></g></svg>