<svg width="500" height="500" xmlns="http://www.w3.org/2000/svg">

 <g>
  <title>background</title>
  <rect fill="none" id="canvas_background" height="502" width="502" y="-1" x="-1"/>
 </g>
 <g>
  <title>Layer 1</title>
  <g transform="matrix(3.008538095215158,0,0,3.008538095215158,446.36174499501504,453.22043773614206) " id="widget">
   <path id="svg_2" stroke-linejoin="round" stroke-linecap="round" stroke="#000000" stroke-width="1.86493" fill="#67d2ed" d="m-49.907519,-103.9314c2.7706,-0.6934 4.4478,-1.5993 4.4478,-2.5904c0,-2.1814 -8.1256,-3.9497 -18.149082,-3.9497c-10.023518,0 -18.149118,1.7683 -18.149118,3.9497c0,0.991 1.6768,1.8967 4.4466,2.5901c-0.253,1.2692 -0.3969,2.7227 -0.3969,4.2748l0,33.425c-0.6741,0.5767 -1.294,1.2065 -1.8497,1.8893l-47.6717,58.8811c-7.1508,8.9174 1.8335,19.8019 15.7683,19.933l95.3435,0c14.3015,0 23.2858,-11.0156 16.135,-19.8019l-47.6717,-59.0122c-0.5536,-0.6981 -1.1755,-1.3408 -1.8549,-1.9279l0,0l0,-33.3864c0,-1.5407 -0.1437,-2.9976 -0.3981,-4.2745z"/>
   <path id="svg_3" stroke-linecap="square" stroke="#f7f9fe" stroke-width="0.028257" fill="#ffffff" d="m-93.904019,9.4939l0,0c-1.0132,-0.5789 -1.3648,-1.8678 -0.7859,-2.881l0,0c0.579,-1.0133 1.8679,-1.3649 2.8811,-0.7859l0,0c1.0132,0.5789 1.3648,1.8678 0.7859,2.8811l0,0c-0.5789,1.0132 -1.8678,1.3648 -2.8811,0.7858z"/>
   <path id="svg_4" stroke-linecap="square" stroke="#f7f9fe" stroke-width="0.028257" fill="#ffffff" d="m-85.039819,10.3292l0,0c-0.9539,-0.1603 -1.5963,-1.0624 -1.4359,-2.0163l0,0c0.1604,-0.9539 1.0625,-1.5963 2.0164,-1.4359l0,0c0.9539,0.1604 1.5963,1.0624 1.4359,2.0163l0,0c-0.1604,0.954 -1.0625,1.5963 -2.0164,1.4359z"/>
   <path id="svg_5" stroke-linecap="square" stroke="#f7f9fe" stroke-width="0.028257" fill="#ffffff" d="m-81.204519,11.6123l0,0c-0.3175,-0.6036 -0.0859,-1.3492 0.5177,-1.6666l0,0c0.6035,-0.3175 1.3491,-0.0858 1.6665,0.5177l0,0c0.3175,0.6035 0.0859,1.3491 -0.5177,1.6666l0,0c-0.6035,0.3174 -1.3491,0.0858 -1.6665,-0.5177z"/>
   <path id="svg_6" stroke-linecap="square" stroke="#f7f9fe" stroke-width="0.028257" fill="#ffffff" d="m-76.943219,11.8633l0,0c-0.3175,-0.6036 -0.0859,-1.3491 0.5177,-1.6666l0,0c0.6035,-0.3174 1.3491,-0.0858 1.6665,0.5177l0,0c0.3175,0.6036 0.0859,1.3491 -0.5177,1.6666l0,0c-0.6035,0.3174 -1.3491,0.0858 -1.6665,-0.5177z"/>
   <path id="svg_7" stroke-linecap="square" stroke="#f7f9fe" stroke-width="0.028257" fill="#ffffff" d="m-64.706969,11.6554l0,0c-0.31745,-0.6035 -0.08584,-1.3491 0.517707,-1.6666l0,0c0.603548,-0.3174 1.349116,-0.0858 1.666563,0.5177l0,0c0.31745,0.6036 0.08584,1.3492 -0.517703,1.6666l0,0c-0.603549,0.3175 -1.349117,0.0859 -1.666567,-0.5177z"/>
   <path id="svg_8" stroke-linecap="square" stroke="#f7f9fe" stroke-width="0.028257" fill="#ffffff" d="m-68.023469,-8.142l0,0c1.15255,-0.7109 2.66108,-0.3534 3.372,0.7991l0,0c0.710924,1.1526 0.353418,2.6611 -0.79913,3.372l0,0c-1.15255,0.711 -2.66108,0.3534 -3.372,-0.7991l0,0c-0.71092,-1.1526 -0.35341,-2.6611 0.79913,-3.372z"/>
   <path id="svg_9" stroke-linecap="square" stroke="#f7f9fe" stroke-width="0.028257" fill="#ffffff" d="m-48.471519,6.0354l0,0c-0.3175,-0.6035 -0.0859,-1.3491 0.5177,-1.6665l0,0c0.6035,-0.3175 1.3491,-0.0859 1.6666,0.5177l0,0c0.3174,0.6035 0.0858,1.3491 -0.5177,1.6665l0,0c-0.6036,0.3175 -1.3492,0.0859 -1.6666,-0.5177z"/>
   <path id="svg_10" stroke-linecap="square" stroke="#f7f9fe" stroke-width="0.028257" fill="#ffffff" d="m-41.255819,10.6841l0,0c-0.3174,-0.6036 -0.0858,-1.3492 0.5177,-1.6666l0,0c0.6036,-0.3175 1.3492,-0.0859 1.6666,0.5177l0,0c0.3175,0.6035 0.0859,1.3491 -0.5177,1.6666l0,0c-0.6035,0.3174 -1.3491,0.0858 -1.6666,-0.5177z"/>
   <path id="svg_11" stroke-linecap="square" stroke="#f7f9fe" stroke-width="0.028257" fill="#ffffff" d="m-53.387819,8.147l0,0c0.0494,-0.9432 0.8529,-1.6668 1.7961,-1.6174l0,0c0.9431,0.0494 1.6667,0.8528 1.6173,1.796l0,0c-0.0493,0.9432 -0.8528,1.6668 -1.796,1.6174l0,0c-0.9432,-0.0493 -1.6667,-0.8528 -1.6174,-1.796z"/>
   <path id="svg_12" stroke-linecap="square" stroke="#f7f9fe" stroke-width="0.028257" fill="#ffffff" d="m-47.014519,11.4473l0,0c-0.3174,-0.6036 -0.0858,-1.3492 0.5177,-1.6666l0,0c0.6036,-0.3175 1.3491,-0.0858 1.6666,0.5177l0,0c0.3174,0.6035 0.0858,1.3491 -0.5177,1.6666l0,0c-0.6036,0.3174 -1.3491,0.0858 -1.6666,-0.5177z"/>
   <path id="svg_13" stroke-linecap="square" stroke="#f7f9fe" stroke-width="0.028257" fill="#ffffff" d="m-72.221929,10.4732l0,0c-0.31745,-0.6035 -0.08585,-1.3491 0.5177,-1.6665l0,0c0.60355,-0.3175 1.34912,-0.0859 1.66656,0.5177l0,0c0.31745,0.6035 0.08585,1.3491 -0.5177,1.6665l0,0c-0.60355,0.3175 -1.34912,0.0859 -1.66656,-0.5177z"/>
   <path id="svg_14" stroke-linecap="square" stroke="#f7f9fe" stroke-width="0.028257" fill="#ffffff" d="m-73.404099,5.1725l0,0c-0.31742,-0.6035 -0.08584,-1.3491 0.51771,-1.6665l0,0c0.60355,-0.3175 1.34912,-0.0859 1.66656,0.5177l0,0c0.31745,0.6035 0.08585,1.3491 -0.5177,1.6665l0,0c-0.60355,0.3175 -1.34912,0.0859 -1.66657,-0.5177z"/>
   <path id="svg_15" stroke-linecap="square" stroke="#f7f9fe" stroke-width="0.028257" fill="#ffffff" d="m-68.888899,9.7836l0,0c-0.31745,-0.6036 -0.08585,-1.3492 0.5177,-1.6666l0,0c0.60355,-0.3175 1.34912,-0.0859 1.66657,0.5177l0,0c0.31744,0.6035 0.08584,1.3491 -0.51771,1.6666l0,0c-0.60355,0.3174 -1.34911,0.0858 -1.66656,-0.5177z"/>
   <path id="svg_16" stroke-linecap="square" stroke="#000000" stroke-width="1.35631" fill="#e55a5a" d="m-91.222119,-19.9856q-1.5566,5.4501 -4.6558,16.3011q-1.203,-0.3436 -3.6088,-1.0308q1.3813,-4.8363 4.1369,-14.4844q-0.6137,-0.1752 -1.8166,-0.5188q0.1682,-0.5892 0.4277,-1.4976q0.2594,-0.9083 0.603,-2.1112q1.2029,0.3435 3.6088,1.0307q0.7611,0.2174 1.1539,0.8872q0.3613,0.6873 0.1509,1.4238z"/>
   <path id="svg_17" stroke-linecap="square" stroke="#343838" stroke-width="1.84233" fill="#00b4ce" d="m-79.000719,-4.7067q0.3147,0.9325 0.9505,2.8166q1.8841,-0.6357 5.61427,-1.8944q0.31466,0.9326 0.94399,2.7977q-2.79766,0.944 -8.41196,2.8384q-0.1605,-0.4758 -0.4752,-1.4084q-0.1541,-0.4567 -0.4688,-1.3893q-0.2376,-0.7041 -0.5908,-1.7509q-0.3596,-1.0657 -0.8348,-2.4741q-0.1927,-0.5709 0.0848,-1.1309q0.2648,-0.5345 0.8547,-0.7336q1.3893,-0.4688 4.206,-1.4192q-0.3211,-0.9516 -0.9504,-2.8167q-0.9325,0.3147 -2.8167,0.9504q0.122,0.3616 0.3532,1.0468q-0.9325,0.3146 -2.7976,0.944q-0.2762,-0.8184 -0.8284,-2.4551q-0.1927,-0.5709 0.0847,-1.1309q0.2648,-0.5345 0.8548,-0.7336q1.8651,-0.6293 5.6143,-1.8944q0.571,-0.1927 1.1245,0.0657q0.541,0.2839 0.7336,0.8548q0.6358,1.8841 1.8944,5.6143q0.1991,0.59 -0.0593,1.1435q-0.2838,0.541 -0.8548,0.7336q-1.4083,0.4752 -4.225,1.4257z"/>
   <path id="svg_18" stroke-linecap="square" stroke="#000000" stroke-width="1.84233" fill="#57a32b" d="m-54.671399,2.7986q0.46486,0.5628 0.39299,1.3165q-0.06859,0.7194 -0.6502,1.1997q-1.38835,1.1466 -4.14629,3.4244q-0.58161,0.4804 -1.301,0.4118q-0.75365,-0.0719 -1.2185,-0.6347q-1.534011,-1.8574 -4.57105,-5.5347q-0.48034,-0.5816 -0.39299,-1.3165q0.0531,-0.7381 0.63471,-1.2185q0.39399,-0.3254 0.99436,-0.8212q0.61913,-0.5113 1.425876,-1.1776q0.759259,0.9193 2.277774,2.7579q-0.35647,0.2944 -1.05064,0.8677q0.77475,0.9381 2.29327,2.7767q0.93808,-0.7747 2.7767,-2.2932q-0.75925,-0.9193 -2.29327,-2.7767q0.91932,-0.7593 2.75795,-2.2778q0.77475,0.9381 2.29327,2.7767q0.93812,-0.7748 2.77672,-2.2933q-0.7593,-0.9193 -2.29329,-2.7767q-0.35647,0.2944 -1.03188,0.8522q-0.75926,-0.9193 -2.27778,-2.7579q0.80675,-0.6663 2.42024,-1.9989q0.56284,-0.4648 1.31651,-0.393q0.7194,0.0686 1.1997,0.6502q1.5185,1.8387 4.5711,5.5347q0.4648,0.5628 0.4117,1.301q-0.0873,0.7349 -0.6502,1.1997q-1.3883,1.1467 -4.165,3.4399q-0.5629,0.4649 -1.301,0.4118q-0.73492,-0.0874 -1.19978,-0.6502z"/>
   <path id="svg_19" stroke-linecap="square" stroke="#000000" stroke-width="1.84233" fill="#d97fbd" d="m-58.117149,-27.9085q-2.11825,5.3257 -6.372024,16.0208q-1.065156,-0.4237 -3.195456,-1.271q0.84729,-2.1303 2.55053,-6.4127q-1.6086,-0.6398 -4.80406,-1.9107q-0.67387,-0.268 -0.9488,-0.9061q-0.28802,-0.6684 -0.02,-1.3423q0.5274,-1.326 1.32282,-3.3259q0.79542,-1.9999 1.85887,-4.6736q1.06515,0.4236 3.195459,1.2709q-0.847299,2.1303 -2.550539,6.4127q1.08689,0.4323 3.217199,1.2796q0.855944,-2.1521 2.550541,-6.4127q1.06515,0.4237 3.19546,1.271z"/>
   <path id="svg_20" stroke-linecap="square" stroke="#000000" stroke-width="1.84233" fill="#7fa7d9" d="m-34.018119,-8.6161q-0.5279,0.9702 -1.5946,2.9305q1.4652,0.7973 4.3957,2.3919q0.594,0.3233 0.8034,0.9761q0.1787,0.6619 -0.1445,1.2559q-1.0667,1.9603 -3.1785,5.8412q-0.2801,0.5148 -0.7926,0.7492q-0.5323,0.2236 -1.0722,0.0838q-0.0107,0.0198 -0.0215,0.0396q-2.0593,-1.1206 -6.1976,-3.3724q-0.6138,-0.334 -0.7926,-0.9959q-0.2093,-0.6529 0.1247,-1.2667q0.528,-0.9702 1.5839,-2.9107q0.9702,0.528 2.9106,1.5839q-0.2586,0.4752 -0.7973,1.4652q0.99,0.5388 2.9305,1.5947q0.5387,-0.9901 1.5946,-2.9305q-0.9702,-0.528 -2.9305,-1.5946q-0.4752,-0.2586 -1.4454,-0.7866q-0.495,-0.2693 -1.4652,-0.7973q0.5279,-0.9702 1.3252,-2.4354q0.7973,-1.4653 1.8532,-3.4057q0.3341,-0.6139 0.9913,-1.8217q0.1939,-0.3564 0.5926,-1.089q2.9107,1.5838 8.7518,4.7623q-0.5279,0.9702 -1.5838,2.9107q-1.9405,-1.0559 -5.8412,-3.1785z"/>
   <path id="svg_21" stroke-linecap="square" stroke="#000000" stroke-width="1.84233" fill="#e60000" d="m-14.969919,6.3492q0.239,0.6326 0.8783,0.9212q0.6101,0.2755 1.2638,0.0285q1.5604,-0.5897 4.6602,-1.7611q0.6536,-0.2471 0.9291,-0.8572q0.2886,-0.6393 0.0495,-1.2719q-0.7889,-2.0875 -2.3508,-6.2205q-0.247,-0.6537 -0.8783,-0.9212q-0.6181,-0.2966 -1.2718,-0.0495q-1.5393,0.5817 -4.6601,1.7611q-0.6537,0.247 -0.9212,0.8783q-0.2966,0.6181 -0.0495,1.2718q-0.2471,-0.6537 -0.8572,-0.9292q-0.6393,-0.2886 -1.2719,-0.0495q-0.7802,0.2949 -1.9399,0.7331q-1.1809,0.4463 -2.7413,1.036q-0.6326,0.2391 -0.9212,0.8783q-0.2755,0.6101 -0.0284,1.2638q0.7809,2.0665 2.3508,6.2206q0.239,0.6326 0.8572,0.9292q0.6312,0.2675 1.2638,0.0284q1.5604,-0.5897 4.6813,-1.7691q0.6326,-0.2391 0.9291,-0.8572q0.2675,-0.6313 0.0285,-1.2639zm0.9707,-2.1501q-0.3905,-1.0332 -1.1794,-3.1208q1.0332,-0.3905 3.1208,-1.1794q0.3985,1.0544 1.1794,3.1208q-0.1898,0.0718 -0.5482,0.2072q-0.8646,0.3268 -2.5726,0.9722zm-3.0998,1.1715q-0.1897,0.0717 -0.5482,0.2072q-0.8646,0.3267 -2.5726,0.9722q-0.3905,-1.0333 -1.1794,-3.1209q1.0333,-0.3904 3.1209,-1.1794q0.3984,1.0544 1.1793,3.1209z"/>
   <path id="svg_22" stroke-linecap="square" stroke="#000000" stroke-width="1.84233" fill="#ccdbe0" d="m-32.090719,-21.477q0.1961,0.5042 0.6046,1.5547q1.0505,-0.4085 3.1094,-1.2092q-0.4085,-1.0504 -1.2092,-3.1094q-1.5547,0.6046 -4.6431,1.8056q-0.6513,0.2533 -1.264,-0.0163q-0.642,-0.2825 -0.8953,-0.9338q-0.4003,-1.0294 -1.0049,-2.5841q-0.6046,-1.5547 -1.4053,-3.6137q-0.2451,-0.6303 0.0374,-1.2722q0.2696,-0.6128 0.9209,-0.8661q2.0589,-0.8006 6.1978,-2.4102q0.6303,-0.2451 1.2641,0.0164q0.6209,0.2906 0.866,0.9209q1.6095,4.1389 4.8204,12.3956q0.2533,0.6513 -0.0163,1.2641q-0.2825,0.6419 -0.9128,0.887q-2.0799,0.8089 -6.1978,2.4102q-0.6513,0.2533 -1.2722,-0.0373q-0.6338,-0.2615 -0.8871,-0.9128q-0.4003,-1.0294 -1.201,-3.0884q1.0295,-0.4003 3.0884,-1.201zm1.3038,-5.8523q-0.0735,-0.1891 -0.2124,-0.5462q-0.335,-0.8614 -0.9968,-2.5632q-1.0294,0.4004 -3.1094,1.2092q0.4004,1.0295 1.2092,3.1094q1.0505,-0.4085 3.1094,-1.2092z"/>
   <path id="svg_23" stroke-linecap="square" stroke="#000000" stroke-width="1.84233" fill="#fdf4af" d="m-109.415219,-2.5787q-0.2732,-0.4561 -0.8086,-1.3503q-0.8942,0.5355 -2.7006,1.6173q0.5354,0.8941 1.6172,2.7006q1.3503,-0.8086 4.0509,-2.4259q0.5474,-0.3278 1.1784,-0.185q0.6236,0.1719 0.9514,0.7193q1.0818,1.8065 3.2236,5.383q0.3388,0.5656 0.1851,1.1783q-0.1611,0.6418 -0.7085,0.9697q-1.8065,1.0818 -5.3829,3.2236q-0.5657,0.3388 -1.1893,0.1668q-0.6309,-0.1428 -0.9696,-0.7084q-0.8087,-1.3503 -2.426,-4.0509q-0.6666,-1.1131 -1.661,-2.7736q-1.0162,-1.697 -2.3603,-3.9414q-0.3278,-0.5474 -0.1668,-1.1893q0.1537,-0.6126 0.7194,-0.9514q1.7882,-1.0709 5.3829,-3.2236q0.5474,-0.3279 1.1783,-0.1851q0.6236,0.172 0.9515,0.7194q0.5463,0.9124 1.6172,2.7006q-0.8941,0.5354 -2.6823,1.6063zm-0.2856,5.65q0.5355,0.8941 1.6173,2.7006q0.9123,-0.5464 2.7006,-1.6173q-0.0984,-0.1643 -0.2841,-0.4745q-0.4481,-0.7481 -1.3332,-2.2261q-0.8941,0.5354 -2.7006,1.6173z"/>
   <path id="svg_24" stroke-linecap="square" stroke="#000000" stroke-width="1.84233" fill="#bef200" d="m-48.645719,-27.3036q-0.1397,0.0759 -0.5585,0.3034q-1.416,0.7693 -5.68406,3.0879q0.19502,0.3589 0.5959,1.0969q0.40088,0.7379 0.99676,1.8348q1.1368,-0.6175 4.5273,-2.4594q0.4667,3.5693 1.8651,14.2265q1.057,-0.5743 3.1512,-1.7119q-0.7706,-5.9355 -2.321,-17.7758q-0.8576,0.4659 -2.5727,1.3976z"/>
   <path id="svg_25" stroke-linecap="square" stroke="#000000" stroke-width="1.38457" fill-opacity="0.280675" fill="#cbe8fe" d="m-71.766569,-114.8172l0,0c-2.87945,0.9897 -6.01175,-0.5401 -7.00145,-3.4196l0,0c-0.9897,-2.8795 0.5401,-6.0117 3.4196,-7.0015l0,0c2.87948,-0.9897 6.0117,0.5401 7.00143,3.4196l0,0c0.98972,2.8795 -0.54009,6.0117 -3.41958,7.0015z"/>
   <path id="svg_26" stroke-linecap="square" stroke="#000000" stroke-width="1.38457" fill-opacity="0.315951" fill="#cbe8fe" d="m-59.951049,-124.2568l0,0c-3.053479,0.4494 -5.88914,-1.6587 -6.33854,-4.7122l0,0c-0.44939,-3.0535 1.65867,-5.8891 4.71215,-6.3385l0,0c3.05347,-0.4494 5.88913,1.6586 6.33853,4.7121l0,0c0.44939,3.0535 -1.65867,5.8892 -4.71214,6.3386z"/>
   <path id="svg_27" stroke-linecap="square" stroke="#000000" stroke-width="1.38457" fill-opacity="0.260736" fill="#bef2fe" d="m-75.111019,-139.5184l0,0c-2.8009,-0.3914 -4.7514,-2.9756 -4.36,-5.7765l0,0c0.3914,-2.8011 2.9756,-4.7511 5.7765,-4.3601l0,0c2.80094,0.391 4.75147,2.9757 4.36007,5.7766l0,0c-0.39141,2.8009 -2.97565,4.7515 -5.77657,4.36z"/>
   <path id="svg_28" fill="#f7f9fe" d="m-81.882119,-47.295875l1.9965,1.606395l-10.9347,13.59038l-1.9965,-1.6064l10.9347,-13.590375z"/>
   <path id="svg_29" fill="#f7f9fe" d="m-116.563119,-13.5776l1.7138,1.5196l-5.8098,6.5525l-1.7138,-1.5196l5.8098,-6.5525z"/>
   <path id="svg_30" fill="#f7f9fe" d="m-81.918819,-55.91263l1.9965,1.60639l-18.0795,22.47024l-1.9965,-1.6064l18.0795,-22.47023z"/>
   <path id="svg_31" fill="#f7f9fe" d="m-74.546119,-93.372l2.32784,0l0,23.9694l-2.32784,0l0,-23.9694z"/>
   <path id="svg_32" fill="#f7f9fe" d="m-124.387319,-1.3469l0,0l3.8509,-4.3323l-1.7329,-1.5403l-3.8509,4.3322l0,0c-2.1256,2.3914 -1.9099,6.0574 0.4814,8.1831l1.5404,-1.7329c-1.4383,-1.2785 -1.5673,-3.4715 -0.2889,-4.9098z"/>
  </g>
 </g>
</svg>