<svg width="500" height="500" xmlns="http://www.w3.org/2000/svg">

 <g>
  <title>background</title>
  <rect fill="none" id="canvas_background" height="502" width="502" y="-1" x="-1"/>
 </g>
 <g>
  <title>Layer 1</title>
  <g transform="matrix(2.6348819732666016,0,0,2.6348819732666016,396.76090664358344,396.2959447711397) " id="widget">
   <path id="svg_2" stroke-linecap="square" stroke="#000000" stroke-width="0.582822" fill="#e0e0e0" d="m23.2343,-49.046301c-0.2713,-4.883812 -10.0389,-8.818 -22.0449,-8.818c-12.0061,0 -21.7737,3.934188 -22.1129,8.818l0,0l0,6.71523l44.2257,0l-0.0679,-6.71523l0,0z"/>
   <path id="svg_3" stroke-linecap="square" stroke="#000000" stroke-width="0.582822" fill="#e19407" d="m-6.1364,-57.321651c0,4.06984 3.2559,7.32572 7.3257,7.32572c4.0699,0 7.3258,-3.25588 7.3258,-7.32572l-14.6515,0z"/>
   <path id="svg_4" stroke-linecap="square" stroke="#000000" stroke-width="0.582822" fill="#e19407" d="m1.2572,-83.436471l0,0c-3.5272,0 -6.3761,2.8489 -6.3761,6.3761l0,19.12824c0,3.5272 2.8489,6.37609 6.3761,6.37609l0,0c3.5272,0 6.3761,-2.84889 6.3761,-6.37609l0,-19.12824c0,-3.5272 -2.9168,-6.3761 -6.3761,-6.3761z"/>
   <path id="svg_5" stroke-linecap="square" stroke="#000000" stroke-width="0.582822" fill="#6d4d41" d="m19.368,-76.585571l-35.7468,0l0,-16.0759c0,-8.8858 8.004,-16.0759 17.9073,-16.0759l0,0c9.8355,0 17.8395,7.1901 17.8395,16.0759l0,16.0759z"/>
   <path id="svg_6" stroke-linecap="square" stroke="#000000" stroke-width="0.582822" fill="#ffd163" d="m-14.8865,-89.473471l32.1517,0l0,16.0759c0,8.8859 -7.19,16.07592 -16.0759,16.07592l0,0c-8.8858,0 -16.0758,-7.19002 -16.0758,-16.07592l0,-16.0759z"/>
   <path id="svg_7" stroke-linecap="square" stroke="#000000" stroke-width="0.582822" fill="#252728" d="m7.9724,-79.570171c1.4245,0 2.5098,1.3567 2.5098,3.0524c0,1.6958 -1.1532,3.0524 -2.5098,3.0524c-1.4244,0 -2.5097,-1.3566 -2.5097,-3.0524c0,-1.6957 1.0853,-3.0524 2.5097,-3.0524z"/>
   <path id="svg_8" stroke-linecap="square" stroke="#000000" stroke-width="1.74847" fill="#252728" d="m-4.7119,-79.570171c1.4244,0 2.5097,1.3567 2.5097,3.0524c0,1.6958 -1.1531,3.0524 -2.5097,3.0524c-1.4245,0 -2.5098,-1.3566 -2.5098,-3.0524c0,-1.6957 1.1532,-3.0524 2.5098,-3.0524z"/>
   <path id="svg_9" stroke-linecap="square" stroke="#000000" stroke-width="0.582822" fill="#6d4d41" d="m-19.2277,-89.744771c4.1377,7.0544 13.4305,9.2928 20.824,5.0195c7.3936,-4.2733 10.039,-13.4983 5.9013,-20.5527l-26.7253,15.5332z"/>
   <path id="svg_10" stroke-linecap="square" stroke="#000000" stroke-width="1.74847" fill="#bebebe" d="m-10.9765,-0.360971c2.7889,3.5471 7.362,4.5436 10.2245,2.293c2.8625,-2.2505 2.9455,-6.9651 0.1845,-10.4768l-19.9685,-25.3979l-10.4089,8.1838c0,0 19.9684,25.3979 19.9684,25.3979z"/>
   <path id="svg_11" stroke-linecap="square" stroke="#000000" stroke-width="1.74847" fill="#4d4d4d" d="m-1.8795,17.481729c3.117,3.9224 9.3524,4.0869 13.9255,0.4527c4.5732,-3.6343 5.79,-9.7849 2.7041,-13.6681l-22.3184,-28.0844l-16.6296,13.2154c0,0 22.3184,28.0844 22.3184,28.0844z"/>
   <path id="svg_12" stroke-linecap="square" stroke="#000000" stroke-width="0.644172" fill="#e0e0e0" d="m-102.2045,-52.627501c-0.3079,-4.67279 -9.5659,-8.41239 -20.89,-8.434c-11.3242,-0.02162 -20.6756,3.68245 -20.9221,8.35419l-0.0792,-0.00016l-0.0121,6.33517l41.9705,0.08012l-0.0671,-6.33532l0,0z"/>
   <path id="svg_13" stroke-linecap="square" stroke="#000000" stroke-width="0.644172" fill="#e19407" d="m-130.0643,-60.520481c-0.0072,3.8011 3.0753,6.895391 6.9556,6.902798c3.8011,0.007256 6.9745,-3.075088 6.9818,-6.876188l-13.9374,-0.02661z"/>
   <path id="svg_14" stroke-linecap="square" stroke="#000000" stroke-width="0.644172" fill="#e19407" d="m-123.0483,-85.293471l0,0c-3.3259,-0.0064 -6.0235,2.6809 -6.0299,6.0069l-0.0346,18.13439c-0.0063,3.32596 2.681,6.023547 6.0069,6.029896l0,0c3.326,0.006349 6.0236,-2.680956 6.0299,-6.006916l0.0346,-18.13437c0.0064,-3.326 -2.6809,-6.0236 -6.0069,-6.0299z"/>
   <path id="svg_15" stroke-linecap="square" stroke="#000000" stroke-width="0.644172" fill="#6d4d41" d="m-105.8767,-78.687971l-33.8931,-0.0647l0.0291,-15.2836c0.0161,-8.3941 7.6314,-15.2691 16.9758,-15.2512l0,0c9.3444,0.0178 16.9336,6.8426 16.9174,15.3159l-0.0292,15.2836z"/>
   <path id="svg_16" stroke-linecap="square" stroke="#000000" stroke-width="0.644172" fill="#ffd765" d="m-138.321,-91.024371l30.488,0.0582l-0.0292,15.2836c-0.0161,8.4733 -6.8395,15.27061 -15.3127,15.25443l0,0c-8.3941,-0.01602 -15.2706,-6.83953 -15.2545,-15.31273l0.0292,-15.2836l0.0792,0.0001z"/>
   <path id="svg_17" stroke-linecap="square" stroke="#000000" stroke-width="0.644172" fill="#252728" d="m-116.641,-81.559371c1.3462,0.0026 2.3732,1.2716 2.3701,2.9346c-0.0031,1.5838 -1.1143,2.9279 -2.3813,2.9254c-1.3462,-0.0025 -2.3733,-1.2715 -2.3701,-2.9345c0.0032,-1.663 1.035,-2.9281 2.3813,-2.9255z"/>
   <path id="svg_18" stroke-linecap="square" stroke="#000000" stroke-width="0.644172" fill="#252728" d="m-128.6778,-81.582371c1.3462,0.0026 2.3732,1.2716 2.37,2.9346c-0.003,1.5838 -1.1142,2.9279 -2.3812,2.9255c-1.3463,-0.0026 -2.3733,-1.2716 -2.3701,-2.9346c0.0031,-1.663 1.035,-2.928 2.3813,-2.9255z"/>
   <path id="svg_19" stroke-linecap="square" stroke="#000000" stroke-width="0.644172" fill="#6d4d41" d="m-142.4384,-91.269771c3.8674,6.7385 12.7326,8.8936 19.7091,4.789c6.9764,-4.0254 9.5273,-12.8106 5.6597,-19.4699l-25.3688,14.6809z"/>
   <path id="svg_20" stroke-linecap="square" stroke="#000000" stroke-width="0.644172" fill="#6d4d41" d="m-117.7831,-105.556071c-4.1243,3.3973 -4.2954,10.0489 -0.3451,14.887c3.9502,4.8382 10.5208,5.9594 14.6452,2.5621l-14.3001,-17.4491z"/>
   <path id="svg_21" stroke-linecap="square" stroke="#000000" stroke-width="0.644172" fill="#252728" d="m-128.7815,-68.753771c-0.0035,1.8214 2.6069,3.3309 5.9328,3.3373c3.2468,0.0062 5.9421,-1.4933 5.9456,-3.3146l-11.8784,-0.0227z"/>
   <path id="svg_22" stroke-linecap="square" stroke="#000000" stroke-width="0.644172" fill="#e19407" d="m-126.3977,-73.025471c-0.0019,1.0295 1.501,1.9034 3.3224,1.9069c1.8213,0.0035 3.3276,-0.8647 3.3296,-1.8942l-6.652,-0.0127z"/>
   <path id="svg_23" stroke-linecap="square" stroke="#000000" stroke-width="0.644172" fill="#fac11d" d="m-112.4641,-71.019171c0.9566,-3.3241 -0.9371,-6.8913 -4.2613,-7.8479c-3.3241,-0.9566 -6.8913,0.9371 -7.8479,4.2613l12.1092,3.5866z"/>
   <path id="svg_24" stroke-linecap="square" stroke="#000000" stroke-width="0.644172" fill="#fac11d" d="m-133.1327,-70.979371c-0.9439,-3.3278 0.9634,-6.8877 4.2912,-7.8316c3.3278,-0.944 6.8877,0.9634 7.8316,4.2912l-12.1228,3.5404z"/>
   <path id="svg_25" stroke-linecap="square" stroke="#000000" stroke-width="0.644172" fill="#fee5a4" d="m-103.4888,-43.602271l0,0c-5.9393,0.0678 -10.8399,-4.77212 -10.8285,-10.711337l0,0c-0.0679,-5.939373 4.772,-10.839863 10.7113,-10.828563l0,0c5.9393,-0.0679 10.8399,4.77208 10.8285,10.711303l0,0c0.0679,5.939367 -4.6927,10.760897 -10.7113,10.828597z"/>
   <path id="svg_26" stroke-linecap="square" stroke="#000000" stroke-width="0.644172" fill="#fd7977" d="m-103.4464,-65.775371c-6.3352,-0.0121 -11.4925,5.20458 -11.5046,11.539746c-0.0121,6.335164 5.2046,11.492454 11.5397,11.504554c6.3352,0.0121 11.4925,-5.20459 11.5046,-11.539753c0.0121,-6.335167 -5.2046,-11.492447 -11.5397,-11.504547zm9.8015,9.44229c-1.1085,-0.0813 -2.772,0.15309 -4.1186,0.38809c-0.0002,0.07919 -0.0003,0.15838 -0.0005,0.23757c-0.0015,0.791895 -0.5572,1.503542 -1.2704,1.739751c0.4709,2.218219 0.7808,5.861539 -0.0166,8.710859c-0.0796,0.23741 -0.2383,0.39549 -0.3968,0.47438c-2.7742,1.34096 -6.9693,0.30345 -8.8682,-0.57126c-0.3165,-0.15898 -0.3157,-0.55493 0.0012,-0.63352c3.2492,-1.26083 6.582,-4.81802 8.1718,-7.982575c-0.6331,-0.238779 -1.0278,-0.873052 -1.0263,-1.664945c0.0003,-0.15838 0.0006,-0.31676 0.0801,-0.47499c-3.2451,-0.87728 -9.4997,-1.60193 -11.717,-1.60616c-0.1584,-0.00031 -0.3163,-0.23818 -0.2369,-0.3964c1.0343,-2.53211 3.2559,-4.74518 5.3163,-5.53315c0.2378,-0.07873 0.5545,-0.07813 0.7919,0.00151c1.9781,0.87487 5.2193,3.81108 6.7189,6.42721c0.2377,-0.07874 0.4754,-0.15747 0.7922,-0.15687c0.2376,0.00046 0.475,0.0801 0.7124,0.15974c0.7952,-1.74066 1.8274,-3.16411 2.5415,-3.87545c0.1587,-0.15808 0.3169,-0.07859 0.4751,0.00091c1.0275,1.03143 2.1322,3.09247 2.4464,4.4393c-0.0795,0.15822 -0.2382,0.31631 -0.3965,0.316z"/>
   <path id="svg_27" stroke-linecap="square" stroke="#000000" stroke-width="0.644172" fill="#a6ae31" d="m-136.528,-117.628771c0.3943,0.8719 0.0755,1.9007 -0.7963,2.295c-0.8718,0.3943 -1.9007,0.0756 -2.295,-0.7962c-0.3943,-0.8719 -0.0755,-1.9007 0.7963,-2.295c0.7926,-0.3945 1.8215,-0.0757 2.295,0.7962z"/>
   <path id="svg_28" stroke-linecap="square" stroke="#000000" stroke-width="0.644172" fill="#a6ae31" d="m-120.9274,-117.757271c0.3943,0.8718 0.0756,1.9007 -0.7963,2.2949c-0.8718,0.3943 -1.9007,0.0756 -2.2949,-0.7962c-0.3943,-0.8719 -0.0756,-1.9007 0.7962,-2.295c0.872,-0.4735 1.9007,-0.0756 2.295,0.7963z"/>
   <path id="svg_29" stroke-linecap="square" stroke="#000000" stroke-width="0.644172" fill="#a6ae31" d="m-128.9441,-108.032271l-7.5883,-7.3c-0.1587,0.1581 -0.3966,0.3161 -0.6344,0.474c-0.2379,0.1579 -0.4755,0.1574 -0.7132,0.2362l0.9302,10.534l0,0c-2.6899,-1.3513 -5.8566,-1.8325 -8.8668,-1.2839c0.0786,0.3169 0.0778,0.7128 -0.002,1.0294c3.1659,0.8771 5.8541,3.0996 7.4319,6.2702c0.4733,0.9512 4.1967,0.1664 8.3977,-1.8845c4.1216,-1.9719 7.1355,-4.421 6.7414,-5.3721l0,0c-1.4986,-3.1704 -1.4918,-6.734 -0.219,-9.7407c-0.3164,-0.159 -0.5535,-0.397 -0.7115,-0.6349c-2.5378,1.9749 -4.1268,4.6643 -4.766,7.6723z"/>
   <path id="svg_30" stroke-linecap="square" stroke="#000000" stroke-width="0.644172" fill="#a6ae31" d="m-146.4498,-105.531571c0.3942,0.8718 0.0755,1.9007 -0.7963,2.2949c-0.8719,0.3943 -1.9009,0.0756 -2.2949,-0.7962c-0.394,-0.8719 -0.076,-1.9007 0.7962,-2.295c0.872,-0.4735 1.9007,-0.0756 2.295,0.7963z"/>
   <path id="svg_31" stroke-linecap="square" stroke="#000000" stroke-width="0.644172" fill="#fecb4d" d="m-120.0128,-57.571261l8.7879,1.12543l-1.1254,8.78793l-8.7879,-1.12543l1.1254,-8.78793z"/>
   <path id="svg_32" stroke-linecap="square" stroke="#000000" stroke-width="0.644172" fill="#fecb4d" d="m-115.7692,-40.458171l0,0c-1.5045,-0.082 -2.6107,-1.3512 -2.4494,-2.8555l0,0c0.082,-1.50444 1.3512,-2.61068 2.8555,-2.44942l0,0c1.5044,0.08206 2.6107,1.35121 2.4494,2.85552l0,0c-0.0819,1.4252 -1.4303,2.5313 -2.8555,2.4494z"/>
   <path id="svg_33" stroke-linecap="square" stroke="#000000" stroke-width="0.644172" fill="#fecb4d" d="m-127.2502,-41.271971l0,0c-1.5044,-0.0821 -2.6107,-1.3512 -2.4494,-2.8555l0,0c0.082,-1.50446 1.3512,-2.61069 2.8555,-2.44944l0,0c1.5044,0.08206 2.6107,1.35121 2.4494,2.85554l0,0c-0.0819,1.4252 -1.351,2.5315 -2.8555,2.4494z"/>
   <path id="svg_34" stroke-linecap="square" stroke="#000000" stroke-width="0.644172" fill="#794a98" d="m-109.0828,-58.500681l-11.6386,-1.21007c-0.396,-0.00075 -0.7132,0.23621 -0.7139,0.63216c-0.0008,0.39595 0.2362,0.71316 0.6321,0.71392l11.6386,1.21006c0.396,0.00076 0.7132,-0.23621 0.7139,-0.63215c0.0006,-0.31676 -0.2363,-0.63397 -0.6321,-0.71392z"/>
   <path id="svg_35" stroke-linecap="square" stroke="#000000" stroke-width="0.644172" fill="#794a98" d="m-115.2032,-46.554691c-1.9003,-0.16201 -3.645,1.18089 -3.8864,3.16022c-0.162,1.9002 1.1809,3.6449 3.1602,3.8863c1.9002,0.162 3.645,-1.1809 3.8863,-3.1602c0.1622,-1.97942 -1.2599,-3.72431 -3.1601,-3.88632zm-0.5651,5.62142c-1.1875,-0.1607 -2.0567,-1.1918 -1.896,-2.3793c0.1606,-1.18757 1.1918,-2.05669 2.3793,-1.89604c1.1875,0.16064 2.0567,1.19174 1.896,2.37934c-0.1605,1.1083 -1.1916,1.9774 -2.3793,1.896z"/>
   <path id="svg_36" stroke-linecap="square" stroke="#000000" stroke-width="0.644172" fill="#794a98" d="m-110.3538,-56.444171l-9.8175,-1.04821c-0.3168,-0.00061 -0.5547,0.15732 -0.6345,0.47393l-0.4836,4.43371c-0.0006,0.31676 -0.3178,0.55372 -0.6344,0.47393l-7.9966,-0.80717l-0.396,-0.00075c-0.5543,-0.00106 -1.2709,2.05651 -1.5123,4.03579c-0.2413,1.97929 0.0715,4.03883 0.6257,4.11907l0.0792,0.00015l0.2375,0.00045c0.2417,-2.13766 2.1453,-3.71782 4.3623,-3.55521c2.0584,0.2415 3.5597,1.98654 3.5558,4.04547c-0.0003,0.15834 0.1578,0.31704 0.3161,0.31734l2.692,0.2427c0.1584,0.0003 0.3169,-0.0786 0.3966,-0.316c0.3997,-1.97895 2.2238,-3.40089 4.2824,-3.23858c2.1377,0.24165 3.7179,2.14522 3.5552,4.36228l0,0c0.2376,0.0004 0.3963,-0.1577 0.4759,-0.3951l1.2916,-12.82629c0.0792,0.00016 -0.0786,-0.31691 -0.3954,-0.31751zm-1.7565,7.51969c-0.0005,0.23756 -0.2383,0.39549 -0.4759,0.39504l-6.809,-0.72571c-0.2375,-0.00045 -0.3954,-0.23832 -0.395,-0.47589l0.5652,-5.7006c0.0005,-0.23757 0.2383,-0.39549 0.4759,-0.39504l6.809,0.725709c0.2375,0.000454 0.3954,0.238325 0.395,0.475895l-0.5652,5.700596z"/>
   <path id="svg_37" stroke-linecap="square" stroke="#000000" stroke-width="0.644172" fill="#794a98" d="m-126.3667,-47.763851c-1.9003,-0.16201 -3.645,1.18089 -3.8863,3.16018c-0.1621,1.9002 1.1808,3.645 3.1601,3.8863c1.9003,0.162 3.645,-1.1809 3.8864,-3.1601c0.162,-1.90029 -1.2601,-3.64518 -3.1602,-3.88638zm-0.6443,5.62128c-1.1875,-0.1607 -2.0566,-1.1918 -1.896,-2.37934c0.1607,-1.18754 1.1918,-2.05666 2.3793,-1.89601c1.1876,0.16064 2.0567,1.19177 1.8961,2.37935c-0.0815,1.1877 -1.1918,2.0566 -2.3794,1.896z"/>
   <path id="svg_38" stroke-linecap="square" stroke="#000000" stroke-width="0.644172" fill="#794a98" d="m-126.2151,-44.199971c-0.0006,0.3167 -0.3177,0.4745 -0.5553,0.474c-0.3167,-0.0006 -0.4745,-0.3176 -0.474,-0.5552c0.0006,-0.31676 0.3176,-0.47454 0.5552,-0.47408c0.3167,0.00061 0.4747,0.23848 0.4741,0.55528z"/>
   <path id="svg_39" stroke-linecap="square" stroke="#000000" stroke-width="0.644172" fill="#794a98" d="m-115.0515,-43.070071c-0.0006,0.3168 -0.3177,0.4746 -0.5552,0.4741c-0.3168,-0.0006 -0.4746,-0.3177 -0.4741,-0.5552c0.0006,-0.3168 0.3176,-0.4746 0.5552,-0.4741c0.3168,0.0006 0.4745,0.3177 0.4741,0.5552z"/>
   <path id="svg_40" stroke-linecap="square" stroke="#000000" stroke-width="0.644172" fill="#794a98" d="m-127.3812,-55.605581c-0.0002,0.07919 0.0789,0.15853 0.1581,0.15868l-0.162,1.900249c-0.0003,0.158379 0.0787,0.237718 0.2371,0.238021l1.3459,0.16095c0.1584,0.0003 0.2377,-0.07874 0.238,-0.237115l0.162,-1.900245c0.0792,0.00015 0.1586,-0.07889 0.1587,-0.15808l0.9526,-1.18603c0.0794,-0.15823 0.1589,-0.31646 0.08,-0.47499l-0.7101,-1.34758c-0.0789,-0.15853 -0.2371,-0.23802 -0.3955,-0.23832l-1.3459,-0.16095c-0.1584,-0.00031 -0.3169,0.07858 -0.3963,0.15762l-0.9526,1.26522c-0.0795,0.15822 -0.159,0.31645 -0.0801,0.47498l0.7101,1.34759z"/>
   <path id="svg_41" stroke-linecap="square" stroke="#000000" stroke-width="0.644172" fill="#fecb4d" d="m-147.1896,-49.862541l3.4053,-0.07269l0.144,7.52336l-3.4053,0.0726l-0.144,-7.52327z"/>
   <path id="svg_42" stroke-linecap="square" stroke="#000000" stroke-width="0.644172" fill="#fecb4d" d="m-143.9421,-50.252291l3.4053,-0.07269l0.144,7.52331l-3.4053,0.0727l-0.144,-7.52332z"/>
   <path id="svg_43" stroke-linecap="square" stroke="#000000" stroke-width="0.644172" fill="#fecb4d" d="m-140.9317,-50.880061l3.4053,-0.07269l0.144,7.52328l-3.4053,0.0727l-0.144,-7.52329z"/>
   <path id="svg_44" stroke-linecap="square" stroke="#000000" stroke-width="0.644172" fill="#fecb4d" d="m-137.7632,-51.349151l3.4053,-0.07269l0.144,7.52327l-3.4053,0.0727l-0.144,-7.52328z"/>
   <path id="svg_45" stroke-linecap="square" stroke="#000000" stroke-width="0.644172" fill="#fecb4d" d="m-135.8617,-51.820661l3.4053,-0.07269l0.144,7.52332l-3.4053,0.07268l-0.144,-7.52331z"/>
   <path id="svg_46" stroke-linecap="square" stroke="#000000" stroke-width="0.644172" fill="#fd7977" d="m-146.8735,-49.545171l12.6738,-1.79717c0.2376,0.00045 0.2382,-0.31631 0.0801,-0.47499c-1.82,-0.71618 -4.432,-1.35469 -7.5198,-1.677346c-0.0792,-0.000151 -0.2376,-0.000453 -0.3168,-0.000604c0,0 0,0 0,0l0,0c-0.2375,-0.000454 -0.3961,0.078434 -0.5548,0.23651l-4.5203,3.39653c-0.1585,0.07889 -0.0799,0.3958 0.1578,0.31707z"/>
   <path id="svg_47" stroke-linecap="square" stroke="#000000" stroke-width="0.644172" fill="#fd7977" d="m-132.3002,-50.784391c-0.1584,-0.0003 -0.317,0.15777 -0.3175,0.39534l-0.0092,4.83057c-0.0008,0.39595 -0.3183,0.79129 -0.7144,0.86972l-13.3873,2.19179c-0.2375,-0.0005 -0.3964,0.2368 -0.3967,0.3952c-0.0004,0.2375 0.2367,0.4756 0.4744,0.3968l14.021,-2.2697c0.3961,-0.0785 0.6342,-0.39476 0.635,-0.79071l0.011,-5.78084c0.0795,-0.15823 -0.1578,-0.31706 -0.3163,-0.23817z"/>
   <path id="svg_48" stroke-linecap="square" stroke="#000000" stroke-width="0.644172" fill="#fd7977" d="m-141.5592,-54.04885c3.4836,0.402599 6.4915,1.121049 8.311,2.074799l0.1582,0.07949c0.3955,0.23833 0.9502,0.08101 1.1094,-0.39383c0.0797,-0.23741 0.0801,-0.47498 0.0806,-0.71255c-0.0783,-0.475291 -0.4736,-0.792804 -0.8694,-0.87275c-0.3958,-0.079945 -0.7919,-0.001512 -1.0299,0.235604c-0.1577,-0.396251 -0.6322,-0.713915 -1.1073,-0.714822c-0.3168,-0.000605 -0.6339,0.157169 -0.7925,0.315246c-0.1575,-0.475441 -0.632,-0.793106 -1.1072,-0.794013c-0.3959,-0.000756 -0.713,0.157018 -0.9512,0.473324c-0.1576,-0.39625 -0.6321,-0.713916 -1.1073,-0.714823c-0.3959,-0.000756 -0.713,0.157018 -0.8718,0.394285c-0.237,-0.317211 -0.6325,-0.555536 -1.0284,-0.556292c-0.4751,-0.000907 -0.8715,0.235906 -1.1099,0.6314c-0.1588,0.237265 -0.001,0.554327 0.3157,0.554932z"/>
   <path id="svg_49" stroke-linecap="square" stroke="#ecf1f2" stroke-width="1.74847" fill-opacity="0" fill="#000000" d="m-95.2939,-54.264771c-10.5838,-18.9083 -3.5784,-45.1655 14.9718,-55.8755"/>
   <path id="svg_50" stroke-linecap="square" stroke="#000000" stroke-width="1.74847" fill="#bebebe" d="m-59.6873,-16.578071c31.0934,0.8088 56.919,-23.7072 57.7278,-54.8006c0.8089,-31.0934 -23.7072,-56.919 -54.80061,-57.7279c-31.09339,-0.8088 -56.91899,23.7073 -57.72779,54.8007c-0.8089,31.0934 23.7072,56.919 54.8006,57.7278zm0.1941,-7.4629c-26.9691,-0.7016 -48.2333,-23.10166 -47.5318,-50.0708c0.7016,-26.9691 23.1016,-48.2334 50.07076,-47.5318c26.96914,0.7015 48.23334,23.1016 47.53184,50.0707c-0.7015,26.96917 -23.1016,48.2334 -50.0708,47.5319z"/>
   <path id="svg_51" stroke-linecap="square" stroke="#000000" stroke-width="0.379818" fill="#deebef" d="m-61.0262,-55.459761l15.85074,0c8.74526,0 15.85076,5.92126 15.85076,13.11789l0,0c0,7.2877 -7.1055,13.1178 -15.85076,13.1178l0,0c-8.74523,0 -15.85074,-5.9212 -15.85074,-13.1178l0,-13.11789z"/>
   <path id="svg_52" stroke-linecap="square" stroke="#000000" stroke-width="0.379818" fill="#deebef" d="m-30.509,-47.261101c-0.3643,-5.83016 -12.02466,-10.56716 -26.32677,-10.56716c-14.30213,0 -25.96243,4.737 -26.32683,10.56716l-0.0911,0l0,8.01643l52.7447,0l0,-8.01643l0,0z"/>
   <path id="svg_53" stroke-linecap="square" stroke="#000000" stroke-width="0.379818" fill="#e19407" d="m-65.581,-57.099491c0,4.8281 3.9171,8.74524 8.74523,8.74524c4.8281,0 8.745236,-3.91714 8.745236,-8.74524l-17.490466,0z"/>
   <path id="svg_54" stroke-linecap="square" stroke="#000000" stroke-width="0.379818" fill="#e19407" d="m-56.74468,-88.254371l0,0c-4.19042,0 -7.56102,3.4616 -7.56102,7.561l0,22.77401c0,4.19043 3.4617,7.56099 7.56102,7.56099l0,0c4.19043,0 7.560992,-3.461656 7.560992,-7.56099l0,-22.77401c-0.000001,-4.1905 -3.370562,-7.561 -7.560992,-7.561z"/>
   <path id="svg_55" stroke-linecap="square" stroke="#000000" stroke-width="0.379818" fill="#6d4d41" d="m-35.1549,-80.055771l-42.633,0l0,-19.1302c0,-10.6582 9.5651,-19.2213 21.31651,-19.2213l0,0c11.84251,0 21.31649,8.5631 21.31649,19.2213l0,19.1302z"/>
   <path id="svg_56" stroke-linecap="square" stroke="#000000" stroke-width="0.379818" fill="#ffd163" d="m-75.966,-95.450971l38.3515,0l0,19.2213c0,10.5671 -8.56301,19.22128 -19.22127,19.22128l0,0c-10.56713,0 -19.22133,-8.56308 -19.22133,-19.22128l0,-19.2213l0.0911,0z"/>
   <path id="svg_57" stroke-linecap="square" stroke="#000000" stroke-width="0.379818" fill="#252728" d="m-48.728208,-83.608471c1.639728,0 3.006178,1.6397 3.006178,3.6438c0,2.0041 -1.36645,3.6439 -3.006178,3.6439c-1.639732,0 -3.006172,-1.6398 -3.006172,-3.6439c0,-2.0041 1.36644,-3.6438 3.006172,-3.6438z"/>
   <path id="svg_58" stroke-linecap="square" stroke="#000000" stroke-width="0.379818" fill="#252728" d="m-63.8502,-83.608471c1.6398,0 3.0062,1.6397 3.0062,3.6438c0,2.0041 -1.3664,3.6439 -3.0062,3.6439c-1.6397,0 -3.0062,-1.6398 -3.0062,-3.6439c0,-2.0041 1.3665,-3.6438 3.0062,-3.6438z"/>
   <path id="svg_59" stroke-linecap="square" stroke="#000000" stroke-width="0.379818" fill="#6d4d41" d="m-81.0674,-95.724271c4.9192,8.4719 16.033,11.1137 24.77821,6.0123c8.83633,-5.1014 11.9336,-16.124 7.014405,-24.5049l-31.792615,18.4926z"/>
   <path id="svg_60" stroke-linecap="square" stroke="#000000" stroke-width="0.379818" fill="#6d4d41" d="m-50.18575,-113.761371c-5.19248,4.2815 -5.37468,12.6624 -0.36438,18.7658c5.01029,6.0124 13.20893,7.4699 18.49253,3.0973l-18.12815,-21.8631z"/>
   <path id="svg_61" stroke-linecap="square" stroke="#000000" stroke-width="0.379818" fill="#252728" d="m-63.9413,-67.484471c0,2.2774 3.2795,4.19044 7.46991,4.19044c4.09933,0 7.469892,-1.82194 7.469892,-4.19044l-14.939802,0z"/>
   <path id="svg_62" stroke-linecap="square" stroke="#000000" stroke-width="0.379818" fill="#e19407" d="m-60.844,-72.859171c0,1.3665 1.91301,2.4596 4.19042,2.4596c2.27741,0 4.19043,-1.0931 4.19043,-2.4596l-8.38085,0z"/>
   <path id="svg_63" stroke-linecap="square" stroke="#000000" stroke-width="0.379818" fill="#fac11d" d="m-82.5249,-35.691871l0,0c-3.735,-2.4596 -5.5569,-6.2856 -4.0993,-8.563l0,0c1.4575,-2.27745 5.739,-2.09526 9.474,0.3643l0,0c3.7349,2.4596 5.5568,6.2857 4.0993,8.5631l0,0c-1.4575,2.2774 -5.7391,2.0952 -9.474,-0.3644z"/>
   <path id="svg_64" stroke-linecap="square" stroke="#000000" stroke-width="0.379818" fill="#45484b" d="m-35.5193,-84.337271l-12.935619,-0.6377c-1.548631,-0.0911 -3.097271,0.5466 -4.099331,1.7309c-0.81987,-1.2754 -2.27741,-2.0953 -3.91714,-2.1863c-1.54863,-0.0911 -3.09731,0.5465 -4.09931,1.8219c-0.8199,-1.2754 -2.2774,-2.0952 -3.9172,-2.1863l-12.9356,-0.6377c-0.5466,0 -1.0021,0.3644 -1.0932,0.911c0,0.5465 0.3644,1.002 0.911,1.0931l3.0062,0.1822l-0.0911,2.9151c-0.1822,4.0993 2.915,7.561 7.1055,7.8343c4.1904,0.2732 7.561,-2.9151 7.8342,-7.1055c0.0911,-1.6398 1.54868,-2.9151 3.09732,-2.824c1.63973,0.0911 2.91508,1.5486 2.82398,3.0972c-0.18219,4.0994 2.91508,7.6521 7.01441,7.8343c4.09933,0.1822 7.56099,-2.9151 7.83429,-7.1055l0.1822,-3.0062l3.0062,0.1822c0.5465,0 1.002,-0.3644 1.0931,-0.9109c0.0911,-0.4555 -0.2733,-0.911 -0.8199,-1.0021zm-31.8836,8.9274c-3.0062,-0.1822 -5.3747,-2.7328 -5.1925,-5.739l0.1822,-3.0062l7.9253,0.3644c1.6398,0.0911 2.9151,1.5486 2.824,3.0973c-0.1822,3.0972 -2.7329,5.3746 -5.739,5.2835zm26.69116,-4.1904c-0.18219,3.0062 -2.73288,5.3747 -5.73906,5.1925c-3.006175,-0.1822 -5.37468,-2.7329 -5.19248,-5.7391c0.09109,-1.6397 1.54863,-2.915 3.097268,-2.824l7.925372,0.3644l-0.0911,3.0062z"/>
   <path id="svg_65" stroke-linecap="square" stroke="#000000" stroke-width="0.379818" fill="#fee5a4" d="m-54.46727,-27.311071l-25.23363,-6.7411l-6.8322,-25.32472l25.4158,6.83221l6.65003,25.23361z"/>
   <path id="svg_66" stroke-linecap="square" stroke="#000000" stroke-width="0.379818" fill="#fee5a4" d="m-54.46727,-27.311071l18.67477,-18.31029l-6.55897,-25.50691l-18.76583,18.49249l6.65003,25.32471z"/>
   <path id="svg_67" stroke-linecap="square" stroke="#000000" stroke-width="0.379818" fill="#fac11d" d="m-39.80077,-41.248771l0,0c1.73087,2.0952 0.63767,5.7391 -2.4596,8.2898l0,0c-3.00618,2.4596 -6.923316,2.7329 -8.56305,0.7287l0,0c-1.73083,-2.0952 -0.63767,-5.8301 2.459601,-8.2897l0,0c3.006169,-2.4596 6.832219,-2.824 8.563049,-0.7288z"/>
   <path id="svg_68" stroke-linecap="square" stroke="#000000" stroke-width="0.379818" fill-opacity="0.4644" fill="#fecb4d" d="m-62.3926,-44.528211l-3.3706,4.09934l1.2753,6.3767l-4.737,-3.4616l-4.3726,2.5507l0.4555,-6.1946l-3.9171,-4.82808l5.0103,-0.36438l1.913,-5.46578l2.6418,5.92126l5.1014,1.36644z"/>
   <path id="svg_69" stroke-linecap="square" stroke="#000000" stroke-width="0.379818" fill-opacity="0.521" fill="#fecb4d" d="m-55.28714,-48.718641l4.64591,2.4596l1.275348,6.37677l3.006172,-5.01032l4.9192,0.63762l-2.82398,-5.55682l1.73083,-6.01235l-4.73701,1.548634l-3.91714,-4.372624l-0.09109,6.46784l-4.00824,3.46165z"/>
   <path id="svg_70" stroke-linecap="square" stroke="#000000" stroke-width="0.582822" fill="#6d4d41" d="m6.7515,-104.803171c-4.3412,3.595 -4.5447,10.6494 -0.3392,15.7367c4.2055,5.0873 11.1243,6.2405 15.4654,2.6454l-15.1262,-18.3821z"/>
   <path id="svg_71" stroke-linecap="square" stroke="#000000" stroke-width="0.582822" fill="#252728" d="m-4.7798,-66.003971c0,1.89924 2.7811,3.52718 6.2405,3.52718c3.4593,0 6.2404,-1.5601 6.2404,-3.52718l-12.4809,0z"/>
   <path id="svg_72" stroke-linecap="square" stroke="#000000" stroke-width="0.582822" fill="#e19407" d="m-2.2022,-70.548671c0,1.1531 1.5601,2.0349 3.5272,2.0349c1.9671,0 3.5272,-0.8818 3.5272,-2.0349l-7.0544,0z"/>
   <path id="svg_73" stroke-linecap="square" stroke="#000000" stroke-width="0.582822" fill="#fac11d" d="m12.1101,-49.995931l0,0c4.1377,-0.33916 7.7327,1.35661 7.9362,3.86635l0,0c0.2035,2.50971 -2.9846,4.81601 -7.1222,5.22301l0,0c-4.1377,0.3391 -7.7327,-1.3567 -7.9362,-3.8664l0,0c-0.2035,-2.50973 2.9845,-4.88381 7.1222,-5.22296z"/>
   <path id="svg_74" stroke-linecap="square" stroke="#000000" stroke-width="0.582822" fill="#a6ae31" d="m26.2867,-47.757521c0.6783,2.37408 8.3432,3.12022 9.7676,0.33916c1.3567,-2.6454 -1.3566,-5.42646 -3.188,-6.240431c-2.9845,-1.288783 -7.1901,3.527201 -6.5796,5.901271z"/>
   <path id="svg_75" stroke-linecap="square" stroke="#000000" stroke-width="0.582822" fill="#a63171" d="m24.9301,-46.265241c2.6454,2.23837 13.3627,1.89926 13.3627,-1.08529l-12.0739,0c-0.0678,0 -0.0678,0 -0.1357,0l-15.1262,0c-0.2713,0 -0.5427,0.27132 -0.5427,0.54264c0,0.33916 0.2714,0.54265 0.5427,0.54265l13.9731,0z"/>
   <path id="svg_76" stroke-linecap="square" stroke="#000000" stroke-width="0.582822" fill="#fac11d" d="m11.5675,-49.046301l0,0c2.0349,0.54264 3.4593,2.03492 3.1202,3.25587l0,0c-0.3392,1.22096 -2.3063,1.76356 -4.3412,1.22096l0,0c-2.0349,-0.54265 -3.4594,-2.03492 -3.1202,-3.25588l0,0c0.3391,-1.28878 2.2384,-1.83143 4.3412,-1.22095z"/>
  </g>
 </g>
</svg>