<svg version="1.1" id="logo" xmlns="http://www.w3.org/2000/svg" xmlns:xlink="http://www.w3.org/1999/xlink" x="0" y="0" viewBox="0 0 949 256" style="enable-background:new 0 0 949 256" xml:space="preserve"><style>.st3{clip-path:url(#SVGID_4_)}</style><defs><path id="SVGID_1_" d="M24-23h301v301H24z"/></defs><clipPath id="SVGID_2_"><use xlink:href="#SVGID_1_" style="overflow:visible"/></clipPath><g style="clip-path:url(#SVGID_2_)"><defs><path id="SVGID_3_" d="M24-23h301v301H24z"/></defs><clipPath id="SVGID_4_"><use xlink:href="#SVGID_3_" style="overflow:visible"/></clipPath><path d="M308.6 251.8H38.5c-1.5 0-2.8-1.2-2.8-2.8V5.4c0-1.5 1.2-2.8 2.8-2.8h270.1c1.5 0 2.8 1.2 2.8 2.8V249c-.1 1.6-1.3 2.8-2.8 2.8" style="clip-path:url(#SVGID_4_);fill:#f45a8d"/><path d="M281.2 225H65.8c-1.5 0-2.8-1.2-2.8-2.8V32.7c0-1.5 1.2-2.8 2.8-2.8h215.4c1.5 0 2.8 1.2 2.8 2.8v189.5c0 1.6-1.2 2.8-2.8 2.8" style="clip-path:url(#SVGID_4_);fill:#fff"/><path class="st3" d="m140.1 127.2-1-1c-11-11.1-22.1-22.1-33.1-33.2-4.8-4.8-4.3-12.2 1.1-16.1 3.7-2.7 8.8-2.6 12.4.2.5.4 1 .8 1.4 1.3l40.9 40.9c3.3 3.3 4.5 7.2 2.7 11.6-.5 1.4-1.4 2.7-2.5 3.8l-41.4 41.4c-4.3 4.3-10.8 4.3-14.9.2-4.2-4.2-4.1-10.6.3-15 11-11 22-22.1 33.1-33.1.3-.2.6-.6 1-1M245.3 170.9c-.1.2-.2.4-.2.6-1.4 5.5-5 8.3-10.5 8.3h-32.1c-9 0-18.1.1-27.1-.1-5.4-.1-9.7-4.8-9.7-10.3 0-5.8 4.4-10.5 10-10.6 3.1-.1 6.3 0 9.4 0 15.9 0 31.8.1 47.7-.1 5.6-.1 10.6 1.8 12.4 9v3.2z"/></g><path d="M424.9 208.3c-2.3 0-3.9-1.1-4.9-3.4L366 76.5c-1.2-2.8-1.2-4.9-.1-6.5 1.1-1.6 2.7-2.3 4.8-2.3 2.3 0 4 1.3 5.2 3.8l51.8 124h-5.2l51.1-123.3c.6-1.7 1.4-2.8 2.3-3.5 1-.7 2.2-1 3.6-1 2.2 0 3.6.9 4.3 2.7.7 1.8.6 3.8-.4 6.1l-53.8 128.3c-.6 1.3-1.4 2.2-2.3 2.7-.7.6-1.6.8-2.4.8zM511.3 208.3c-1.6 0-2.9-.5-3.9-1.5s-1.5-2.3-1.5-3.9V73.1c0-1.6.5-2.8 1.5-3.9 1-1 2.3-1.5 3.9-1.5s2.8.5 3.9 1.5c1 1 1.5 2.3 1.5 3.9v129.8c0 1.6-.5 2.9-1.5 3.9-1.1 1-2.4 1.5-3.9 1.5zM542.3 77.4c-1.4 0-2.6-.5-3.5-1.4-.9-.9-1.3-2.1-1.3-3.5s.5-2.6 1.3-3.5c.9-.9 2.1-1.4 3.5-1.4h101.9c1.4 0 2.6.5 3.5 1.4.9.9 1.3 2.1 1.3 3.5s-.5 2.6-1.3 3.5c-.9.9-2.1 1.4-3.5 1.4H542.3zm50.9 130.9c-1.6 0-2.9-.5-3.9-1.5s-1.5-2.3-1.5-3.9V67.7h10.8v135.2c0 1.6-.5 2.9-1.5 3.9-1.1 1-2.4 1.5-3.9 1.5zM646.1 208.3c-2.3 0-3.9-.9-4.8-2.7-.9-1.8-.9-3.5-.1-5l54.5-129.1c1-2.5 2.7-3.8 5.2-3.8 2.4 0 4.1 1.3 5.2 3.8L761 200.6c1 1.7.9 3.4-.2 5.1-1.1 1.7-2.6 2.6-4.7 2.6-1.2 0-2.2-.3-3-.8-.8-.5-1.5-1.4-2.1-2.6L698.1 78.7h5.8l-52.7 126.2c-.5 1.2-1.1 2.1-2 2.6-.9.5-1.9.8-3.1.8zm13.3-35.3 4.3-9.7h74.9l4.1 9.7h-83.3zM787.2 208.3c-1.6 0-2.9-.5-3.9-1.5s-1.5-2.3-1.5-3.9V73.1c0-1.6.5-2.8 1.5-3.9 1-1 2.3-1.5 3.9-1.5 1.7 0 3.1.6 4.1 1.8l91.4 119V73.1c0-1.6.5-2.8 1.5-3.9 1-1 2.3-1.5 3.9-1.5 1.4 0 2.7.5 3.8 1.5 1.1 1 1.6 2.3 1.6 3.9v129.8c0 1.6-.5 2.9-1.6 3.9s-2.3 1.5-3.8 1.5c-.8 0-1.6-.1-2.3-.5-.7-.3-1.2-.7-1.7-1.2L792.6 87.5v115.4c0 1.6-.5 2.9-1.5 3.9s-2.3 1.5-3.9 1.5z"/></svg>