<svg height="512" style="enable-background:new 0 0 512 512" width="512" xml:space="preserve" xmlns="http://www.w3.org/2000/svg"><path d="M485.98 113.141c-16.923 7.506-35.109 12.578-54.197 14.858 19.48-11.679 34.445-30.171 41.49-52.208a188.932 188.932 0 0 1-59.925 22.899c-17.213-18.341-41.738-29.799-68.88-29.799-52.114 0-94.368 42.25-94.368 94.364 0 7.396.834 14.598 2.444 21.505-78.427-3.936-147.962-41.504-194.504-98.597-8.123 13.937-12.777 30.146-12.777 47.441 0 32.739 16.659 61.623 41.98 78.546a93.982 93.982 0 0 1-42.742-11.804c-.009.395-.009.788-.009 1.188 0 45.721 32.529 83.859 75.698 92.531a94.517 94.517 0 0 1-42.616 1.618c12.009 37.488 46.858 64.773 88.153 65.533-32.296 25.312-72.985 40.396-117.198 40.396a191.42 191.42 0 0 1-22.511-1.32c41.762 26.775 91.365 42.4 144.655 42.4 173.574 0 268.493-143.794 268.493-268.496 0-4.091-.092-8.16-.273-12.208 18.439-13.304 34.437-29.924 47.087-48.847z" style="fill-rule:evenodd;clip-rule:evenodd;fill:#2ca7e0"/></svg>