<svg width="528" height="141" xmlns="http://www.w3.org/2000/svg" version="1.1" xml:space="preserve">
 <g>
  <title>Layer 1</title>
  <g id="svg_10" fill="#F45A8D">
   <path d="m59.81291,140.7c-2.3,0 -3.9,-1.1 -4.9,-3.4l-54,-128.4c-1.2,-2.8 -1.2,-4.9 -0.1,-6.5c1.1,-1.6 2.7,-2.3 4.8,-2.3c2.3,0 4,1.3 5.2,3.8l51.8,124l-5.2,0l51.1,-123.3c0.6,-1.7 1.4,-2.8 2.3,-3.5c1,-0.7 2.2,-1 3.6,-1c2.2,0 3.6,0.9 4.3,2.7c0.7,1.8 0.6,3.8 -0.4,6.1l-53.8,128.3c-0.6,1.3 -1.4,2.2 -2.3,2.7c-0.7,0.6 -1.6,0.8 -2.4,0.8z" id="svg_11"/>
   <path d="m146.21291,140.7c-1.6,0 -2.9,-0.5 -3.9,-1.5c-1,-1 -1.5,-2.3 -1.5,-3.9l0,-129.8c0,-1.6 0.5,-2.8 1.5,-3.9c1,-1 2.3,-1.5 3.9,-1.5c1.6,0 2.8,0.5 3.9,1.5c1,1 1.5,2.3 1.5,3.9l0,129.8c0,1.6 -0.5,2.9 -1.5,3.9c-1.1,1 -2.4,1.5 -3.9,1.5z" id="svg_12"/>
   <path d="m177.21291,9.8c-1.4,0 -2.6,-0.5 -3.5,-1.4c-0.9,-0.9 -1.3,-2.1 -1.3,-3.5c0,-1.4 0.5,-2.6 1.3,-3.5c0.9,-0.9 2.1,-1.4 3.5,-1.4l101.9,0c1.4,0 2.6,0.5 3.5,1.4c0.9,0.9 1.3,2.1 1.3,3.5c0,1.4 -0.5,2.6 -1.3,3.5c-0.9,0.9 -2.1,1.4 -3.5,1.4l-101.9,0zm50.9,130.9c-1.6,0 -2.9,-0.5 -3.9,-1.5c-1,-1 -1.5,-2.3 -1.5,-3.9l0,-135.2l10.8,0l0,135.2c0,1.6 -0.5,2.9 -1.5,3.9c-1.1,1 -2.4,1.5 -3.9,1.5z" id="svg_13"/>
   <path d="m281.01291,140.7c-2.3,0 -3.9,-0.9 -4.8,-2.7c-0.9,-1.8 -0.9,-3.5 -0.1,-5l54.5,-129.1c1,-2.5 2.7,-3.8 5.2,-3.8c2.4,0 4.1,1.3 5.2,3.8l54.9,129.1c1,1.7 0.9,3.4 -0.2,5.1c-1.1,1.7 -2.6,2.6 -4.7,2.6c-1.2,0 -2.2,-0.3 -3,-0.8c-0.8,-0.5 -1.5,-1.4 -2.1,-2.6l-52.9,-126.2l5.8,0l-52.7,126.2c-0.5,1.2 -1.1,2.1 -2,2.6c-0.9,0.5 -1.9,0.8 -3.1,0.8zm13.3,-35.3l4.3,-9.7l74.9,0l4.1,9.7l-83.3,0z" id="svg_14"/>
   <path d="m422.11291,140.7c-1.6,0 -2.9,-0.5 -3.9,-1.5c-1,-1 -1.5,-2.3 -1.5,-3.9l0,-129.8c0,-1.6 0.5,-2.8 1.5,-3.9c1,-1 2.3,-1.5 3.9,-1.5c1.7,0 3.1,0.6 4.1,1.8l91.4,119l0,-115.4c0,-1.6 0.5,-2.8 1.5,-3.9c1,-1 2.3,-1.5 3.9,-1.5c1.4,0 2.7,0.5 3.8,1.5c1.1,1 1.6,2.3 1.6,3.9l0,129.8c0,1.6 -0.5,2.9 -1.6,3.9c-1.1,1 -2.3,1.5 -3.8,1.5c-0.8,0 -1.6,-0.1 -2.3,-0.5c-0.7,-0.3 -1.2,-0.7 -1.7,-1.2l-91.5,-119.1l0,115.4c0,1.6 -0.5,2.9 -1.5,3.9c-1,1 -2.3,1.5 -3.9,1.5z" id="svg_15"/>
  </g>
 </g>
</svg>