<svg width="500" height="500" xmlns="http://www.w3.org/2000/svg">

 <g>
  <title>background</title>
  <rect fill="none" id="canvas_background" height="502" width="502" y="-1" x="-1"/>
 </g>
 <g>
  <title>Layer 1</title>
  <g transform="matrix(2.9756381511688232,0,0,2.9756381511688232,445.92570057617843,444.96731883071203) " id="widget">
   <path id="svg_2" stroke-linecap="square" stroke="#000000" stroke-width="1.90184" fill-opacity="0" fill="#000000" d="m-78.038138,-145.645188l-16.382,30.8776"/>
   <path id="svg_3" stroke-linecap="square" stroke="#000000" stroke-width="1.90184" fill-opacity="0" fill="#000000" d="m-76.941438,-143.262888c-0.5398,1.0173 -1.802,1.4045 -2.8193,0.8647c-1.0174,-0.5397 -1.4045,-1.802 -0.8648,-2.8193c0.5398,-1.0173 1.802,-1.4045 2.8193,-0.8647c1.0174,0.5397 1.4045,1.802 0.8648,2.8193z"/>
   <path id="svg_4" stroke-linecap="square" stroke="#000000" stroke-width="1.90184" fill-opacity="0" fill="#000000" d="m-91.783038,-115.288888c-0.5398,1.0173 -1.802,1.4045 -2.8193,0.8647c-1.0174,-0.5397 -1.4045,-1.802 -0.8648,-2.8193c0.5398,-1.0173 1.802,-1.4045 2.8193,-0.8648c1.0174,0.5398 1.4045,1.802 0.8648,2.8194z"/>
   <path id="svg_5" stroke-linecap="square" stroke="#000000" stroke-width="1.25767" fill="#644f3d" d="m-57.273078,-49.402888l-0.98513,3.0115c0,0 1.05892,0.1818 2.08066,0.3187c0.49228,0.046 1.02171,0.1369 1.39481,0.1304c0.373,-0.0065 0.6192,0.0166 0.6192,0.0166c0,0 0.072,0.9999 0.2632,2.0523c0.1181,0.5076 0.2361,1.0152 0.3247,1.3959c0.0885,0.3808 0.2296,0.6422 0.2296,0.6422c0,0 0.2538,-0.059 0.5896,-0.1103c0.209,-0.0219 0.4179,-0.0437 0.6718,-0.1027c0.2538,-0.0591 0.4627,-0.0809 0.7986,-0.1323c1.0076,-0.154 1.9779,-0.3529 1.9779,-0.3529c0,0 0.0591,0.2538 0.1925,0.5973c0.1334,0.3435 0.3411,0.7768 0.5861,1.2549c0.245,0.4781 0.4899,0.9562 0.6682,1.2625c0.1782,0.3064 0.3565,0.6127 0.3565,0.6127c0,0 0.9857,-0.363 1.9715,-0.726c0.9113,-0.4527 1.8227,-0.9055 1.8227,-0.9055c0,0 0.1487,0.1795 0.3642,0.5307c0.2154,0.3512 0.5129,0.7101 0.8924,1.0766c0.6694,0.8075 1.4657,1.5854 1.4657,1.5854c0,0 0.9267,-0.6168 1.7341,-1.2861c0.4038,-0.3347 0.7626,-0.6322 1.0767,-0.8925c0.2319,-0.268 0.4562,-0.4539 0.4562,-0.4539c0,0 0.7668,0.651 1.6232,1.2277c0.8193,0.5318 1.7207,1.0713 1.7207,1.0713c0,0 0.1422,-0.1936 0.419,-0.4988c0.232,-0.2679 0.569,-0.7744 0.8907,-1.1167c0.3294,-0.4244 0.6139,-0.8116 0.8087,-1.1245c0.1948,-0.3128 0.2998,-0.5513 0.2998,-0.5513c0,0 0.8718,0.4126 1.8782,0.7136c0.2834,0.0679 0.477,0.2102 0.7603,0.278c0.2833,0.0679 0.4025,0.1205 0.641,0.2255c0.3654,0.0756 0.6038,0.1806 0.6038,0.1806c0,0 0.1051,-0.2384 0.3448,-0.5885c0.2396,-0.35 0.4049,-0.7897 0.5778,-1.3115c0.3831,-0.9987 0.6393,-1.9679 0.6393,-1.9679c0,0 0.2833,0.0678 0.6115,0.0985c0.3653,0.0756 0.9025,0.0844 1.3947,0.1305c1.0666,0.0997 2.1037,0.0726 2.1037,0.0726l-8.9247,-10.7663c0,0 0.1399,0.7166 0.19,1.5075c0.0065,0.3731 0.0874,0.8358 0.0195,1.1191c-0.0307,0.3282 -0.0012,0.4551 -0.0012,0.4551c0,0 -0.7525,-0.36 -1.4679,-0.6752c-0.3129,-0.1948 -0.618,-0.4716 -0.8937,-0.6216c-0.1936,-0.1422 -0.3872,-0.2845 -0.3872,-0.2845c0,0 -0.023,0.2462 -0.046,0.4923c-0.0154,0.1641 -0.0307,0.3282 -0.0089,0.5371c-0.0602,0.2013 -0.0307,0.3282 -0.0909,0.5295c-0.1959,0.7679 -0.3919,1.5359 -0.3919,1.5359c0,0 -0.1936,-0.1423 -0.4244,-0.3294c-0.2308,-0.1871 -0.5732,-0.5088 -0.8411,-0.7408c-0.3052,-0.2768 -0.5283,-0.546 -0.7142,-0.7703c-0.186,-0.2243 -0.2975,-0.3588 -0.2975,-0.3588c0,0 -0.2704,0.6782 -0.5932,1.4756c-0.3973,0.7077 -0.7945,1.4155 -0.7945,1.4155c0,0 -0.1488,-0.1795 -0.2898,-0.441c-0.186,-0.2243 -0.4014,-0.5755 -0.572,-0.9638c-0.3937,-0.6576 -0.7426,-1.3523 -0.7426,-1.3523c0,0 -0.4344,0.6628 -0.9804,1.1911c-0.2768,0.3052 -0.5536,0.6103 -0.7407,0.8411c-0.2243,0.186 -0.3666,0.3796 -0.3666,0.3796c0,0 -0.304,-0.7319 -0.5182,-1.5382c-0.2143,-0.8063 -0.3093,-1.5601 -0.3093,-1.5601c0,0 -0.1795,0.1488 -0.3589,0.2975c-0.2243,0.1859 -0.5755,0.4014 -0.8447,0.6245c-0.3063,0.1783 -0.6575,0.3937 -0.9639,0.572c-0.2615,0.141 -0.4781,0.2449 -0.4781,0.2449c0,0 -0.0873,-0.8358 -0.1003,-1.5819c-0.0219,-0.2089 -0.0065,-0.373 0.0088,-0.5371c-0.0218,-0.209 0.0307,-0.3282 0.0461,-0.4923c0.0307,-0.3282 0.046,-0.4923 0.046,-0.4923c0,0 -0.2166,0.1039 -0.4333,0.2078c-0.2538,0.059 -0.687,0.2668 -1.0305,0.4002c-0.732,0.304 -1.5678,0.3914 -1.5678,0.3914c0,0 0.0231,-0.2462 0.0833,-0.4474c0.0306,-0.3282 0.1511,-0.7308 0.2266,-1.0962c0.196,-0.7679 0.474,-1.52814 0.474,-1.52814l-3.142,0.40964l0.9852,-3.01149l-3.142,0.40965l0.9852,-3.0115l-3.142,0.40965l0.9851,-3.01151l-3.14191,0.40966l0.98513,-3.01151l-3.14195,0.40965l0.98513,-3.0115l-3.14194,0.40965l0.98513,-3.0115l-3.14195,0.40965l0.98513,-3.0115l-3.14195,0.40965l0.98513,-3.01155l-10.81114,8.96199l3.32788,-0.18536l-0.98513,3.01151l3.14195,-0.40965l-0.98513,3.0115l3.14194,-0.40965l-0.98513,3.0115l3.14195,-0.40965l-0.98513,3.0115l3.06757,-0.49937l-0.98513,3.01148l3.14195,-0.4096l-0.98513,3.0115l3.14194,-0.4097l-0.98513,3.0115l3.06758,-0.4993z"/>
   <path id="svg_6" stroke-linecap="square" stroke="#000000" stroke-width="1.71779" fill="#4a4b4a" d="m-105.738438,-7.555788c0,1.407 1.206,2.5125 2.5125,2.5125c1.407,0 2.5126,-1.206 2.5126,-2.5125c0,-1.407 -1.206,-2.5125 -2.5126,-2.5125c-1.3065,0 -2.5125,1.1055 -2.5125,2.5125z"/>
   <path id="svg_7" stroke-linecap="square" stroke="#000000" stroke-width="1.71779" fill="#4a4b4a" d="m-91.869338,-7.555788c0,1.407 1.2061,2.5125 2.5126,2.5125c1.3065,0 2.5125,-1.206 2.5125,-2.5125c0,-1.407 -1.206,-2.5125 -2.5125,-2.5125c-1.3065,0 -2.5126,1.1055 -2.5126,2.5125z"/>
   <path id="svg_8" stroke-linecap="square" stroke="#000000" stroke-width="1.71779" fill="#4a4b4a" d="m-119.607538,-7.555788c0,1.407 1.206,2.5125 2.5125,2.5125c1.407,0 2.5125,-1.206 2.5125,-2.5125c0,-1.407 -1.206,-2.5125 -2.5125,-2.5125c-1.3065,0 -2.5125,1.1055 -2.5125,2.5125z"/>
   <path id="svg_9" stroke-linecap="square" stroke="#000000" stroke-width="1.71779" fill="#4a4b4a" d="m-77.899638,-7.555788c0,1.407 1.206,2.5125 2.51249,2.5125c1.40701,0 2.51252,-1.206 2.51252,-2.5125c0,-1.407 -1.20601,-2.5125 -2.51252,-2.5125c-1.40699,0 -2.51249,1.1055 -2.51249,2.5125z"/>
   <path id="svg_10" stroke-linecap="square" stroke="#000000" stroke-width="1.71779" fill="#4a4b4a" d="m-130.964138,-5.043288c1.407,0 2.5125,-1.206 2.5125,-2.5125c0,-1.407 -1.206,-2.5125 -2.5125,-2.5125c-1.407,0 -2.5125,1.206 -2.5125,2.5125c0,1.407 1.206,2.5125 2.5125,2.5125z"/>
   <path id="svg_11" stroke-linecap="square" stroke="#000000" stroke-width="1.71779" fill="#4a4b4a" d="m-58.301998,-3.535788l0,-8.04l-3.71853,0c-0.402,-1.206 -0.80401,-2.3116 -1.40701,-3.3166l2.61302,-2.613l-5.72855,-5.7285l-2.81403,2.613c-0.80401,-0.402 -1.60801,-0.7035 -2.41202,-1.005l0,-4.1206l-8.14062,0l0,3.5176l-5.427,0l0,-3.5176l-8.1406,0l0,3.5176l-5.5275,0l0,-3.5176l-8.1406,0l0,3.5176l-5.5275,0l0,-3.5176l-8.1406,0l0,3.5176l-5.3266,0l0,-3.5176l-8.1405,0l0,4.0201c-1.1056,0.3015 -2.2111,0.7035 -3.1156,1.3065l-2.9145,-2.9145l-5.7285,5.7285l2.9145,2.9145c-0.5025,1.005 -1.005,2.0101 -1.3065,3.0151l-4.0201,0l0,8.1405l4.0201,0c0.3015,1.1056 0.7035,2.2111 1.3065,3.0151l-2.9145,2.9145l5.7285,5.7285l2.9145,-2.9145c1.005,0.5025 2.1106,1.005 3.1156,1.3065l0,4.0201l8.1405,0l0,-3.5176l5.5276,0l0,3.5176l8.1406,0l0,-3.5176l5.5275,0l0,3.5176l8.1406,0l0,-3.5176l5.5275,0l0,3.5176l7.9396,0l0,-3.5176l5.5275,0l0,3.5176l8.14062,0l0,-4.0201c0.90451,-0.3015 1.70852,-0.603 2.41202,-1.1055l2.71352,2.7135l5.72856,-5.7285l-2.61302,-2.613c0.603,-1.1055 1.10551,-2.211 1.40701,-3.3166l3.71853,0l0,0zm-72.66214,2.5126c-3.618,0 -6.5326,-3.0151 -6.5326,-6.5326c0,-3.5175 3.0151,-6.5326 6.5326,-6.5326c3.5175,0 6.5325,3.0151 6.5325,6.5326c0,3.5175 -2.814,6.5326 -6.5325,6.5326zm7.3366,-6.5326c0,-3.618 3.015,-6.5326 6.5325,-6.5326c3.5175,0 6.5326,3.0151 6.5326,6.5326c0,3.5175 -3.0151,6.5326 -6.5326,6.5326c-3.5175,0 -6.5325,-2.9146 -6.5325,-6.5326zm13.8691,0c0,-3.618 3.015,-6.5326 6.5325,-6.5326c3.5176,0 6.5326,3.0151 6.5326,6.5326c0,3.5175 -3.015,6.5326 -6.5326,6.5326c-3.5175,0 -6.5325,-2.9146 -6.5325,-6.5326zm13.9696,0c0,-3.618 3.015,-6.5326 6.5326,-6.5326c3.5175,0 6.5325,3.0151 6.5325,6.5326c0,3.5175 -3.015,6.5326 -6.5325,6.5326c-3.5176,0 -6.5326,-2.9146 -6.5326,-6.5326zm13.8691,0c0,-3.618 3.0151,-6.5326 6.53259,-6.5326c3.51753,0 6.53256,3.0151 6.53256,6.5326c0,3.5175 -3.01503,6.5326 -6.53256,6.5326c-3.61799,0 -6.53259,-2.9146 -6.53259,-6.5326z"/>
   <path id="svg_12" stroke-linecap="square" stroke="#000000" stroke-width="1.90184" fill="#84d951" d="m-137.420638,-32.662588l11.5368,0c2.3876,0 4.3388,1.9512 4.3388,4.3389c0,2.3876 -1.9512,4.3388 -4.3388,4.3388l-11.5368,0l0,5.6955l80.10024,0l0,-56.24202c0,-31.08108 -17.91716,-56.24198 -40.05014,-56.24198c-22.1329,0 -40.0501,25.1609 -40.0501,56.24198l0,41.86882zm0,1.7177l0,5.2424c0.1237,-0.0496 0.2146,-0.1725 0.2146,-0.3106l0,-4.6213c0,-0.138 -0.0909,-0.261 -0.2146,-0.3105zm13.6934,4.0589l0,-2.9011c0,-0.1797 -0.1541,-0.3338 -0.3338,-0.3338c-0.1797,0 -0.3338,0.1541 -0.3338,0.3338l0,2.9011c0,0.1797 0.1541,0.3338 0.3338,0.3338c0.1797,0 0.3338,-0.1541 0.3338,-0.3338zm-11.9127,0.8729c0,0.2054 0.1541,0.3338 0.3338,0.3338c0.1797,0 0.3337,-0.1541 0.3337,-0.3338l0,-4.6213c0,-0.1797 -0.154,-0.3337 -0.3337,-0.3337c-0.1797,0 -0.3338,0.154 -0.3338,0.3337l0,4.6213zm2.2593,0c0,0.2054 0.1541,0.3338 0.3338,0.3338c0.1797,0 0.3337,-0.1541 0.3337,-0.3338l0,-4.6213c0,-0.1797 -0.154,-0.3337 -0.3337,-0.3337c-0.1797,0 -0.3338,0.154 -0.3338,0.3337l0,4.6213zm2.2336,0c0,0.2054 0.1541,0.3338 0.3338,0.3338c0.1797,0 0.3337,-0.1541 0.3337,-0.3338l0,-4.6213c0,-0.1797 -0.154,-0.3337 -0.3337,-0.3337c-0.1797,0 -0.3338,0.154 -0.3338,0.3337l0,4.6213zm2.2337,0c0,0.2054 0.154,0.3338 0.3337,0.3338c0.1797,0 0.3338,-0.1541 0.3338,-0.3338l0,-4.6213c0,-0.1797 -0.1541,-0.3337 -0.3338,-0.3337c-0.1797,0 -0.3337,0.154 -0.3337,0.3337l0,4.6213zm2.9524,0l0,-4.6213c0,-0.1797 -0.154,-0.3337 -0.3337,-0.3337c-0.1797,0 -0.3338,0.154 -0.3338,0.3337l0,4.6213c0,0.1797 0.1541,0.3338 0.3338,0.3338c0.1797,0 0.3337,-0.1541 0.3337,-0.3338z"/>
   <path id="svg_13" stroke-linecap="square" stroke="#000000" stroke-width="1.90184" fill="#8a8a8a" d="m-27.159038,-63.890768l0,0l14.2196,-6.44635l-2.5786,-5.68787l-14.2195,6.4464l0,0c-7.8492,3.55838 -11.3316,12.81672 -7.7732,20.6659c3.5584,7.8492 12.8167,11.3316 20.6659,7.7732l0,0l14.2195,-6.4464l-2.5785,-5.6878l-14.2196,6.4464l0,0c-4.7208,2.1402 -10.2593,0.0569 -12.3995,-4.6639c-2.1402,-4.72092 -0.057,-10.2594 4.6639,-12.39958z"/>
   <path id="svg_14" fill="#000000" d="m-71.410548,-60.379648c-0.20526,-0.12209 -0.32894,-0.33461 -0.26842,-0.57649c0.05609,-0.32788 0.35017,-0.54199 0.64532,-0.47758l0.99585,0.14775c0.04283,-0.58587 -0.00035,-1.16732 -0.07626,-1.74045l-0.98205,0.2495c-0.13094,0.03326 -0.31125,0.00938 -0.43441,-0.06388c-0.12315,-0.07326 -0.2302,-0.2203 -0.26347,-0.35124c-0.08317,-0.32735 0.09997,-0.63524 0.41512,-0.69788l0.98205,-0.24949c-0.19464,-0.56039 -0.43423,-1.09194 -0.7637,-1.5658l-0.80458,0.60516c-0.19198,0.13589 -0.44997,0.14916 -0.63471,0.03928c-0.06157,-0.03663 -0.11094,-0.09378 -0.16031,-0.15094c-0.20579,-0.26135 -0.12528,-0.63028 0.11165,-0.79502l0.80458,-0.60516c-0.38663,-0.42449 -0.80599,-0.84067 -1.30693,-1.16643l-0.50058,0.84156c-0.15872,0.26684 -0.51881,0.35832 -0.78564,0.1996c-0.26684,-0.15872 -0.35832,-0.51881 -0.1996,-0.78565l0.50058,-0.84155c-0.53756,-0.26418 -1.09123,-0.45458 -1.64878,-0.59171l-0.1478,0.99585c-0.056,0.32789 -0.3501,0.54199 -0.6453,0.47758c-0.0738,-0.0161 -0.1476,-0.0322 -0.2091,-0.06883c-0.2053,-0.12209 -0.329,-0.33461 -0.2685,-0.57649l0.119,-1.0408c-0.5859,-0.04282 -1.1674,0.00035 -1.7405,0.07626l0.2495,0.98206c0.0832,0.32735 -0.1,0.63523 -0.4151,0.69787c-0.131,0.03327 -0.3113,0.00938 -0.4344,-0.06387c-0.1232,-0.07326 -0.2302,-0.2203 -0.2635,-0.35124l-0.2495,-0.98206c-0.5604,0.19465 -1.0919,0.43423 -1.5658,0.76371l0.6052,0.80457c0.2058,0.26135 0.1252,0.63028 -0.1117,0.79502c-0.192,0.1359 -0.45,0.14917 -0.6347,0.03928c-0.0616,-0.03662 -0.1109,-0.09378 -0.1603,-0.15093l-0.6052,-0.80458c-0.4245,0.38663 -0.8406,0.80599 -1.1664,1.30693l0.8416,0.50058c0.2668,0.15872 0.3583,0.51881 0.1996,0.78565c-0.1588,0.26683 -0.5188,0.35831 -0.7857,0.19959l-0.8415,-0.50058c-0.2642,0.53756 -0.4546,1.09123 -0.5917,1.64879l0.9631,0.15606c0.3279,0.0561 0.542,0.35018 0.4775,0.64533c-0.056,0.32788 -0.3501,0.54198 -0.6453,0.47758l-0.9958,-0.14775c-0.0429,0.58587 0.0003,1.16731 0.0762,1.74044l0.9821,-0.24949c0.3273,-0.08317 0.6352,0.09997 0.6979,0.41511c0.0831,0.32735 -0.1,0.63524 -0.4152,0.69788l-0.982,0.2495c0.1946,0.56039 0.4342,1.09193 0.7637,1.5658l0.8046,-0.60516c0.2613,-0.20579 0.6303,-0.12528 0.795,0.11165c0.2058,0.26135 0.1253,0.63029 -0.1117,0.79502l-0.8045,0.60516c0.3866,0.42449 0.806,0.84067 1.3069,1.16643l0.5006,-0.84156c0.1587,-0.26683 0.5188,-0.35831 0.7856,-0.19959c0.2669,0.15872 0.3583,0.5188 0.1996,0.78564l-0.5006,0.84157c0.5376,0.2642 1.0913,0.4546 1.6488,0.5917l0.1478,-0.99586c0.0561,-0.32788 0.3501,-0.54199 0.6453,-0.47758c0.3279,0.0561 0.542,0.35018 0.4776,0.64533l-0.1478,0.99581c0.5859,0.0429 1.1673,-0.0003 1.7405,-0.0762l-0.2495,-0.98208c-0.0832,-0.32735 0.0999,-0.63523 0.4151,-0.69787c0.3273,-0.08317 0.63523,0.09997 0.69787,0.41511l0.24949,0.98204c0.56039,-0.1946 1.09194,-0.4342 1.5658,-0.76368l-0.60516,-0.80458c-0.20579,-0.26135 -0.12528,-0.63028 0.11166,-0.79502c0.26135,-0.20579 0.63028,-0.12528 0.79502,0.11165l0.60515,0.80458c0.4245,-0.38663 0.84068,-0.80599 1.16644,-1.30693l-0.84156,-0.50058c-0.26684,-0.15872 -0.35832,-0.51881 -0.1996,-0.78564c0.15872,-0.26684 0.51881,-0.35832 0.78565,-0.1996l0.84155,0.50058c0.26418,-0.53756 0.45458,-1.09123 0.59171,-1.64879l-0.93428,-0.11112c-0.05326,-0.00389 -0.12704,-0.01999 -0.20915,-0.06883zm-2.96845,-1.87687l-2.45194,1.45928c-0.3801,0.21853 -0.8184,0.20791 -1.1879,-0.01186c-0.1642,-0.09767 -0.3039,-0.2364 -0.3988,-0.40397c-0.3134,-0.54765 -0.144,-1.25278 0.3831,-1.57836l2.45195,-1.45928c0.54765,-0.31337 1.25278,-0.14403 1.57836,0.38309c0.34222,0.59259 0.16456,1.26499 -0.37477,1.6111z"/>
   <path id="svg_15" fill="#000000" d="m-71.962978,-70.989898c-5.06986,-3.0157 -11.64966,-1.34408 -14.66536,3.72579c-3.0157,5.06988 -1.344,11.64963 3.7258,14.66532c5.0699,3.0157 11.64966,1.3441 14.66535,-3.72578c3.0157,-5.06987 1.34409,-11.64963 -3.72579,-14.66533zm2.12478,13.71301c-0.09767,0.1642 -0.19535,0.32841 -0.31355,0.48041c-0.44396,0.65293 -0.97834,1.22429 -1.54987,1.71799c-0.28577,0.2468 -0.61259,0.4692 -0.93941,0.6917c-0.64143,0.4243 -1.34055,0.7587 -2.09735,1.0033c-0.3845,0.1325 -0.73238,0.2034 -1.11296,0.2827c-0.7613,0.1586 -1.523,0.1778 -2.3219,0.1195c-0.3729,-0.0273 -0.7745,-0.0995 -1.1557,-0.1595c-0.7378,-0.161 -1.4801,-0.408 -2.1819,-0.7699c-0.1764,-0.0771 -0.3406,-0.1748 -0.5048,-0.2725c-0.1642,-0.0976 -0.3284,-0.1953 -0.4804,-0.3135c-0.653,-0.444 -1.2243,-0.97835 -1.718,-1.54989c-0.2468,-0.28577 -0.4693,-0.61259 -0.6917,-0.93941c-0.4243,-0.64143 -0.7587,-1.34055 -1.0033,-2.09735c-0.1325,-0.3845 -0.2035,-0.73238 -0.2827,-1.11299c-0.1586,-0.76123 -0.1779,-1.52298 -0.1195,-2.32189c0.0273,-0.37283 0.0995,-0.7745 0.1595,-1.15564c0.161,-0.73787 0.408,-1.48016 0.7698,-2.18193c0.0772,-0.17642 0.1749,-0.34062 0.2725,-0.50483c0.0977,-0.1642 0.1954,-0.32841 0.3136,-0.48041c0.444,-0.65293 0.9783,-1.22429 1.5499,-1.71797c0.2857,-0.24684 0.6126,-0.46926 0.9394,-0.69169c0.6414,-0.42431 1.3405,-0.75874 2.0973,-1.00328c0.3845,-0.13254 0.7324,-0.20349 1.113,-0.28276c0.7612,-0.15855 1.523,-0.17784 2.3219,-0.11944c0.3728,0.02725 0.7745,0.09944 1.15565,0.15942c0.73787,0.16103 1.48016,0.40804 2.18193,0.7699c0.17641,0.07715 0.34062,0.17482 0.50482,0.2725c0.16421,0.09767 0.32842,0.19534 0.48042,0.31355c0.65293,0.44395 1.22429,0.97833 1.71797,1.54987c0.24684,0.28577 0.46926,0.61259 0.69168,0.93941c0.43264,0.67416 0.78759,1.38549 1.02382,2.10956c0.13253,0.3845 0.20348,0.73238 0.28276,1.11299c0.15854,0.76122 0.17783,1.52298 0.11944,2.32189c-0.02725,0.37283 -0.09945,0.7745 -0.15943,1.15564c-0.16102,0.73787 -0.40804,1.48016 -0.7699,2.18193c-0.09767,0.1642 -0.19534,0.32841 -0.29302,0.49262z"/>
   <path id="svg_16" stroke-linecap="square" stroke="#000000" stroke-width="1.25767" fill="#644f3d" d="m-64.028748,-39.691688l-0.98513,3.0115c0,0 1.05893,0.1818 2.08067,0.3188c0.49227,0.046 1.02174,0.1369 1.39478,0.1304c0.37304,-0.0065 0.61918,0.0165 0.61918,0.0165c0,0 0.07202,0.9999 0.26326,2.0524c0.11806,0.5076 0.23611,1.0152 0.32465,1.3959c0.08854,0.3807 0.22961,0.6422 0.22961,0.6422c0,0 0.25382,-0.059 0.58967,-0.1104c0.20895,-0.0218 0.41791,-0.0436 0.67172,-0.1027c0.25381,-0.059 0.46276,-0.0808 0.79862,-0.1322c1.00757,-0.1541 1.97795,-0.353 1.97795,-0.353c0,0 0.05903,0.2538 0.19243,0.5974c0.1334,0.3435 0.3412,0.7767 0.5861,1.2548c0.245,0.4782 0.4899,0.9563 0.6682,1.2626c0.1783,0.3064 0.3565,0.6127 0.3565,0.6127c0,0 0.9858,-0.363 1.9715,-0.726c0.9113,-0.4528 1.8227,-0.9055 1.8227,-0.9055c0,0 0.1488,0.1794 0.3642,0.5306c0.2154,0.3513 0.5129,0.7101 0.8925,1.0767c0.6693,0.8074 1.4656,1.5854 1.4656,1.5854c0,0 0.9267,-0.6168 1.7342,-1.2862c0.4037,-0.3347 0.7626,-0.6321 1.0766,-0.8925c0.232,-0.2679 0.4563,-0.4539 0.4563,-0.4539c0,0 0.7667,0.6511 1.6232,1.2278c0.8193,0.5318 1.7206,1.0713 1.7206,1.0713c0,0 0.1422,-0.1936 0.4191,-0.4988c0.2319,-0.268 0.569,-0.7744 0.8907,-1.1168c0.3293,-0.4244 0.6138,-0.8116 0.8086,-1.1244c0.1948,-0.3128 0.2999,-0.5513 0.2999,-0.5513c0,0 0.8718,0.4126 1.8782,0.7136c0.2833,0.0679 0.4769,0.2101 0.7602,0.278c0.2833,0.0679 0.4026,0.1204 0.641,0.2255c0.3654,0.0755 0.6039,0.1806 0.6039,0.1806c0,0 0.105,-0.2385 0.3447,-0.5885c0.2396,-0.35 0.4049,-0.7898 0.5778,-1.3115c0.3831,-0.9988 0.6393,-1.968 0.6393,-1.968c0,0 0.2833,0.0679 0.6115,0.0986c0.3654,0.0756 0.9025,0.0844 1.3948,0.1304c1.0666,0.0998 2.1037,0.0726 2.1037,0.0726l-8.9248,-10.7662c0,0 0.1399,0.7165 0.1901,1.5075c0.0065,0.373 0.0873,0.8358 0.0195,1.1191c-0.0307,0.3282 -0.0012,0.4551 -0.0012,0.4551c0,0 -0.7526,-0.3601 -1.468,-0.6753c-0.3128,-0.1947 -0.618,-0.4716 -0.8936,-0.6215c-0.1937,-0.1422 -0.3873,-0.2845 -0.3873,-0.2845c0,0 -0.023,0.2461 -0.046,0.4923c-0.0153,0.1641 -0.0307,0.3282 -0.0089,0.5371c-0.0602,0.2013 -0.0306,0.3282 -0.0908,0.5295c-0.196,0.7679 -0.392,1.5358 -0.392,1.5358c0,0 -0.1936,-0.1422 -0.4244,-0.3293c-0.2308,-0.1871 -0.5731,-0.5088 -0.8411,-0.7408c-0.3052,-0.2768 -0.5283,-0.546 -0.7142,-0.7703c-0.1859,-0.2243 -0.2975,-0.3589 -0.2975,-0.3589c0,0 -0.2703,0.6782 -0.5932,1.4757c-0.3972,0.7077 -0.7945,1.4154 -0.7945,1.4154c0,0 -0.1487,-0.1794 -0.2898,-0.4409c-0.1859,-0.2243 -0.4014,-0.5755 -0.572,-0.9639c-0.3937,-0.6575 -0.7425,-1.3523 -0.7425,-1.3523c0,0 -0.4344,0.6629 -0.9804,1.1912c-0.2769,0.3052 -0.5537,0.6103 -0.7408,0.8411c-0.2243,0.1859 -0.3666,0.3795 -0.3666,0.3795c0,0 -0.3039,-0.7319 -0.5182,-1.5382c-0.2143,-0.8063 -0.3093,-1.56 -0.3093,-1.56c0,0 -0.1795,0.1487 -0.3589,0.2975c-0.2243,0.1859 -0.5755,0.4014 -0.8446,0.6245c-0.3064,0.1782 -0.6576,0.3937 -0.9639,0.5719c-0.2615,0.1411 -0.4781,0.245 -0.4781,0.245c0,0 -0.0874,-0.8358 -0.1004,-1.5819c-0.0218,-0.209 -0.0065,-0.373 0.0089,-0.5371c-0.0219,-0.209 0.0306,-0.3282 0.046,-0.4923c0.0307,-0.3282 0.046,-0.4923 0.046,-0.4923c0,0 -0.2166,0.1039 -0.4332,0.2078c-0.2538,0.059 -0.6871,0.2668 -1.0306,0.4002c-0.7319,0.304 -1.5677,0.3913 -1.5677,0.3913c0,0 0.023,-0.2461 0.0832,-0.4474c0.0307,-0.3282 0.1511,-0.7307 0.2266,-1.0961c0.196,-0.7679 0.474,-1.5282 0.474,-1.5282l-3.14193,0.4097l0.98513,-3.0115l-3.14194,0.4096l0.98513,-3.0115l-3.14195,0.4097l0.98513,-3.0115l-3.14195,0.4096l0.98513,-3.01148l-3.14194,0.40965l0.98513,-3.0115l-3.14195,0.40965l0.98513,-3.0115l-3.14194,0.40965l0.98513,-3.01151l-3.14195,0.40966l0.98513,-3.01151l-10.81119,8.96195l3.3279,-0.18536l-0.9851,3.0115l3.1419,-0.4096l-0.9851,3.0115l3.14196,-0.4097l-0.98513,3.0115l3.14194,-0.4096l-0.98513,3.0115l3.06758,-0.4994l-0.98513,3.0115l3.14194,-0.4097l-0.98513,3.0115l3.14195,-0.4096l-0.98513,3.0115l3.06757,-0.4994z"/>
   <path id="svg_17" stroke-linecap="square" stroke="#000000" stroke-width="1.90184" fill="#8a8a8a" d="m-28.474438,-54.686388l0,0l13.5209,-7.80625l-3.1225,-5.40834l-13.5209,7.80627l0,0c-7.4635,4.30905 -10.0236,13.86362 -5.7145,21.32712c4.309,7.4635 13.8636,10.0236 21.3271,5.7146l0,0l13.5208,-7.8063l-3.1225,-5.4083l-13.5208,7.8062l0,0c-4.489,2.5917 -10.2046,1.0602 -12.7963,-3.4287c-2.5917,-4.4889 -1.0602,-10.2046 3.4287,-12.7963z"/>
   <path id="svg_18" stroke-linecap="square" stroke="#000000" stroke-width="1.90184" fill-opacity="0" fill="#000000" d="m-105.477838,-145.106988l8.9767,35.6834"/>
   <path id="svg_19" stroke-linecap="square" stroke="#000000" stroke-width="1.90184" fill-opacity="0" fill="#000000" d="m-102.940738,-144.018888c0.2958,1.1757 -0.4175,2.3685 -1.5932,2.6642c-1.1756,0.2958 -2.3685,-0.4175 -2.6642,-1.5932c-0.2958,-1.1756 0.4175,-2.3685 1.5932,-2.6642c1.1756,-0.2958 2.3685,0.4175 2.6642,1.5932z"/>
   <path id="svg_20" stroke-linecap="square" stroke="#000000" stroke-width="1.90184" fill-opacity="0" fill="#000000" d="m-94.808038,-111.690988c0.2957,1.1757 -0.4176,2.3685 -1.5933,2.6643c-1.1756,0.2957 -2.3685,-0.4176 -2.6642,-1.5932c-0.2958,-1.1757 0.4175,-2.3685 1.5932,-2.6643c1.1757,-0.2958 2.3685,0.4176 2.6643,1.5932z"/>
   <path id="svg_21" stroke-linecap="square" stroke="#000000" stroke-width="1.90184" fill="#000000" d="m-70.628408,-102.367888c0.04765,2.8048 -2.18749,5.1172 -4.99233,5.1648c-2.8048,0.0477 -5.1172,-2.1875 -5.1649,-4.9923c-0.0476,-2.8048 2.1875,-5.1172 4.9924,-5.1649c2.8048,-0.0476 5.11719,2.1875 5.16483,4.9924z"/>
   <path id="svg_22" stroke-linecap="square" stroke="#000000" stroke-width="2.11656" fill="#f7f9fe" d="m-65.937908,-79.939888l-62.46053,0c-5.489,0 -9.8423,-0.5507 -9.8423,-1.2186l0,-7.7215c0,-0.6796 4.4479,-1.2186 9.8423,-1.2186l62.46053,0c5.48897,0 9.84228,0.5507 9.84228,1.2186l0,7.7332c-0.09464,0.6562 -4.44796,1.2069 -9.84228,1.2069z"/>
   <path id="svg_23" stroke-linecap="square" stroke="#000000" stroke-width="1.10429" fill="#5c8145" d="m-129.389538,-66.154698l-2.2366,0c-0.3635,0 -0.6151,0.27958 -0.6151,0.61508l-0.028,10.73593c0,0.3635 0.2796,0.6151 0.6151,0.6151l4.6131,0c0.3635,0 0.6151,-0.2796 0.6151,-0.6151l0.028,-10.73593c0,-0.36346 -0.2796,-0.61508 -0.6151,-0.61508l-2.1808,0c0.8108,-0.02796 1.5936,-0.3355 2.2087,-0.95058c1.2861,-1.28608 1.2861,-3.35498 0,-4.64106c-0.6151,-0.61508 -1.4258,-0.95058 -2.2925,-0.95058l0,0c-0.8667,0 -1.7055,0.36346 -2.2926,0.95058c-1.2861,1.28608 -1.2861,3.35498 0,4.64106c0.5871,0.58712 1.3699,0.92262 2.1807,0.95058zm-0.8108,-4.16577c0.2517,-0.22367 0.5592,-0.36346 0.8947,-0.36346l0,0c0.3355,0 0.643,0.11183 0.8947,0.36346l0,0c0.5032,0.50324 0.5032,1.31403 0,1.78932c-0.5033,0.50325 -1.3141,0.50325 -1.7894,0c-0.4753,-0.47529 -0.4753,-1.28608 0,-1.78932z"/>
   <path id="svg_24" stroke-linecap="square" stroke="#000000" stroke-width="1.10429" fill="#5c8145" d="m-129.277638,-54.188588l0,0c-0.8667,0 -1.7055,0.3634 -2.2926,0.9506c-1.2861,1.2861 -1.2861,3.355 0,4.641c0.6151,0.6431 1.4818,0.9506 2.3205,0.9506c0.8388,0 1.6775,-0.3355 2.2926,-0.9506c1.2861,-1.286 1.2861,-3.3549 0,-4.641c-0.6151,-0.6151 -1.4538,-0.9506 -2.3205,-0.9506zm0.8946,4.1658c-0.5032,0.5032 -1.314,0.5032 -1.7893,0c-0.5033,-0.5033 -0.5033,-1.3141 0,-1.7894c0.2516,-0.2236 0.5592,-0.3634 0.8947,-0.3634l0,0c0.3355,0 0.643,0.1118 0.8946,0.3634l0,0c0.4753,0.5033 0.4753,1.2861 0,1.7894z"/>
   <path id="svg_25" stroke-linecap="square" stroke="#000000" stroke-width="1.71779" fill="#6b6e69" d="m-96.170138,-2.311488c0,1.407 1.206,2.5125 2.5125,2.5125c1.407,0 2.5125,-1.206 2.5125,-2.5125c0,-1.407 -1.206,-2.5125 -2.5125,-2.5125c-1.3065,0 -2.5125,1.1055 -2.5125,2.5125z"/>
   <path id="svg_26" stroke-linecap="square" stroke="#000000" stroke-width="1.71779" fill="#6b6e69" d="m-82.301038,-2.311488c0,1.407 1.206,2.5125 2.5125,2.5125c1.3065,0 2.5125,-1.206 2.5125,-2.5125c0,-1.407 -1.206,-2.5125 -2.5125,-2.5125c-1.3065,0 -2.5125,1.1055 -2.5125,2.5125z"/>
   <path id="svg_27" stroke-linecap="square" stroke="#000000" stroke-width="1.71779" fill="#6b6e69" d="m-110.039338,-2.311488c0,1.407 1.206,2.5125 2.5125,2.5125c1.4071,0 2.5126,-1.206 2.5126,-2.5125c0,-1.407 -1.206,-2.5125 -2.5126,-2.5125c-1.3065,0 -2.5125,1.1055 -2.5125,2.5125z"/>
   <path id="svg_28" stroke-linecap="square" stroke="#000000" stroke-width="1.71779" fill="#6b6e69" d="m-68.331438,-2.311488c0,1.407 1.20601,2.5125 2.51253,2.5125c1.40701,0 2.51252,-1.206 2.51252,-2.5125c0,-1.407 -1.20602,-2.5125 -2.51252,-2.5125c-1.40702,0 -2.51253,1.1055 -2.51253,2.5125z"/>
   <path id="svg_29" stroke-linecap="square" stroke="#000000" stroke-width="1.71779" fill="#6b6e69" d="m-121.395938,0.201012c1.407,0 2.5125,-1.206 2.5125,-2.5125c0,-1.407 -1.206,-2.5125 -2.5125,-2.5125c-1.407,0 -2.5125,1.206 -2.5125,2.5125c0,1.407 1.206,2.5125 2.5125,2.5125z"/>
   <path id="svg_30" stroke-linecap="square" stroke="#000000" stroke-width="1.71779" fill="#6b6e69" d="m-48.733738,1.708512l0,-8.04l-3.7186,0c-0.402,-1.206 -0.804,-2.3115 -1.407,-3.3166l2.6131,-2.613l-5.7286,-5.7285l-2.81402,2.613c-0.80401,-0.402 -1.60801,-0.7035 -2.41202,-1.005l0,-4.1206l-8.14057,0l0,3.5176l-5.42709,0l0,-3.5176l-8.1405,0l0,3.5176l-5.5276,0l0,-3.5176l-8.1406,0l0,3.5176l-5.5275,0l0,-3.5176l-8.1406,0l0,3.5176l-5.3265,0l0,-3.5176l-8.1406,0l0,4.0201c-1.1055,0.3015 -2.211,0.7035 -3.1155,1.3065l-2.9146,-2.9145l-5.7285,5.7285l2.9145,2.9145c-0.5025,1.0051 -1.005,2.0101 -1.3065,3.0151l-4.02,0l0,8.1405l4.02,0c0.3015,1.1056 0.7035,2.2111 1.3065,3.0151l-2.9145,2.9145l5.7285,5.7286l2.9146,-2.9146c1.005,0.5025 2.1105,1.005 3.1155,1.3065l0,4.0201l8.1406,0l0,-3.5176l5.5275,0l0,3.5176l8.1406,0l0,-3.5176l5.5275,0l0,3.5176l8.1406,0l0,-3.5176l5.5276,0l0,3.5176l7.9395,0l0,-3.5176l5.52759,0l0,3.5176l8.14057,0l0,-4.0201c0.90451,-0.3015 1.70852,-0.603 2.41202,-1.1055l2.71352,2.7136l5.7286,-5.7286l-2.6131,-2.613c0.603,-1.1055 1.1055,-2.211 1.407,-3.3166l3.7186,0l0,0zm-72.6622,2.5126c-3.618,0 -6.5325,-3.0151 -6.5325,-6.5326c0,-3.5175 3.015,-6.5325 6.5325,-6.5325c3.5176,0 6.5326,3.015 6.5326,6.5325c0,3.5175 -2.814,6.5326 -6.5326,6.5326zm7.3366,-6.5326c0,-3.618 3.015,-6.5325 6.5325,-6.5325c3.5176,0 6.5326,3.015 6.5326,6.5325c0,3.5175 -3.015,6.5326 -6.5326,6.5326c-3.5175,0 -6.5325,-2.9146 -6.5325,-6.5326zm13.8691,0c0,-3.618 3.015,-6.5325 6.5326,-6.5325c3.5175,0 6.5325,3.015 6.5325,6.5325c0,3.5175 -3.015,6.5326 -6.5325,6.5326c-3.5176,0 -6.5326,-2.9146 -6.5326,-6.5326zm13.9696,0c0,-3.618 3.0151,-6.5325 6.5326,-6.5325c3.5175,0 6.53256,3.015 6.53256,6.5325c0,3.5175 -3.01506,6.5326 -6.53256,6.5326c-3.5175,0 -6.5326,-2.9146 -6.5326,-6.5326zm13.86917,0c0,-3.618 3.01503,-6.5325 6.53256,-6.5325c3.51753,0 6.53256,3.015 6.53256,6.5325c0,3.5175 -3.01503,6.5326 -6.53256,6.5326c-3.61803,0 -6.53256,-2.9146 -6.53256,-6.5326z"/>
   <path id="svg_31" stroke-linecap="square" stroke="#000000" stroke-width="1.7588" fill="#f7f9fe" d="m17.086262,-75.933788l-0.9094,-58.769l-7.3436,0.1136l0.8149,52.6591l-32.0032,32.2944l6.7508,6.6899l32.4825,-32.7781l0.2112,-0.0032l-0.0032,-0.2067l-0.208,0.2099l0.208,-0.2099z"/>
   <path id="svg_32" stroke-linecap="square" stroke="#000000" stroke-width="1.7588" fill="#f7f9fe" d="m13.448662,-72.699498l-0.9094,-58.76909l-7.3435,0.1136l0.8148,52.6591l-32.0032,32.2945l6.7508,6.6899l32.4825,-32.77812l0.2112,-0.00327l-0.0032,-0.20662l-0.208,0.20989l0.208,-0.20989z"/>
   <path id="svg_33" stroke-linecap="square" stroke="#000000" stroke-width="1.84958" fill-opacity="0" fill="#000000" d="m13.017262,-131.825888l2.2898,-2.1957"/>
   <path id="svg_34" stroke-linecap="square" stroke="#000000" stroke-width="1.84958" fill-opacity="0" fill="#000000" d="m5.630362,-132.177888l2.233,-1.9843"/>
   <path id="svg_35" stroke-linecap="square" stroke="#000000" stroke-width="2" fill-opacity="0" fill="#000000" d="m-6.731138,-67.870988l2.2293,-2.14923"/>
   <path id="svg_36" stroke-linecap="square" stroke="#000000" stroke-width="2" fill-opacity="0" fill="#000000" d="m-2.022538,-72.460358l2.2293,-2.14923"/>
   <path id="svg_37" stroke-linecap="square" stroke="#000000" stroke-width="2" fill-opacity="0" fill="#000000" d="m-11.114838,-63.548668l2.2294,-2.14923"/>
   <path id="svg_38" stroke-linecap="square" stroke="#000000" stroke-width="2" fill-opacity="0" fill="#000000" d="m-15.647438,-59.061298l2.2294,-2.14924"/>
   <path id="svg_39" stroke-linecap="square" stroke="#000000" stroke-width="2" fill-opacity="0" fill="#000000" d="m-20.329138,-54.422488l2.2293,-2.14923"/>
  </g>
 </g>
</svg>