<?xml version="1.0" encoding="utf-8"?>
<!-- Generator: Adobe Illustrator 22.0.0, SVG Export Plug-In . SVG Version: 6.00 Build 0)  -->
<svg version="1.1" id="logo" xmlns="http://www.w3.org/2000/svg" xmlns:xlink="http://www.w3.org/1999/xlink" x="0px" y="0px"
	 viewBox="0 0 949 256" style="enable-background:new 0 0 949 256;" xml:space="preserve">
<style type="text/css">
	.st0{clip-path:url(#SVGID_2_);}
	.st1{clip-path:url(#SVGID_4_);fill:#F45A8D;}
	.st2{clip-path:url(#SVGID_4_);fill:#FFFFFF;}
	.st3{clip-path:url(#SVGID_4_);}
</style>
<g>
	<g>
		<defs>
			<rect id="SVGID_1_" x="24" y="-23" width="301" height="301"/>
		</defs>
		<clipPath id="SVGID_2_">
			<use xlink:href="#SVGID_1_"  style="overflow:visible;"/>
		</clipPath>
		<g class="st0">
			<defs>
				<rect id="SVGID_3_" x="24" y="-23" width="301" height="301"/>
			</defs>
			<clipPath id="SVGID_4_">
				<use xlink:href="#SVGID_3_"  style="overflow:visible;"/>
			</clipPath>
			<path class="st1" d="M308.6,251.8H38.5c-1.5,0-2.8-1.2-2.8-2.8V5.4c0-1.5,1.2-2.8,2.8-2.8h270.1c1.5,0,2.8,1.2,2.8,2.8V249
				C311.3,250.6,310.1,251.8,308.6,251.8"/>
			<path class="st2" d="M281.2,225H65.8c-1.5,0-2.8-1.2-2.8-2.8V32.7c0-1.5,1.2-2.8,2.8-2.8h215.4c1.5,0,2.8,1.2,2.8,2.8v189.5
				C284,223.8,282.8,225,281.2,225"/>
			<path class="st3" d="M140.1,127.2c-0.4-0.4-0.7-0.7-1-1C128.1,115.1,117,104.1,106,93c-4.8-4.8-4.3-12.2,1.1-16.1
				c3.7-2.7,8.8-2.6,12.4,0.2c0.5,0.4,1,0.8,1.4,1.3c13.6,13.6,27.3,27.3,40.9,40.9c3.3,3.3,4.5,7.2,2.7,11.6
				c-0.5,1.4-1.4,2.7-2.5,3.8c-13.8,13.8-27.6,27.6-41.4,41.4c-4.3,4.3-10.8,4.3-14.9,0.2c-4.2-4.2-4.1-10.6,0.3-15
				c11-11,22-22.1,33.1-33.1C139.4,128,139.7,127.6,140.1,127.2"/>
			<path class="st3" d="M245.3,170.9c-0.1,0.2-0.2,0.4-0.2,0.6c-1.4,5.5-5,8.3-10.5,8.3c-10.7,0-21.4,0-32.1,0
				c-9,0-18.1,0.1-27.1-0.1c-5.4-0.1-9.7-4.8-9.7-10.3c0-5.8,4.4-10.5,10-10.6c3.1-0.1,6.3,0,9.4,0c15.9,0,31.8,0.1,47.7-0.1
				c5.6-0.1,10.6,1.8,12.4,9V170.9z"/>
		</g>
	</g>
</g>
<g>
	<path d="M424.9,208.3c-2.3,0-3.9-1.1-4.9-3.4L366,76.5c-1.2-2.8-1.2-4.9-0.1-6.5c1.1-1.6,2.7-2.3,4.8-2.3c2.3,0,4,1.3,5.2,3.8
		l51.8,124h-5.2l51.1-123.3c0.6-1.7,1.4-2.8,2.3-3.5c1-0.7,2.2-1,3.6-1c2.2,0,3.6,0.9,4.3,2.7c0.7,1.8,0.6,3.8-0.4,6.1l-53.8,128.3
		c-0.6,1.3-1.4,2.2-2.3,2.7C426.6,208.1,425.7,208.3,424.9,208.3z"/>
	<path d="M511.3,208.3c-1.6,0-2.9-0.5-3.9-1.5c-1-1-1.5-2.3-1.5-3.9V73.1c0-1.6,0.5-2.8,1.5-3.9c1-1,2.3-1.5,3.9-1.5
		c1.6,0,2.8,0.5,3.9,1.5c1,1,1.5,2.3,1.5,3.9v129.8c0,1.6-0.5,2.9-1.5,3.9C514.1,207.8,512.8,208.3,511.3,208.3z"/>
	<path d="M542.3,77.4c-1.4,0-2.6-0.5-3.5-1.4c-0.9-0.9-1.3-2.1-1.3-3.5c0-1.4,0.5-2.6,1.3-3.5c0.9-0.9,2.1-1.4,3.5-1.4h101.9
		c1.4,0,2.6,0.5,3.5,1.4c0.9,0.9,1.3,2.1,1.3,3.5c0,1.4-0.5,2.6-1.3,3.5c-0.9,0.9-2.1,1.4-3.5,1.4H542.3z M593.2,208.3
		c-1.6,0-2.9-0.5-3.9-1.5c-1-1-1.5-2.3-1.5-3.9V67.7h10.8v135.2c0,1.6-0.5,2.9-1.5,3.9C596,207.8,594.7,208.3,593.2,208.3z"/>
	<path d="M646.1,208.3c-2.3,0-3.9-0.9-4.8-2.7c-0.9-1.8-0.9-3.5-0.1-5l54.5-129.1c1-2.5,2.7-3.8,5.2-3.8c2.4,0,4.1,1.3,5.2,3.8
		L761,200.6c1,1.7,0.9,3.4-0.2,5.1c-1.1,1.7-2.6,2.6-4.7,2.6c-1.2,0-2.2-0.3-3-0.8c-0.8-0.5-1.5-1.4-2.1-2.6L698.1,78.7h5.8
		l-52.7,126.2c-0.5,1.2-1.1,2.1-2,2.6C648.3,208,647.3,208.3,646.1,208.3z M659.4,173l4.3-9.7h74.9l4.1,9.7H659.4z"/>
	<path d="M787.2,208.3c-1.6,0-2.9-0.5-3.9-1.5c-1-1-1.5-2.3-1.5-3.9V73.1c0-1.6,0.5-2.8,1.5-3.9c1-1,2.3-1.5,3.9-1.5
		c1.7,0,3.1,0.6,4.1,1.8l91.4,119V73.1c0-1.6,0.5-2.8,1.5-3.9c1-1,2.3-1.5,3.9-1.5c1.4,0,2.7,0.5,3.8,1.5c1.1,1,1.6,2.3,1.6,3.9
		v129.8c0,1.6-0.5,2.9-1.6,3.9c-1.1,1-2.3,1.5-3.8,1.5c-0.8,0-1.6-0.1-2.3-0.5c-0.7-0.3-1.2-0.7-1.7-1.2L792.6,87.5v115.4
		c0,1.6-0.5,2.9-1.5,3.9C790.1,207.8,788.8,208.3,787.2,208.3z"/>
</g>
</svg>
