<svg width="500" height="500" xmlns="http://www.w3.org/2000/svg">

 <g>
  <title>background</title>
  <rect fill="none" id="canvas_background" height="502" width="502" y="-1" x="-1"/>
 </g>
 <g>
  <title>Layer 1</title>
  <g transform="matrix(2.7680046558380127,0,0,2.7680046558380127,413.81228228822687,413.1950749300595) " id="widget">
   <path id="svg_2" stroke-linecap="square" stroke="#000000" stroke-width="1.24791" fill="#c82343" d="m-72.9175,-18.181409l0,-37.82702l0,-29.44088c0,-3.2117 -2.6764,-5.8881 -6.0666,-5.8881l-23.3742,0c-0.1785,0 -0.3569,0 -0.5353,0c-0.1785,0 -0.5353,0 -0.7137,0l-5.5314,0c-3.747,0 -5.7097,2.6764 -6.7803,6.0666l-8.5646,29.26239l0,0l-17.1292,0c-2.8549,0 -4.996,1.96272 -4.996,4.46073l0,35.15058c0,2.498 2.3196,4.4607 4.996,4.4607l39.2545,0l0.5352,0l13.2038,0l9.6352,0l106.3439,0l0,-6.0666l-100.2773,-0.1784z"/>
   <path id="svg_3" stroke-linecap="square" stroke="#000000" stroke-width="1.24791" fill="#f7f9fe" d="m-77.9135,-84.735509c-0.1784,-0.1785 -0.3569,-0.3569 -0.5353,-0.5353c-0.5353,-0.3569 -1.0706,-0.7137 -1.6059,-1.0706c-0.5353,-0.1784 -1.0705,-0.3569 -1.6058,-0.3569l-24.4449,0c-3.0333,0 -4.6391,2.1412 -5.5313,4.8176l-6.9587,23.731136l3.9254,0l4.9961,0l1.6058,0l2.3196,0l8.5646,0l4.6392,0l15.7018,0l0,-21.411536l0,-2.498c0,-0.8921 -0.3569,-1.9627 -1.0706,-2.6764z"/>
   <path id="svg_4" stroke-linecap="square" stroke="#000000" stroke-width="1.24791" fill-opacity="0" fill="#ffffff" d="m-113.5994,-19.965709l30.8683,0c2.1411,0 3.9254,-2.1411 3.9254,-4.8176l0,-26.94281l-38.5407,0l0,26.94281c0,2.6765 1.6059,4.8176 3.747,4.8176z"/>
   <path id="svg_5" stroke-linecap="square" stroke="#000000" stroke-width="1.07362" fill="#ab893b" d="m7.8213,-52.657859l0,2.91911l-0.281,0c0.0769,-0.46091 0.1537,-0.92182 0.1537,-1.45955c0.0768,-0.53773 0,-0.99864 -0.1537,-1.45956l0.281,0l0,0zm-33.7739,-70.82685c0.6914,0 1.3059,0.5378 1.3827,1.2291c2.8423,23.8138 11.0619,46.0144 23.4297,65.2959c-0.9218,0.3841 -1.6132,0.99865 -2.2277,1.76683c-12.6751,-19.66553 -21.1251,-42.32713 -24.0443,-66.67863c-0.0768,-0.845 0.6146,-1.6132 1.4596,-1.6132zm22.5847,72.2864c0,-2.67282 2.1667,-4.83957 4.8396,-4.83957c2.6728,0 4.8395,2.16675 4.8395,4.83957c0,2.6728 -2.1667,4.8396 -4.8395,4.8396c-2.6729,0 -4.8396,-2.1668 -4.8396,-4.8396z"/>
   <path id="svg_6" stroke-linecap="square" stroke="#000000" stroke-width="1.24791" fill="#c82242" d="m-73.9881,-50.477109l101.3479,0l0,33.5447l-101.3479,0l0,-33.5447z"/>
   <path id="svg_7" stroke-linecap="square" stroke="#000000" stroke-width="1.24791" fill="#298c74" d="m-79.1625,-28.708709c0,2.8549 -1.6059,5.1744 -3.747,5.1744l-29.6193,0c-1.9627,0 -3.747,-2.3195 -3.747,-5.1744l0,-29.26244l-2.3196,0l0,29.26244c0,4.2823 2.6764,7.8509 6.0666,7.8509l29.6193,0c3.3901,0 6.0666,-3.5686 6.0666,-7.8509l0,-29.26244l-2.3196,0l0,29.26244z"/>
   <path id="svg_8" stroke-linecap="square" stroke="#000000" stroke-width="1.24791" fill="#273438" d="m30.2147,-14.612809c0,1.6059 -1.249,2.8549 -2.8549,2.8549l-172.7196,0c-1.6059,0 -2.8549,-1.249 -2.8549,-2.8549l0,0c0,-1.6059 1.249,-2.8549 2.8549,-2.8549l172.5412,0c1.7843,0 3.0333,1.249 3.0333,2.8549l0,0z"/>
   <path id="svg_9" stroke-linecap="square" stroke="#000000" stroke-width="1.24791" fill="#f6f6f6" d="m-76.3077,-52.618259c0,0.89214 -0.7137,1.42743 -1.4274,1.42743l-6.6019,0c-0.8921,0 -1.4274,-0.71372 -1.4274,-1.42743l0,0c0,-0.89215 0.7137,-1.42744 1.4274,-1.42744l6.6019,0c0.8922,0 1.4274,0.53529 1.4274,1.42744l0,0z"/>
   <path id="svg_10" stroke-linecap="square" stroke="#000000" stroke-width="1.24791" fill="#298c74" d="m-112.3504,-31.385209c-10.8842,0 -19.8056,8.7431 -19.8056,19.8057l39.6113,0c0,-11.0626 -8.7431,-19.8057 -19.8057,-19.8057z"/>
   <path id="svg_11" stroke-linecap="square" stroke="#000000" stroke-width="1.24791" fill="#273438" d="m-95.0427,-11.579509c0,9.5588 -7.7489,17.3077 -17.3077,17.3077c-9.5587,0 -17.3076,-7.7489 -17.3076,-17.3077c0,-9.5587 7.7489,-17.3076 17.3076,-17.3076c9.5588,0 17.3077,7.7489 17.3077,17.3076z"/>
   <path id="svg_12" stroke-linecap="square" stroke="#000000" stroke-width="1.24791" fill="#3fb19a" d="m-99.5035,-11.579509c0,7.0952 -5.7517,12.8469 -12.8469,12.8469c-7.0951,0 -12.8469,-5.7517 -12.8469,-12.8469c0,-7.0952 5.7518,-12.8469 12.8469,-12.8469c7.0952,0 12.8469,5.7517 12.8469,12.8469z"/>
   <path id="svg_13" stroke-linecap="square" stroke="#000000" stroke-width="1.24791" fill="#ededed" d="m-101.2878,-11.579509c0,6.1097 -4.9529,11.0626 -11.0626,11.0626c-6.1097,0 -11.0626,-4.9529 -11.0626,-11.0626c0,-6.1097 4.9529,-11.0626 11.0626,-11.0626c6.1097,0 11.0626,4.9529 11.0626,11.0626z"/>
   <path id="svg_14" stroke-linecap="square" stroke="#000000" stroke-width="1.24791" fill="#273438" d="m-109.3171,-11.579509c0,1.6753 -1.358,3.0333 -3.0333,3.0333c-1.6752,0 -3.0333,-1.358 -3.0333,-3.0333c0,-1.6752 1.3581,-3.0333 3.0333,-3.0333c1.6753,0 3.0333,1.3581 3.0333,3.0333z"/>
   <path id="svg_15" stroke-linecap="square" stroke="#000000" stroke-width="1.24791" fill="#c6c6c6" d="m-146.7873,-48.692809c0,-0.1784 0,-0.3569 0,-0.53529c-0.1784,0 -0.1784,0 -0.3568,0c-0.5353,0 -1.0706,0.35689 -1.0706,0.89219l0,10.1704c0,0.3569 0.5353,0.7137 1.0706,0.7137c0.1784,0 0.3568,0 0.3568,0c0,-0.1784 0,-0.3568 0,-0.7137l0,-10.5273z"/>
   <path id="svg_16" stroke-linecap="square" stroke="#000000" stroke-width="1.24791" fill="#f6f6f6" d="m-144.6461,-51.190829c-0.8922,0 -1.7843,0.71372 -1.9627,1.78429c0,0.17843 0,0.35683 0,0.53533l0,10.7057c0,0.1785 0,0.3569 0,0.7137c0.1784,0.8922 0.8921,1.7843 1.9627,1.7843c1.0706,0 2.1412,-1.0705 2.1412,-2.3195l0,-10.7058c-0.1785,-1.42744 -1.0706,-2.49802 -2.1412,-2.49802z"/>
   <path id="svg_17" stroke-linecap="square" stroke="#000000" stroke-width="1.24791" fill="#298c74" d="m-5.6496,-31.385209c-10.8842,0 -19.8057,8.9215 -19.8057,19.8057l39.6113,0c0,-11.0626 -8.9214,-19.8057 -19.8056,-19.8057z"/>
   <path id="svg_18" stroke-linecap="square" stroke="#000000" stroke-width="1.24791" fill="#273438" d="m11.658,-11.579509c0,9.5588 -7.7489,17.3077 -17.3076,17.3077c-9.5588,0 -17.3077,-7.7489 -17.3077,-17.3077c0,-9.5587 7.7489,-17.3076 17.3077,-17.3076c9.5587,0 17.3076,7.7489 17.3076,17.3076z"/>
   <path id="svg_19" stroke-linecap="square" stroke="#000000" stroke-width="1.24791" fill="#3fb19a" d="m7.1973,-11.579509c0,7.0952 -5.7518,12.8469 -12.8469,12.8469c-7.0952,0 -12.8469,-5.7517 -12.8469,-12.8469c0,-7.0952 5.7517,-12.8469 12.8469,-12.8469c7.0951,0 12.8469,5.7517 12.8469,12.8469z"/>
   <path id="svg_20" stroke-linecap="square" stroke="#000000" stroke-width="1.24791" fill="#ededed" d="m5.413,-11.579509c0,6.1097 -4.9529,11.0626 -11.0626,11.0626c-6.1097,0 -11.0626,-4.9529 -11.0626,-11.0626c0,-6.1097 4.9529,-11.0626 11.0626,-11.0626c6.1097,0 11.0626,4.9529 11.0626,11.0626z"/>
   <path id="svg_21" stroke-linecap="square" stroke="#000000" stroke-width="1.24791" fill="#273438" d="m-2.6163,-11.579509c0,1.6753 -1.3581,3.0333 -3.0333,3.0333c-1.6753,0 -3.0333,-1.358 -3.0333,-3.0333c0,-1.6752 1.358,-3.0333 3.0333,-3.0333c1.6752,0 3.0333,1.3581 3.0333,3.0333z"/>
   <path id="svg_22" stroke-linecap="square" stroke="#000000" stroke-width="1.24791" fill="#dedc00" d="m26.2893,-52.618259l-99.2068,0c0,0 -0.1784,0 -0.1784,0l0,4.28235c0,0 0.1784,0 0.1784,0l99.2067,0c1.4275,0 2.4981,-1.07063 2.4981,-2.1412c0,-1.24901 -1.0706,-2.14115 -2.498,-2.14115z"/>
   <path id="svg_23" stroke-linecap="square" stroke="#000000" stroke-width="1.24791" fill="#155444" d="m-115.7405,-57.614289c0,1.07058 -0.8922,2.14116 -2.1412,2.14116l0,0c-1.0706,0 -2.1412,-0.89215 -2.1412,-2.14116l0,-8.02932c0,-1.07057 0.8922,-2.14115 2.1412,-2.14115l0,0c1.0706,0 2.1412,0.89215 2.1412,2.14115l0,8.02932z"/>
   <path id="svg_24" stroke-linecap="square" stroke="#000000" stroke-width="1.24791" fill="#dadada" d="m18.9736,-29.957709l-3.2117,0c-1.249,0 -2.1411,1.0706 -2.1411,2.498c0,0 0.8921,1.7843 1.6058,3.2117c0.7137,1.0706 1.4275,1.9627 2.6765,1.9627l1.249,0l8.3861,0l0,-7.8509l-8.5646,0l0,0.1785z"/>
   <path id="svg_25" stroke-linecap="square" stroke="#000000" stroke-width="1.24791" fill="#de2d32" d="m19.6874,-29.244009l7.494,0l0,6.245l-7.494,0l0,-6.245z"/>
   <path id="svg_26" stroke-linecap="square" stroke="#000000" stroke-width="1.24791" fill="#ff9409" d="m16.8325,-29.244009c-1.0706,0 -1.9627,0.8921 -1.9627,1.9627c0,0 0.7137,1.4275 1.6058,2.6765c0.5353,0.8921 1.249,1.6058 2.3196,1.6058l1.0706,0l0,-6.245l-3.0333,0z"/>
   <path id="svg_27" stroke-linecap="square" stroke="#000000" stroke-width="1.74847" fill="#373737" d="m-12.4464,-62.802369c-0.1551,-0.7215 -0.2301,-1.44244 -0.3852,-2.16394l-19.1305,-0.1323c-0.1695,1.35963 -0.5007,2.95829 -1.0704,4.31515c-0.5703,1.436917 -1.2995,2.71263 -2.3467,3.66596c-1.0467,0.87328 -2.3318,1.50477 -4.1728,1.49204l-0.0117,1.68092l34.0986,0.23582l0.0116,-1.68092c-1.841,-0.01273 -3.1178,-0.58189 -4.1517,-1.54961c-1.4314,-1.370709 -2.3764,-3.61857 -2.8412,-5.86312m28.2726,-60.16024l-75.48113,-0.522c-1.2807,-0.0089 -2.24842,1.025 -2.25672,2.2257l-0.34321,49.6271c-0.00886,1.2806 1.02507,2.2484 2.22572,2.2567l75.48114,0.52198c1.2807,0.00886 2.2484,-1.02508 2.2567,-2.22568l0.3432,-49.6271c0.0083,-1.2006 -1.025,-2.2484 -2.2257,-2.2567m-3.6184,48.6438l-68.99755,-0.4772l0.29837,-43.1435l68.99758,0.4772l-0.2984,43.1435z"/>
   <path id="svg_28" fill="#ffffff" d="m10.6664,-75.446409l-65.64151,0l0,-41.4585l65.64151,0l0,41.4585z"/>
   <path id="svg_29" fill="#5cbcff" d="m-23.0005,-103.207509l7.822,-0.0151l0.0132,6.8422l-7.8219,0.0151l-0.0133,-6.8422z"/>
   <path id="svg_30" fill="#5cbcff" d="m-31.7857,-103.190409l7.822,-0.0152l0.0132,6.8422l-7.822,0.0151l-0.0132,-6.8421z"/>
   <path id="svg_31" fill="#5cbcff" d="m-31.7706,-95.385109l7.822,-0.0151l0.0132,6.8422l-7.8219,0.0151l-0.0133,-6.8422z"/>
   <path id="svg_32" fill="#5cbcff" d="m-22.9854,-95.402109l7.822,-0.0151l0.0133,6.8421l-7.822,0.0152l-0.0133,-6.8422z"/>
   <path id="svg_33" stroke-linecap="square" stroke="#000000" stroke-width="1.16564" fill="#cfb463" d="m-58.540924,-53.135069l0,2.91911l0.280914,0c-0.07682,-0.46091 -0.153641,-0.92182 -0.153641,-1.45955c-0.076813,-0.53774 0,-0.99864 0.153641,-1.45956l-0.280914,0l0,0zm33.773824,-70.82684c-0.6913,0 -1.3059,0.5377 -1.3827,1.2291c-2.8423,23.8138 -11.0619,46.0144 -23.4297,65.29589c0.9218,0.3841 1.6132,0.99865 2.2277,1.76683c12.6751,-19.66562 21.1252,-42.32712 24.0443,-66.67862c0.0768,-0.845 -0.6146,-1.6132 -1.4596,-1.6132zm-22.5846,72.28639c0,-2.67282 -2.1668,-4.83958 -4.83962,-4.83958c-2.67283,0 -4.83958,2.16676 -4.83958,4.83958c0,2.67281 2.16675,4.83961 4.83958,4.83961c2.67282,0 4.83962,-2.1668 4.83962,-4.83961z"/>
  </g>
 </g>
</svg>