<?xml version="1.0" encoding="utf-8"?>
<!-- Generator: Adobe Illustrator 22.0.0, SVG Export Plug-In . SVG Version: 6.00 Build 0)  -->
<svg version="1.1" id="图层_1" xmlns="http://www.w3.org/2000/svg" xmlns:xlink="http://www.w3.org/1999/xlink" x="0px" y="0px"
	 viewBox="0 0 1080 1080" style="enable-background:new 0 0 1080 1080;" xml:space="preserve">
<style type="text/css">
	.st0{fill:#F45A8D;}
	.st1{fill:#FFFFFF;}
</style>
<circle class="st0" cx="540" cy="540" r="536"/>
<path class="st1" d="M850.3,822.2H230.5c-5.5,0-10-4.5-10-10V267.5c0-5.5,4.5-10,10-10h619.7c5.5,0,10,4.5,10,10v544.8
	C860.3,817.7,855.8,822.2,850.3,822.2z"/>
<path d="M459.6,539.4c-1.1-1.1-1.9-2.1-2.9-3c-32-32-64-63.9-95.9-96c-14-14-12.5-35.3,3-46.5c10.7-7.7,25.5-7.5,35.9,0.7
	c1.5,1.1,2.9,2.4,4.2,3.8c39.5,39.4,78.9,78.9,118.4,118.4c9.6,9.6,12.9,20.8,7.9,33.7c-1.5,4-4.2,7.9-7.2,10.9
	c-39.8,40.1-79.8,80-119.7,119.9c-12.4,12.4-31.2,12.6-43.2,0.7c-12.2-12.1-11.9-30.7,0.7-43.4c31.8-31.9,63.8-63.8,95.7-95.7
	C457.6,541.7,458.5,540.6,459.6,539.4z"/>
<path d="M763.6,665.8c-0.2,0.6-0.5,1.2-0.7,1.8c-4.1,15.8-14.4,24.1-30.3,24.1c-30.9,0.1-61.9,0-92.8,0c-26.1,0-52.3,0.2-78.4-0.1
	c-15.5-0.2-27.9-13.7-28.1-29.8c-0.1-16.7,12.6-30.3,28.9-30.7c9.1-0.2,18.2,0,27.3,0c46,0,92.1,0.3,138.1-0.2
	c16.2-0.2,30.8,5.1,35.9,26C763.6,659.9,763.6,662.8,763.6,665.8z"/>
</svg>
