<?xml version="1.0" encoding="utf-8"?>
<!-- Generator: Adobe Illustrator 22.0.0, SVG Export Plug-In . SVG Version: 6.00 Build 0)  -->
<svg version="1.1" id="图层_1" xmlns="http://www.w3.org/2000/svg" xmlns:xlink="http://www.w3.org/1999/xlink" x="0px" y="0px"
	 viewBox="0 0 1080 1080" style="enable-background:new 0 0 1080 1080;" xml:space="preserve">
<style type="text/css">
	.st0{fill:#F45A8D;}
	.st1{fill:#FFFFFF;}
</style>
<circle class="st0" cx="540.5" cy="541.5" r="519"/>
<path class="st1" d="M840.6,814.8H241.2c-5.5,0-10-4.5-10-10V277.9c0-5.5,4.5-10,10-10h599.4c5.5,0,10,4.5,10,10v526.8
	C850.6,810.3,846.1,814.8,840.6,814.8z"/>
<path d="M462.7,540.9c-1-1.1-1.9-2-2.8-2.9c-31-31-62-61.9-92.9-92.9c-13.5-13.6-12.1-34.2,2.9-45c10.4-7.5,24.7-7.2,34.8,0.6
	c1.4,1.1,2.8,2.4,4,3.6c38.2,38.2,76.4,76.4,114.6,114.6c9.3,9.3,12.5,20.2,7.7,32.6c-1.5,3.9-4,7.6-7,10.6
	c-38.6,38.8-77.2,77.4-115.9,116.1c-12,12-30.2,12.2-41.8,0.7c-11.8-11.7-11.5-29.8,0.7-42.1c30.8-30.9,61.7-61.8,92.6-92.7
	C460.7,543.1,461.6,542.1,462.7,540.9z"/>
<path d="M757,663.3c-0.2,0.6-0.5,1.2-0.6,1.8c-4,15.3-14,23.3-29.4,23.4c-30,0.1-59.9,0-89.9,0c-25.3,0-50.6,0.2-75.9-0.1
	c-15-0.2-27-13.3-27.2-28.8c-0.1-16.2,12.2-29.4,28-29.7c8.8-0.2,17.6,0,26.4,0c44.6,0,89.1,0.3,133.7-0.2
	c15.7-0.2,29.8,4.9,34.8,25.1C757,657.6,757,660.4,757,663.3z"/>
</svg>
