<svg width="500" height="500" xmlns="http://www.w3.org/2000/svg"><path fill="none" d="M-1-1h502v502H-1z"/><g stroke-linecap="square"><path stroke="#000" stroke-width="1.5361350399999998" fill="#e0e0e0" d="M457.98 267.065c-.714-12.869-26.45-23.235-58.085-23.235s-57.371 10.366-58.265 23.235h0v17.694h116.53l-.18-17.694h0z"/><path stroke="#000" stroke-width="1.5361350399999998" fill="#e19407" d="M380.592 245.26a19.222 19.222 0 0 0 19.303 19.303 19.222 19.222 0 0 0 19.302-19.303h-38.605z"/><path stroke="#000" stroke-width="1.5361350399999998" fill="#e19407" d="M400.073 176.45h0c-9.293 0-16.8 7.507-16.8 16.801v50.4c0 9.294 7.507 16.8 16.8 16.8h0c9.294 0 16.8-7.506 16.8-16.8v-50.4c0-9.294-7.685-16.8-16.8-16.8z"/><path stroke="#000" stroke-width="1.5361350399999998" fill="#6d4d41" d="M447.793 194.502h-94.188v-42.358c0-23.413 21.09-42.358 47.183-42.358h0c25.916 0 47.005 18.945 47.005 42.358v42.358z"/><path stroke="#000" stroke-width="1.5361350399999998" fill="#ffd163" d="M357.537 160.544h84.716v42.358c0 23.413-18.945 42.358-42.358 42.358h0c-23.413 0-42.358-18.945-42.358-42.358v-42.358z"/><path stroke="#000" stroke-width="1.5361350399999998" fill="#252728" d="M417.767 186.638c3.754 0 6.613 3.575 6.613 8.043 0 4.468-3.038 8.042-6.613 8.042-3.753 0-6.613-3.574-6.613-8.042s2.86-8.043 6.613-8.043z"/><path stroke="#000" stroke-width="4.60577024" fill="#252728" d="M384.346 186.638c3.753 0 6.612 3.575 6.612 8.043 0 4.468-3.038 8.042-6.612 8.042-3.754 0-6.613-3.574-6.613-8.042s3.038-8.043 6.613-8.043z"/><path stroke="#000" stroke-width="1.5361350399999998" fill="#6d4d41" d="M346.098 159.83c10.903 18.587 35.388 24.484 54.869 13.225 19.481-11.26 26.452-35.567 15.55-54.154l-70.419 40.928z"/><path stroke="#000" stroke-width="4.60577024" fill="#bebebe" d="M367.84 395.345c7.348 9.346 19.397 11.972 26.94 6.042 7.542-5.93 7.76-18.353.486-27.606l-52.615-66.92-27.426 21.563 52.614 66.92z"/><path stroke="#000" stroke-width="4.60577024" fill="#4d4d4d" d="M391.809 442.358c8.213 10.335 24.642 10.769 36.692 1.193s15.256-25.782 7.125-36.014l-58.807-73.999-43.817 34.821 58.807 74z"/><path stroke="#000" stroke-width="1.69686272" fill="#e0e0e0" d="M127.464 257.629c-.811-12.313-25.205-22.166-55.043-22.223-29.838-.057-54.477 9.703-55.127 22.012h-.209l-.031 16.692 110.587.212-.177-16.693h0z"/><path stroke="#000" stroke-width="1.69686272" fill="#e19407" d="M54.057 236.832c-.02 10.015 8.103 18.168 18.327 18.188 10.015.019 18.377-8.103 18.396-18.118l-36.723-.07z"/><path stroke="#000" stroke-width="1.69686272" fill="#e19407" d="M72.543 171.558h0c-8.763-.017-15.871 7.064-15.888 15.827l-.091 47.782c-.017 8.764 7.064 15.872 15.827 15.888h0c8.764.017 15.872-7.064 15.888-15.827l.092-47.782c.016-8.764-7.064-15.872-15.828-15.888z"/><path stroke="#000" stroke-width="1.69686272" fill="#6d4d41" d="m117.788 188.962-89.304-.17.077-40.27c.042-22.118 20.107-40.233 44.729-40.186h0c24.621.047 44.618 18.03 44.575 40.356l-.077 40.27z"/><path stroke="#000" stroke-width="1.69686272" fill="#ffd765" d="m32.301 156.457 80.333.154-.077 40.27a40.162 40.162 0 0 1-40.347 40.194h0c-22.118-.042-40.237-18.021-40.194-40.347l.077-40.27h.208z"/><path stroke="#000" stroke-width="1.69686272" fill="#252728" d="M89.426 181.397c3.547.006 6.253 3.35 6.245 7.732-.009 4.173-2.936 7.715-6.275 7.708-3.547-.007-6.253-3.35-6.245-7.732.009-4.382 2.727-7.715 6.275-7.708zM57.71 181.336c3.547.007 6.253 3.35 6.245 7.732-.008 4.173-2.936 7.715-6.274 7.709-3.548-.007-6.254-3.35-6.245-7.733.008-4.381 2.727-7.715 6.274-7.708z"/><path stroke="#000" stroke-width="1.69686272" fill="#6d4d41" d="M21.453 155.81c10.19 17.756 33.548 23.434 51.93 12.62 18.383-10.607 25.104-33.755 14.913-51.302l-66.843 38.683z"/><path stroke="#000" stroke-width="1.69686272" fill="#6d4d41" d="M86.416 118.168c-10.867 8.952-11.318 26.478-.909 39.226 10.408 12.748 27.721 15.702 38.588 6.75l-37.679-45.976z"/><path stroke="#000" stroke-width="1.69686272" fill="#252728" d="M57.437 215.138c-.01 4.799 6.869 8.776 15.632 8.793 8.555.017 15.657-3.934 15.666-8.733l-31.298-.06z"/><path stroke="#000" stroke-width="1.69686272" fill="#e19407" d="M63.718 203.882c-.005 2.713 3.955 5.016 8.754 5.025 4.799.01 8.768-2.278 8.773-4.991l-17.527-.034z"/><path stroke="#000" stroke-width="1.69686272" fill="#fac11d" d="M100.431 209.169c2.52-8.759-2.469-18.158-11.228-20.678-8.758-2.521-18.158 2.469-20.678 11.228l31.906 9.45zM45.972 209.274c-2.487-8.769 2.538-18.149 11.307-20.636 8.768-2.487 18.148 2.539 20.635 11.307l-31.942 9.329z"/><path stroke="#000" stroke-width="1.69686272" fill="#fee5a4" d="M124.08 281.41h0c-15.65.178-28.562-12.575-28.532-28.224h0c-.179-15.65 12.574-28.562 28.223-28.532h0c15.65-.179 28.562 12.574 28.532 28.223h0c.18 15.65-12.365 28.354-28.223 28.532z"/><path stroke="#000" stroke-width="1.69686272" fill="#fd7977" d="M124.192 222.986c-16.693-.032-30.282 13.713-30.313 30.405-.032 16.693 13.713 30.282 30.405 30.314 16.693.031 30.282-13.714 30.314-30.406.031-16.693-13.714-30.282-30.406-30.313zm25.826 24.879c-2.921-.214-7.304.403-10.852 1.022l-.002.626c-.004 2.087-1.468 3.962-3.347 4.585 1.24 5.844 2.057 15.444-.044 22.952-.21.625-.628 1.042-1.045 1.25-7.31 3.533-18.364.8-23.367-1.506-.834-.419-.832-1.462.003-1.669 8.561-3.322 17.343-12.695 21.532-21.033-1.668-.63-2.708-2.3-2.704-4.387 0-.417.001-.835.21-1.252-8.55-2.311-25.03-4.22-30.872-4.232-.417 0-.834-.627-.624-1.044 2.725-6.672 8.579-12.503 14.008-14.58a3.556 3.556 0 0 1 2.086.005c5.212 2.305 13.752 10.041 17.704 16.935.626-.208 1.252-.415 2.087-.414.626.002 1.251.211 1.877.421 2.095-4.586 4.815-8.337 6.697-10.211.418-.417.835-.207 1.251.002 2.708 2.718 5.618 8.149 6.446 11.697-.21.417-.627.834-1.044.833z"/><path stroke="#000" stroke-width="1.69686272" fill="#a6ae31" d="M37.026 86.358c1.039 2.297.199 5.008-2.098 6.047-2.298 1.039-5.009.2-6.047-2.098-1.04-2.297-.2-5.008 2.098-6.047 2.088-1.04 4.8-.2 6.047 2.098zM78.131 86.02c1.04 2.297.2 5.008-2.098 6.046-2.297 1.04-5.008.2-6.046-2.098-1.04-2.297-.2-5.008 2.097-6.047 2.298-1.247 5.009-.199 6.047 2.098zM57.008 111.644 37.014 92.409c-.418.417-1.045.833-1.671 1.249-.627.416-1.253.415-1.88.622l2.451 27.756h0c-7.087-3.56-15.431-4.828-23.363-3.383a5.954 5.954 0 0 1-.005 2.713c8.342 2.31 15.425 8.167 19.582 16.52 1.247 2.507 11.058.44 22.127-4.965 10.86-5.195 18.801-11.648 17.763-14.154h0c-3.949-8.354-3.93-17.744-.577-25.666a4.929 4.929 0 0 1-1.875-1.673c-6.687 5.204-10.873 12.29-12.558 20.216zM10.883 118.233c1.039 2.297.199 5.008-2.098 6.047-2.298 1.038-5.009.199-6.047-2.098-1.038-2.298-.2-5.009 2.098-6.047 2.298-1.248 5.008-.2 6.047 2.098z"/><path stroke="#000" stroke-width="1.69686272" fill="#fecb4d" d="m80.541 244.602 23.155 2.966-2.965 23.155-23.155-2.965 2.965-23.156zM91.723 289.693h0c-3.964-.216-6.88-3.56-6.454-7.523h0c.216-3.964 3.56-6.88 7.524-6.454h0c3.964.216 6.879 3.56 6.454 7.524h0c-.216 3.755-3.769 6.67-7.524 6.453zM61.472 287.55h0c-3.964-.217-6.88-3.561-6.454-7.525h0c.216-3.964 3.56-6.879 7.524-6.454h0c3.964.217 6.879 3.56 6.454 7.524h0c-.216 3.756-3.56 6.67-7.524 6.454z"/><path stroke="#000" stroke-width="1.69686272" fill="#794a98" d="m109.34 242.154-30.666-3.189c-1.043-.002-1.879.623-1.88 1.666-.003 1.043.622 1.879 1.665 1.88l30.666 3.19c1.043.001 1.88-.623 1.881-1.666.002-.835-.623-1.67-1.665-1.881zM93.214 273.63c-5.007-.427-9.604 3.111-10.24 8.327-.427 5.006 3.111 9.604 8.327 10.24 5.006.426 9.604-3.112 10.24-8.327.427-5.216-3.32-9.813-8.327-10.24zm-1.489 14.812c-3.129-.424-5.42-3.14-4.996-6.27.424-3.129 3.14-5.419 6.27-4.995 3.128.423 5.419 3.14 4.995 6.269-.423 2.92-3.14 5.21-6.269 4.996z"/><path stroke="#000" stroke-width="1.69686272" fill="#794a98" d="m105.992 247.572-25.868-2.762c-.835-.001-1.462.415-1.672 1.25l-1.274 11.681c-.002.835-.838 1.46-1.672 1.25l-21.07-2.128-1.043-.002c-1.46-.002-3.35 5.419-3.985 10.634-.636 5.215.188 10.642 1.648 10.853h.21l.625.002c.637-5.632 5.653-9.796 11.494-9.368 5.424.637 9.38 5.235 9.37 10.66-.002.417.415.835.832.836l7.093.64c.418 0 .835-.208 1.045-.833 1.053-5.214 5.86-8.961 11.284-8.533 5.632.636 9.796 5.652 9.367 11.494h0c.626 0 1.045-.416 1.254-1.041l3.404-33.796c.208 0-.208-.835-1.042-.837zm-4.629 19.814c0 .626-.627 1.042-1.253 1.04l-17.941-1.912c-.626 0-1.042-.628-1.041-1.253l1.49-15.02c0-.627.627-1.043 1.253-1.042l17.941 1.912c.626.002 1.042.628 1.04 1.254l-1.489 15.02z"/><path stroke="#000" stroke-width="1.69686272" fill="#794a98" d="M63.8 270.444c-5.007-.427-9.605 3.111-10.24 8.327-.427 5.006 3.11 9.604 8.326 10.24 5.007.426 9.604-3.112 10.24-8.327.427-5.007-3.32-9.605-8.326-10.24zm-1.698 14.811c-3.129-.423-5.419-3.14-4.996-6.269.424-3.13 3.14-5.42 6.27-4.996 3.129.423 5.419 3.14 4.995 6.27-.214 3.129-3.14 5.418-6.27 4.995z"/><path stroke="#000" stroke-width="1.69686272" fill="#794a98" d="M64.199 279.834c-.002.835-.837 1.25-1.463 1.25-.835-.002-1.25-.838-1.25-1.464.003-.834.838-1.25 1.464-1.249.834.002 1.25.629 1.249 1.463zM93.614 282.811c-.002.835-.837 1.25-1.463 1.25-.835-.002-1.25-.838-1.25-1.463.002-.835.838-1.25 1.464-1.25.834.002 1.25.838 1.249 1.463zM61.126 249.782c0 .208.208.418.417.418l-.427 5.007c0 .417.208.626.625.627l3.546.424c.418 0 .627-.207.627-.625l.427-5.007a.449.449 0 0 0 .418-.416l2.51-3.125c.21-.417.419-.834.211-1.252l-1.87-3.55a1.147 1.147 0 0 0-1.043-.628l-3.546-.424c-.418-.001-.835.207-1.045.415l-2.51 3.334c-.209.416-.418.833-.21 1.251l1.87 3.55z"/><path stroke="#000" stroke-width="1.69686272" fill="#fecb4d" d="m8.934 264.914 8.972-.191.38 19.823-8.973.191-.38-19.823z"/><path stroke="#000" stroke-width="1.69686272" fill="#fecb4d" d="m17.49 263.887 8.973-.191.38 19.823-8.973.191-.38-19.823z"/><path stroke="#000" stroke-width="1.69686272" fill="#fecb4d" d="m25.423 262.233 8.972-.192.38 19.823-8.973.192-.38-19.823z"/><path stroke="#000" stroke-width="1.69686272" fill="#fecb4d" d="m33.771 260.997 8.973-.192.38 19.823-8.973.192-.38-19.823z"/><path stroke="#000" stroke-width="1.69686272" fill="#fecb4d" d="m38.781 259.755 8.973-.192.38 19.823-8.973.192-.38-19.823z"/><path stroke="#000" stroke-width="1.69686272" fill="#fd7977" d="m9.767 265.75 33.394-4.735c.626.001.627-.834.21-1.252-4.795-1.887-11.677-3.57-19.813-4.42h-.835s0 0 0 0h0c-.626-.002-1.044.206-1.462.622l-11.91 8.95c-.418.208-.21 1.043.416.835zM48.165 262.485c-.417 0-.835.416-.836 1.042l-.024 12.728c-.002 1.043-.839 2.085-1.883 2.291l-35.274 5.775c-.625 0-1.044.624-1.045 1.042 0 .626.624 1.253 1.25 1.045l36.944-5.98c1.043-.207 1.67-1.04 1.673-2.084l.029-15.231c.21-.417-.416-.836-.834-.628zM23.77 253.884c9.178 1.06 17.103 2.953 21.898 5.466l.416.21c1.043.628 2.504.213 2.924-1.038.21-.625.21-1.251.212-1.877-.206-1.253-1.248-2.09-2.29-2.3-1.044-.21-2.087-.004-2.714.62-.416-1.043-1.666-1.88-2.918-1.883-.835-.001-1.67.415-2.088.831-.415-1.253-1.665-2.09-2.918-2.092-1.043-.002-1.878.414-2.506 1.247-.415-1.044-1.665-1.881-2.917-1.883-1.044-.002-1.88.413-2.298 1.039-.624-.836-1.666-1.464-2.71-1.466-1.251-.003-2.296.621-2.924 1.663-.418.626-.002 1.461.832 1.463z"/><path stroke="#ecf1f2" stroke-width="4.60577024" d="M145.673 253.315c-27.887-49.821-9.429-119.006 39.449-147.226" fill="none"/><path stroke="#000" stroke-width="4.60577024" fill="#bebebe" d="M239.492 352.615c81.927 2.13 149.975-62.466 152.106-144.393 2.131-81.928-62.466-149.975-144.393-152.107-81.928-2.13-149.975 62.466-152.106 144.394-2.132 81.927 62.465 149.975 144.393 152.106zm.511-19.664c-71.06-1.849-127.089-60.87-125.24-131.93 1.848-71.061 60.87-127.09 131.93-125.242 71.06 1.849 127.09 60.87 125.241 131.93-1.848 71.061-60.87 127.09-131.93 125.242z"/><path stroke="#000" stroke-width="1.0012543999999999" fill="#deebef" d="M235.964 250.166h41.765c23.043 0 41.765 15.602 41.765 34.564h0c0 19.202-18.722 34.564-41.765 34.564h0c-23.043 0-41.765-15.602-41.765-34.564v-34.564z"/><path stroke="#000" stroke-width="1.0012543999999999" fill="#deebef" d="M316.373 271.769c-.96-15.362-31.683-27.844-69.368-27.844-37.684 0-68.408 12.482-69.368 27.844h-.24v21.122h138.976v-21.122h0z"/><path stroke="#000" stroke-width="1.0012543999999999" fill="#e19407" d="M223.963 245.846c0 12.721 10.32 23.042 23.042 23.042 12.722 0 23.043-10.321 23.043-23.042h-46.085z"/><path stroke="#000" stroke-width="1.0012543999999999" fill="#e19407" d="M247.245 163.756h0c-11.04 0-19.922 9.121-19.922 19.922v60.007c0 11.042 9.121 19.923 19.922 19.923h0c11.042 0 19.923-9.121 19.923-19.923v-60.007a19.873 19.873 0 0 0-19.923-19.922z"/><path stroke="#000" stroke-width="1.0012543999999999" fill="#6d4d41" d="M304.132 185.358H191.799v-50.405c0-28.083 25.203-50.646 56.166-50.646h0c31.204 0 56.167 22.563 56.167 50.646v50.405z"/><path stroke="#000" stroke-width="1.0012543999999999" fill="#ffd163" d="M196.6 144.794H297.65v50.646c0 27.843-22.562 50.646-50.646 50.646h0c-27.843 0-50.646-22.563-50.646-50.646v-50.646h.24z"/><path stroke="#000" stroke-width="1.0012543999999999" fill="#252728" d="M268.368 175.997c4.32 0 7.92 4.32 7.92 9.601 0 5.281-3.6 9.602-7.92 9.602s-7.921-4.321-7.921-9.602c0-5.28 3.6-9.6 7.92-9.6zM228.523 175.997c4.32 0 7.921 4.32 7.921 9.601 0 5.281-3.6 9.602-7.92 9.602-4.321 0-7.922-4.321-7.922-9.602 0-5.28 3.6-9.6 7.921-9.6z"/><path stroke="#000" stroke-width="1.0012543999999999" fill="#6d4d41" d="M183.158 144.074c12.961 22.322 42.245 29.283 65.288 15.841 23.282-13.441 31.443-42.484 18.482-64.567l-83.77 48.726z"/><path stroke="#000" stroke-width="1.0012543999999999" fill="#6d4d41" d="M264.527 96.548c-13.681 11.281-14.161 33.364-.96 49.446 13.202 15.842 34.804 19.682 48.726 8.16l-47.766-57.606z"/><path stroke="#000" stroke-width="1.0012543999999999" fill="#252728" d="M228.283 218.482c0 6.001 8.641 11.042 19.682 11.042 10.802 0 19.683-4.801 19.683-11.042h-39.365z"/><path stroke="#000" stroke-width="1.0012543999999999" fill="#e19407" d="M236.444 204.32c0 3.601 5.04 6.481 11.041 6.481s11.042-2.88 11.042-6.48h-22.083z"/><path stroke="#000" stroke-width="1.0012543999999999" fill="#fac11d" d="M179.318 302.252h0c-9.842-6.48-14.642-16.562-10.802-22.562h0c3.84-6.001 15.122-5.521 24.963.96h0c9.841 6.48 14.642 16.562 10.801 22.562h0c-3.84 6-15.121 5.52-24.962-.96z"/><path stroke="#000" stroke-width="1.0012543999999999" fill="#45484b" d="m303.172 174.077-34.084-1.68c-4.08-.24-8.161 1.44-10.801 4.56-2.16-3.36-6.001-5.52-10.322-5.76-4.08-.24-8.16 1.44-10.8 4.8-2.161-3.36-6.001-5.52-10.322-5.76l-34.084-1.68c-1.44 0-2.64.96-2.88 2.4 0 1.44.96 2.64 2.4 2.88l7.921.48-.24 7.681c-.48 10.801 7.68 19.923 18.722 20.643 11.041.72 19.922-7.681 20.642-18.723.24-4.32 4.08-7.68 8.161-7.44 4.32.24 7.681 4.08 7.441 8.16-.48 10.802 7.681 20.163 18.482 20.643 10.802.48 19.923-7.681 20.643-18.722l.48-7.921 7.92.48c1.44 0 2.641-.96 2.881-2.4.24-1.2-.72-2.4-2.16-2.64zm-84.01 23.523c-7.92-.48-14.161-7.2-13.681-15.122l.48-7.92 20.882.96c4.32.24 7.68 4.08 7.44 8.16-.48 8.161-7.2 14.162-15.12 13.922zm70.328-11.041c-.48 7.92-7.2 14.161-15.121 13.681-7.921-.48-14.162-7.2-13.682-15.122.24-4.32 4.08-7.68 8.16-7.44l20.883.96-.24 7.92z"/><path stroke="#000" stroke-width="1.0012543999999999" fill="#fee5a4" d="m253.246 324.334-66.488-17.762-18.002-66.727 66.968 18.002 17.522 66.487zM253.246 324.334l49.206-48.245-17.282-67.208-49.446 48.726 17.522 66.727z"/><path stroke="#000" stroke-width="1.0012543999999999" fill="#fac11d" d="M291.89 287.61h0c4.561 5.52 1.68 15.122-6.48 21.843h0c-7.921 6.48-18.242 7.2-22.563 1.92h0c-4.56-5.52-1.68-15.362 6.481-21.842h0c7.92-6.481 18.002-7.441 22.563-1.92z"/><path stroke="#000" stroke-width="1.0012543999999999" fill-opacity=".464" fill="#fecb4d" d="m232.364 278.97-8.881 10.8 3.36 16.802-12.482-9.12-11.52 6.72 1.2-16.322-10.322-12.721 13.202-.96 5.04-14.402 6.961 15.602 13.442 3.6z"/><path stroke="#000" stroke-width="1.0012543999999999" fill-opacity=".521" fill="#fecb4d" d="m251.086 267.928 12.241 6.48 3.36 16.803 7.922-13.202 12.961 1.68-7.44-14.641 4.56-15.842-12.482 4.08-10.32-11.521-.24 17.042-10.562 9.121z"/><path stroke="#000" stroke-width="1.5361350399999998" fill="#6d4d41" d="M414.55 120.152c-11.438 9.472-11.974 28.06-.893 41.464 11.08 13.405 29.31 16.443 40.75 6.97l-39.857-48.434z"/><path stroke="#000" stroke-width="1.5361350399999998" fill="#252728" d="M384.167 222.383c0 5.005 7.328 9.294 16.443 9.294 9.115 0 16.442-4.11 16.442-9.294h-32.885z"/><path stroke="#000" stroke-width="1.5361350399999998" fill="#e19407" d="M390.958 210.409c0 3.038 4.111 5.361 9.294 5.361 5.183 0 9.294-2.323 9.294-5.361h-18.588z"/><path stroke="#000" stroke-width="1.5361350399999998" fill="#fac11d" d="M428.67 264.563h0c10.902-.894 20.374 3.574 20.91 10.187h0c.537 6.613-7.864 12.69-18.766 13.762h0c-10.902.893-20.374-3.575-20.91-10.188h0c-.537-6.612 7.863-12.868 18.766-13.761z"/><path stroke="#000" stroke-width="1.5361350399999998" fill="#a6ae31" d="M466.023 270.46c1.787 6.256 21.984 8.222 25.737.894 3.574-6.97-3.575-14.298-8.4-16.443-7.864-3.395-18.945 9.294-17.337 15.55z"/><path stroke="#000" stroke-width="1.5361350399999998" fill="#a63171" d="M462.449 274.392c6.97 5.898 35.209 5.005 35.209-2.86H425.63c-.715 0-1.43.716-1.43 1.43 0 .894.715 1.43 1.43 1.43h36.818z"/><path stroke="#000" stroke-width="1.5361350399999998" fill="#fac11d" d="M427.24 267.065h0c5.362 1.43 9.115 5.362 8.221 8.579h0c-.893 3.217-6.077 4.646-11.438 3.217h0c-5.362-1.43-9.115-5.362-8.222-8.58h0c.894-3.395 5.898-4.825 11.439-3.216z"/></g></svg>