<svg width="500" height="500" xmlns="http://www.w3.org/2000/svg"><path fill="none" d="M-1-1h502v502H-1z"/><path stroke-linecap="square" stroke="#000" stroke-width="5.65966728" d="m213.712 11.58-48.746 91.88M216.976 18.669a6.205 6.205 0 1 1-10.962-5.816 6.205 6.205 0 0 1 10.962 5.816zM172.813 101.91a6.205 6.205 0 1 1-10.963-5.817 6.205 6.205 0 0 1 10.963 5.816z" fill="none"/><path stroke-linecap="square" stroke="#000" stroke-width="3.74335512" fill="#644f3d" d="m275.502 297.962-2.932 8.961s3.151.541 6.192.949c1.464.137 3.04.407 4.15.388 1.11-.02 1.843.05 1.843.05s.214 2.974.783 6.106l.966 4.154a8.444 8.444 0 0 0 .683 1.91s.755-.175 1.755-.328c.622-.065 1.243-.13 1.999-.305.755-.176 1.376-.24 2.376-.394 2.998-.458 5.886-1.05 5.886-1.05s.175.755.572 1.777c.397 1.023 1.015 2.312 1.744 3.735.73 1.422 1.458 2.845 1.989 3.756l1.06 1.823 5.867-2.16 5.424-2.694s.442.534 1.083 1.579 1.527 2.113 2.656 3.203c1.992 2.403 4.361 4.718 4.361 4.718s2.758-1.835 5.16-3.827l3.204-2.656c.69-.797 1.358-1.35 1.358-1.35s2.281 1.937 4.83 3.653a192.278 192.278 0 0 0 5.12 3.188s.423-.576 1.247-1.485c.69-.797 1.693-2.304 2.65-3.323.98-1.262 1.827-2.415 2.406-3.346.58-.93.893-1.64.893-1.64s2.594 1.228 5.588 2.123c.844.202 1.42.626 2.263.828.843.202 1.197.358 1.907.67 1.087.226 1.797.538 1.797.538s.313-.71 1.026-1.751c.713-1.042 1.205-2.35 1.72-3.903 1.14-2.972 1.902-5.856 1.902-5.856s.843.202 1.82.294c1.086.225 2.685.25 4.15.388 3.173.297 6.26.216 6.26.216l-26.558-32.037s.417 2.133.566 4.486c.02 1.11.26 2.487.058 3.33-.092.977-.004 1.354-.004 1.354s-2.239-1.07-4.368-2.009c-.93-.58-1.839-1.403-2.659-1.85l-1.152-.846-.137 1.465c-.046.488-.091.976-.027 1.598-.179.6-.09.977-.27 1.576l-1.166 4.57s-.576-.423-1.263-.98c-.687-.557-1.706-1.514-2.503-2.205-.908-.823-1.572-1.624-2.125-2.292l-.885-1.067s-.805 2.018-1.765 4.39l-2.365 4.213s-.442-.535-.862-1.313c-.553-.667-1.194-1.712-1.702-2.868-1.172-1.956-2.21-4.024-2.21-4.024s-1.292 1.973-2.917 3.545c-.824.908-1.647 1.816-2.204 2.502a7.166 7.166 0 0 0-1.091 1.13s-.905-2.178-1.542-4.577a39.78 39.78 0 0 1-.92-4.642l-1.068.885c-.668.553-1.713 1.194-2.514 1.858-.911.53-1.956 1.172-2.868 1.702-.778.42-1.423.729-1.423.729s-.26-2.487-.298-4.707c-.065-.622-.02-1.11.026-1.598-.065-.622.091-.977.137-1.465l.137-1.465-1.29.618c-.754.176-2.043.794-3.066 1.191-2.178.905-4.665 1.165-4.665 1.165s.069-.733.248-1.332c.091-.976.45-2.174.674-3.262a54.37 54.37 0 0 1 1.41-4.547l-9.349 1.22 2.932-8.962-9.35 1.219 2.932-8.961-9.35 1.219 2.932-8.961-9.35 1.219 2.932-8.961-9.35 1.219 2.932-8.962-9.35 1.22 2.932-8.962-9.349 1.22 2.931-8.962-9.349 1.219 2.931-8.961-32.17 26.667 9.903-.551-2.931 8.961 9.349-1.219-2.931 8.961 9.349-1.219-2.932 8.961 9.35-1.219-2.932 8.961 9.128-1.485-2.931 8.96 9.35-1.218-2.932 8.96 9.35-1.218-2.932 8.96 9.128-1.485z"/><path stroke-linecap="square" stroke="#000" stroke-width="5.11214952" fill="#4a4b4a" d="M131.286 422.484c0 4.187 3.589 7.476 7.477 7.476 4.186 0 7.476-3.588 7.476-7.476 0-4.187-3.588-7.476-7.476-7.476s-7.477 3.29-7.477 7.476zM172.556 422.484c0 4.187 3.589 7.476 7.476 7.476 3.888 0 7.477-3.588 7.477-7.476 0-4.187-3.589-7.476-7.477-7.476-3.887 0-7.476 3.29-7.476 7.476zM90.017 422.484c0 4.187 3.589 7.476 7.476 7.476 4.187 0 7.477-3.588 7.477-7.476 0-4.187-3.59-7.476-7.477-7.476-3.887 0-7.476 3.29-7.476 7.476zM214.125 422.484c0 4.187 3.588 7.476 7.476 7.476 4.187 0 7.476-3.588 7.476-7.476 0-4.187-3.588-7.476-7.476-7.476-4.187 0-7.476 3.29-7.476 7.476zM56.224 429.96c4.187 0 7.476-3.588 7.476-7.476 0-4.187-3.589-7.476-7.476-7.476-4.187 0-7.476 3.588-7.476 7.476 0 4.187 3.588 7.476 7.476 7.476z"/><path stroke-linecap="square" stroke="#000" stroke-width="5.11214952" fill="#4a4b4a" d="M272.44 434.446v-23.924h-11.065c-1.196-3.589-2.392-6.879-4.187-9.869l7.776-7.775-17.046-17.046-8.374 7.775c-2.392-1.196-4.785-2.093-7.177-2.99v-12.262h-24.224v10.467h-16.149v-10.467h-24.223v10.467h-16.448v-10.467H127.1v10.467h-16.448v-10.467H86.428v10.467h-15.85v-10.467H46.355v11.962c-3.29.898-6.58 2.094-9.27 3.888l-8.673-8.672-17.046 17.046 8.672 8.672c-1.495 2.99-2.99 5.981-3.887 8.972H4.188v24.223h11.963c.897 3.29 2.093 6.58 3.887 8.972l-8.672 8.672 17.046 17.046 8.672-8.672c2.99 1.495 6.28 2.99 9.271 3.888v11.962h24.223v-10.467h16.448v10.467h24.224v-10.467h16.448v10.467h24.223v-10.467h16.448v10.467h23.625v-10.467h16.448v10.467h24.224v-11.962c2.691-.898 5.084-1.795 7.177-3.29l8.075 8.074 17.046-17.046-7.776-7.775c1.795-3.29 3.29-6.579 4.187-9.869h11.065zm-216.216 7.477c-10.766 0-19.439-8.972-19.439-19.439s8.972-19.439 19.439-19.439 19.438 8.972 19.438 19.439-8.373 19.439-19.438 19.439zm21.83-19.439c0-10.766 8.972-19.439 19.44-19.439 10.466 0 19.438 8.972 19.438 19.439s-8.972 19.439-19.439 19.439-19.438-8.673-19.438-19.439zm41.27 0c0-10.766 8.972-19.439 19.439-19.439s19.438 8.972 19.438 19.439-8.971 19.439-19.438 19.439c-10.467 0-19.439-8.673-19.439-19.439zm41.569 0c0-10.766 8.971-19.439 19.438-19.439 10.467 0 19.439 8.972 19.439 19.439s-8.972 19.439-19.439 19.439-19.438-8.673-19.438-19.439zm41.27 0c0-10.766 8.971-19.439 19.438-19.439 10.467 0 19.438 8.972 19.438 19.439s-8.971 19.439-19.438 19.439a19.4 19.4 0 0 1-19.439-19.439z"/><path stroke-linecap="square" stroke="#000" stroke-width="5.65966728" fill="#84d951" d="M37.012 347.775H71.34c7.105 0 12.91 5.806 12.91 12.911 0 7.105-5.805 12.911-12.91 12.911H37.01v16.948h238.35V223.189c0-92.486-53.315-167.356-119.175-167.356S37.012 130.703 37.012 223.189v124.586zm0 5.112v15.599c.368-.148.638-.513.638-.924V353.81c0-.41-.27-.776-.638-.923zm40.746 12.077v-8.632c0-.535-.458-.994-.993-.994-.535 0-.993.459-.993.994v8.632c0 .535.458.994.993.994.535 0 .993-.459.993-.994zm-35.448 2.598c0 .611.459.993.994.993.534 0 .993-.458.993-.993V353.81c0-.534-.459-.993-.993-.993-.535 0-.994.459-.994.993v13.752zm6.723 0c0 .611.459.993.993.993.535 0 .993-.458.993-.993V353.81c0-.534-.458-.993-.993-.993-.534 0-.993.459-.993.993v13.752zm6.647 0c0 .611.458.993.993.993.535 0 .993-.458.993-.993V353.81c0-.534-.458-.993-.993-.993-.535 0-.993.459-.993.993v13.752zm6.646 0c0 .611.459.993.993.993.535 0 .993-.458.993-.993V353.81c0-.534-.458-.993-.993-.993-.534 0-.993.459-.993.993v13.752zm8.786 0V353.81c0-.534-.459-.993-.993-.993-.535 0-.994.459-.994.993v13.752c0 .535.459.993.994.993.534 0 .993-.458.993-.993z"/><path stroke-linecap="square" stroke="#000" stroke-width="5.65966728" fill="#8a8a8a" d="M365.11 254.852h0l42.313-19.182-7.673-16.926-42.312 19.183h0c-23.357 10.588-33.72 38.138-23.13 61.494 10.588 23.356 38.137 33.719 61.494 23.13h0l42.312-19.182-7.673-16.925-42.312 19.182h0c-14.048 6.369-30.528.17-36.897-13.878-6.368-14.048-.17-30.528 13.878-36.896z"/><path d="M233.434 265.3c-.611-.364-.98-.996-.799-1.716.167-.976 1.042-1.613 1.92-1.421l2.964.44c.127-1.744-.001-3.474-.227-5.18l-2.923.743c-.39.099-.926.028-1.292-.19a1.854 1.854 0 0 1-.784-1.045c-.248-.974.297-1.89 1.235-2.077l2.922-.742c-.579-1.668-1.292-3.25-2.272-4.66l-2.394 1.801c-.572.404-1.34.444-1.89.117-.182-.109-.33-.279-.476-.45-.612-.777-.373-1.875.332-2.365l2.394-1.8c-1.15-1.264-2.398-2.502-3.889-3.471l-1.49 2.504a1.73 1.73 0 0 1-2.337.594 1.73 1.73 0 0 1-.594-2.338l1.49-2.504a24.16 24.16 0 0 0-4.907-1.761l-.44 2.963c-.166.976-1.041 1.613-1.92 1.421-.22-.048-.439-.095-.622-.204-.61-.364-.979-.996-.799-1.716l.354-3.097c-1.743-.127-3.473.001-5.179.227l.743 2.922c.247.974-.298 1.89-1.235 2.077-.39.099-.927.028-1.293-.19a1.854 1.854 0 0 1-.784-1.045l-.743-2.923c-1.667.58-3.249 1.293-4.659 2.273l1.801 2.394c.612.778.373 1.876-.332 2.366-.572.404-1.34.444-1.889.117-.183-.11-.33-.28-.477-.45l-1.8-2.394c-1.264 1.15-2.502 2.399-3.472 3.89l2.505 1.489a1.73 1.73 0 0 1 .594 2.338 1.73 1.73 0 0 1-2.338.594l-2.504-1.49a24.15 24.15 0 0 0-1.761 4.906l2.866.465c.976.167 1.613 1.042 1.42 1.92-.166.976-1.041 1.613-1.92 1.421l-2.963-.44c-.127 1.744.001 3.474.227 5.18l2.922-.743c.974-.248 1.89.297 2.077 1.235.247.974-.297 1.89-1.235 2.077l-2.922.742c.579 1.668 1.292 3.25 2.272 4.66l2.394-1.801c.778-.613 1.876-.373 2.366.332.612.778.373 1.875-.332 2.366l-2.394 1.8c1.15 1.263 2.398 2.502 3.889 3.471l1.49-2.504a1.73 1.73 0 0 1 2.337-.594 1.73 1.73 0 0 1 .594 2.338l-1.49 2.504c1.6.786 3.247 1.353 4.906 1.76l.44-2.963c.167-.975 1.042-1.612 1.92-1.42.976.166 1.613 1.041 1.421 1.92l-.44 2.963c1.744.127 3.474-.001 5.18-.227l-.743-2.922c-.247-.974.298-1.89 1.236-2.077.973-.247 1.89.298 2.076 1.235l.743 2.923c1.667-.58 3.249-1.292 4.659-2.273l-1.8-2.394c-.613-.778-.374-1.875.331-2.366.778-.612 1.876-.372 2.366.333l1.8 2.394c1.264-1.15 2.502-2.399 3.472-3.89l-2.505-1.489a1.73 1.73 0 0 1-.593-2.338 1.73 1.73 0 0 1 2.337-.594l2.504 1.49a24.16 24.16 0 0 0 1.761-4.906l-2.78-.33a1.419 1.419 0 0 1-.622-.206zm-8.833-5.586-7.296 4.343c-1.131.65-2.436.618-3.535-.036a3.302 3.302 0 0 1-1.187-1.202c-.932-1.63-.428-3.727 1.14-4.696l7.296-4.343c1.63-.932 3.728-.428 4.697 1.14 1.018 1.764.49 3.765-1.115 4.794z"/><path d="M231.79 233.727c-15.086-8.974-34.665-4-43.639 11.087-8.974 15.086-4 34.665 11.087 43.638 15.086 8.974 34.665 4 43.639-11.086 8.973-15.086 3.999-34.665-11.087-43.639zm6.322 40.805c-.29.489-.58.977-.933 1.43-1.32 1.942-2.91 3.643-4.611 5.112-.85.734-1.823 1.396-2.796 2.058a25.42 25.42 0 0 1-6.24 2.985c-1.145.395-2.18.606-3.312.842-2.266.472-4.532.529-6.91.355-1.11-.081-2.304-.296-3.439-.474-2.195-.48-4.404-1.214-6.492-2.291-.525-.23-1.014-.52-1.502-.811-.489-.29-.977-.581-1.43-.933-1.943-1.321-3.643-2.911-5.112-4.612-.734-.85-1.396-1.823-2.058-2.795a25.42 25.42 0 0 1-2.986-6.241c-.394-1.144-.605-2.18-.84-3.312-.473-2.265-.53-4.532-.356-6.91.08-1.109.296-2.304.474-3.438.48-2.196 1.214-4.404 2.29-6.493.23-.525.521-1.013.812-1.502.29-.488.581-.977.933-1.43 1.321-1.942 2.911-3.642 4.612-5.111.85-.735 1.823-1.397 2.795-2.059a25.41 25.41 0 0 1 6.241-2.985c1.144-.394 2.18-.606 3.312-.841 2.265-.472 4.532-.53 6.91-.356 1.108.081 2.304.296 3.438.475 2.195.479 4.404 1.214 6.492 2.29.525.23 1.014.52 1.503.811.488.29.977.582 1.43.933 1.942 1.321 3.642 2.911 5.111 4.612.735.85 1.397 1.823 2.058 2.796 1.288 2.006 2.344 4.122 3.047 6.277.394 1.144.605 2.18.841 3.312.472 2.265.53 4.531.356 6.909-.081 1.11-.296 2.304-.475 3.439-.479 2.195-1.214 4.404-2.29 6.492l-.873 1.466z"/><path stroke-linecap="square" stroke="#000" stroke-width="3.74335512" fill="#644f3d" d="m255.4 326.86-2.932 8.96s3.15.541 6.191.949c1.465.137 3.04.407 4.15.388 1.11-.02 1.843.05 1.843.05s.214 2.974.783 6.106l.966 4.154c.264 1.133.684 1.911.684 1.911s.755-.176 1.754-.329c.622-.064 1.244-.13 2-.305.754-.176 1.376-.24 2.376-.394 2.998-.458 5.885-1.05 5.885-1.05s.176.755.573 1.778c.397 1.022 1.015 2.31 1.744 3.734.729 1.422 1.458 2.845 1.988 3.757l1.061 1.823 5.866-2.16 5.424-2.695s.443.534 1.084 1.579c.64 1.045 1.526 2.113 2.656 3.204 1.991 2.402 4.36 4.717 4.36 4.717s2.758-1.835 5.161-3.827c1.201-.996 2.27-1.88 3.204-2.656.69-.797 1.357-1.35 1.357-1.35s2.282 1.937 4.83 3.653a192.525 192.525 0 0 0 5.12 3.188s.424-.576 1.247-1.484c.69-.798 1.694-2.305 2.65-3.323.98-1.263 1.827-2.416 2.407-3.346.58-.931.892-1.64.892-1.64s2.595 1.227 5.59 2.123c.842.202 1.418.625 2.261.827.843.202 1.198.358 1.908.67 1.087.226 1.797.538 1.797.538s.312-.71 1.025-1.75c.713-1.042 1.205-2.351 1.72-3.903 1.14-2.972 1.902-5.856 1.902-5.856s.843.202 1.82.293c1.087.225 2.685.251 4.15.388 3.174.297 6.26.216 6.26.216L332.6 313.762s.416 2.132.566 4.485c.019 1.11.26 2.487.058 3.33-.092.977-.004 1.355-.004 1.355s-2.24-1.072-4.368-2.01c-.931-.58-1.84-1.403-2.66-1.85l-1.152-.846-.137 1.465c-.045.489-.09.977-.026 1.598-.18.6-.091.977-.27 1.576l-1.167 4.57s-.576-.423-1.263-.98c-.686-.557-1.705-1.514-2.502-2.204-.909-.824-1.572-1.625-2.126-2.292l-.885-1.068s-.804 2.018-1.765 4.39l-2.364 4.213s-.443-.534-.862-1.312c-.554-.668-1.195-1.713-1.703-2.869-1.171-1.956-2.209-4.024-2.209-4.024s-1.293 1.973-2.917 3.545c-.824.908-1.648 1.816-2.205 2.503-.667.553-1.09 1.13-1.09 1.13s-.905-2.179-1.542-4.578c-.638-2.4-.92-4.642-.92-4.642l-1.069.885c-.667.553-1.712 1.195-2.513 1.858-.912.53-1.957 1.172-2.868 1.702a37.54 37.54 0 0 1-1.423.73s-.26-2.488-.299-4.708c-.064-.622-.019-1.11.027-1.598-.065-.622.09-.977.137-1.465l.137-1.465-1.29.618c-.755.176-2.044.794-3.066 1.191-2.178.905-4.665 1.165-4.665 1.165s.068-.733.248-1.332c.09-.976.45-2.174.674-3.261.583-2.285 1.41-4.548 1.41-4.548l-9.349 1.22 2.931-8.962-9.349 1.22 2.932-8.962-9.35 1.22 2.932-8.962-9.35 1.219 2.932-8.961-9.35 1.219 2.932-8.961-9.35 1.219 2.932-8.962-9.35 1.22 2.932-8.962-9.35 1.22 2.932-8.962-32.17 26.668 9.903-.552-2.932 8.961 9.35-1.219-2.932 8.961 9.35-1.219-2.932 8.962 9.35-1.22-2.932 8.962 9.128-1.486-2.931 8.96 9.349-1.218-2.932 8.96 9.35-1.218-2.932 8.961 9.128-1.486z"/><path stroke-linecap="square" stroke="#000" stroke-width="5.65966728" fill="#8a8a8a" d="M361.196 282.24h0l40.233-23.228-9.291-16.093-40.233 23.228h0C329.696 278.97 322.078 307.4 334.9 329.61c12.822 22.209 41.253 29.827 63.462 17.005h0l40.233-23.23-9.291-16.092-40.233 23.228h0c-13.358 7.712-30.366 3.155-38.077-10.202-7.712-13.358-3.155-30.366 10.202-38.078z"/><path stroke-linecap="square" stroke="#000" stroke-width="5.65966728" d="m132.062 13.181 26.711 106.181M139.611 16.42a6.531 6.531 0 1 1-12.668 3.186 6.531 6.531 0 1 1 12.668-3.187zM163.811 112.615a6.532 6.532 0 1 1-12.67 3.187 6.532 6.532 0 0 1 12.67-3.187z" fill="none"/><path stroke-linecap="square" stroke="#000" stroke-width="5.65966728" d="M235.761 140.358c.142 8.346-6.51 15.226-14.855 15.368-8.346.142-15.227-6.51-15.37-14.855-.14-8.346 6.51-15.227 14.856-15.37 8.347-.14 15.227 6.51 15.37 14.857z"/><path stroke-linecap="square" stroke="#000" stroke-width="6.29942988" fill="#f7f9fe" d="M249.718 207.095H63.858c-16.333 0-29.287-1.639-29.287-3.626v-22.976c0-2.023 13.236-3.626 29.287-3.626h185.86c16.334 0 29.287 1.638 29.287 3.626v23.01c-.281 1.953-13.235 3.592-29.287 3.592z"/><path stroke-linecap="square" stroke="#000" stroke-width="3.28510656" fill="#5c8145" d="M60.91 248.115h-6.656c-1.082 0-1.83.832-1.83 1.83l-.084 31.946c0 1.082.832 1.83 1.83 1.83h13.728c1.081 0 1.83-.831 1.83-1.83l.083-31.946c0-1.081-.832-1.83-1.83-1.83h-6.49c2.413-.083 4.743-.998 6.573-2.829a9.741 9.741 0 0 0 0-13.81 9.564 9.564 0 0 0-6.822-2.828h0a9.769 9.769 0 0 0-6.822 2.828 9.741 9.741 0 0 0 0 13.81 9.66 9.66 0 0 0 6.49 2.829zm-2.413-12.396c.749-.666 1.664-1.081 2.662-1.081h0c.998 0 1.913.332 2.662 1.081h0c1.498 1.498 1.498 3.91 0 5.324-1.497 1.498-3.91 1.498-5.324 0-1.415-1.414-1.415-3.826 0-5.324zM61.242 283.722h0a9.768 9.768 0 0 0-6.822 2.828 9.74 9.74 0 0 0 0 13.81c1.83 1.914 4.41 2.829 6.905 2.829a9.708 9.708 0 0 0 6.822-2.829 9.74 9.74 0 0 0 0-13.81c-1.83-1.83-4.326-2.828-6.905-2.828zm2.662 12.396c-1.497 1.497-3.91 1.497-5.324 0-1.498-1.498-1.498-3.91 0-5.325.749-.665 1.664-1.081 2.662-1.081h0c.999 0 1.914.332 2.662 1.081h0a3.871 3.871 0 0 1 0 5.325z"/><path stroke-linecap="square" stroke="#000" stroke-width="5.11214952" fill="#6b6e69" d="M159.758 438.09c0 4.186 3.589 7.475 7.476 7.475 4.187 0 7.477-3.588 7.477-7.476 0-4.187-3.589-7.476-7.477-7.476-3.887 0-7.476 3.29-7.476 7.476zM201.028 438.09c0 4.186 3.588 7.475 7.476 7.475s7.476-3.588 7.476-7.476c0-4.187-3.588-7.476-7.476-7.476s-7.476 3.29-7.476 7.476zM118.488 438.09c0 4.186 3.59 7.475 7.477 7.475 4.187 0 7.476-3.588 7.476-7.476 0-4.187-3.588-7.476-7.476-7.476s-7.477 3.29-7.477 7.476zM242.596 438.09c0 4.186 3.589 7.475 7.476 7.475 4.187 0 7.477-3.588 7.477-7.476 0-4.187-3.589-7.476-7.477-7.476-4.186 0-7.476 3.29-7.476 7.476zM84.695 445.565c4.187 0 7.477-3.588 7.477-7.476 0-4.187-3.589-7.476-7.477-7.476-4.186 0-7.476 3.588-7.476 7.476 0 4.187 3.589 7.476 7.476 7.476z"/><path stroke-linecap="square" stroke="#000" stroke-width="5.11214952" fill="#6b6e69" d="M300.912 450.051v-23.924h-11.065c-1.197-3.589-2.393-6.878-4.187-9.869l7.775-7.775-17.046-17.046-8.373 7.775c-2.393-1.196-4.785-2.093-7.178-2.99V383.96h-24.223v10.467h-16.15V383.96h-24.222v10.467h-16.448V383.96H155.57v10.467h-16.448V383.96H114.9v10.467H99.05V383.96H74.827v11.963c-3.29.897-6.58 2.093-9.271 3.887l-8.673-8.672-17.046 17.046 8.673 8.672c-1.495 2.991-2.99 5.982-3.888 8.972H32.66v24.223h11.962c.897 3.29 2.093 6.58 3.888 8.972l-8.673 8.673 17.046 17.046 8.673-8.673c2.99 1.495 6.28 2.99 9.27 3.888v11.962H99.05v-10.467h16.448v10.467h24.223v-10.467h16.448v10.467h24.224v-10.467h16.448v10.467h23.625v-10.467h16.448v10.467h24.223v-11.962c2.692-.897 5.084-1.795 7.178-3.29l8.074 8.075 17.046-17.046-7.775-7.776c1.794-3.29 3.29-6.579 4.187-9.869h11.065zm-216.217 7.477c-10.766 0-19.438-8.972-19.438-19.439s8.972-19.438 19.438-19.438c10.467 0 19.439 8.971 19.439 19.438 0 10.467-8.373 19.439-19.439 19.439zm21.831-19.439c0-10.766 8.972-19.438 19.439-19.438s19.438 8.971 19.438 19.438c0 10.467-8.971 19.439-19.438 19.439-10.467 0-19.439-8.673-19.439-19.439zm41.27 0c0-10.766 8.971-19.438 19.438-19.438 10.467 0 19.439 8.971 19.439 19.438 0 10.467-8.972 19.439-19.439 19.439s-19.438-8.673-19.438-19.439zm41.568 0c0-10.766 8.972-19.438 19.439-19.438s19.438 8.971 19.438 19.438c0 10.467-8.971 19.439-19.438 19.439-10.467 0-19.439-8.673-19.439-19.439zm41.27 0c0-10.766 8.972-19.438 19.438-19.438 10.467 0 19.439 8.971 19.439 19.438 0 10.467-8.972 19.439-19.439 19.439a19.4 19.4 0 0 1-19.438-19.439z"/><path stroke-linecap="square" stroke="#000" stroke-width="5.2341507599999995" fill="#f7f9fe" d="M496.768 219.016 494.062 44.14l-21.852.338 2.425 156.694-95.23 96.096 20.088 19.907 96.656-97.536.629-.01-.01-.614-.619.624.62-.624z"/><path stroke-linecap="square" stroke="#000" stroke-width="5.2341507599999995" fill="#f7f9fe" d="m485.944 228.64-2.706-174.876-21.852.338 2.425 156.695-95.23 96.097 20.088 19.906 96.656-97.536.629-.01-.01-.614-.619.624.62-.624z"/><path stroke-linecap="square" stroke="#000" stroke-width="5.5049339999999995" d="m484.66 52.701 6.814-6.533M462.68 51.654l6.644-5.905" fill="none"/><path stroke-linecap="square" stroke="#000" stroke-width="5.95128" d="m425.896 243.008 6.634-6.396M439.907 229.352l6.634-6.396M412.852 255.87l6.634-6.396M399.365 269.222l6.633-6.395M385.434 283.026l6.633-6.396" fill="none"/></svg>