<svg xmlns="http://www.w3.org/2000/svg" viewBox="0 0 512 512" style="enable-background:new 0 0 512 512" xml:space="preserve"><path style="fill:#bfbfbf" d="M33.391 77.913V500.87h445.218V77.913z"/><path style="fill:#d68a5f" d="M200.348 144.696h111.304v44.522H200.348zM200.348 389.565h111.304v44.522H200.348z"/><path style="fill:#456173" d="M33.391 267.13h445.217v44.522H33.391zM11.13 11.13h489.739v66.783H11.13z"/><path d="M500.87 0H11.13C4.983 0 0 4.983 0 11.13v66.783c0 6.147 4.983 11.13 11.13 11.13h11.13V500.87c0 6.147 4.983 11.13 11.13 11.13h445.217c6.146 0 11.13-4.983 11.13-11.13V89.043h11.13c6.146 0 11.13-4.983 11.13-11.13V11.13C512 4.983 507.016 0 500.87 0zM44.522 489.739V322.783h422.957V489.74H44.522zM467.478 256H144.696c-6.147 0-11.13 4.983-11.13 11.13s4.983 11.13 11.13 11.13h322.783v22.261H44.522V278.26h33.391c6.147 0 11.13-4.983 11.13-11.13S84.06 256 77.913 256H44.522V89.043h422.957V256zm22.261-189.217H22.261V22.261h467.478v44.522z"/><path d="M105.127 276.38c.601.401 1.247.746 1.914 1.024.679.278 1.38.501 2.093.634a10.94 10.94 0 0 0 2.17.223c.723 0 1.458-.078 2.17-.223a10.485 10.485 0 0 0 2.081-.634 10.948 10.948 0 0 0 1.926-1.024c.612-.401 1.18-.868 1.692-1.38a11.215 11.215 0 0 0 3.261-7.869c0-.723-.078-1.458-.223-2.17a10.485 10.485 0 0 0-.634-2.081 10.948 10.948 0 0 0-1.024-1.926 10.677 10.677 0 0 0-1.38-1.692 10.677 10.677 0 0 0-1.692-1.38 10.948 10.948 0 0 0-1.926-1.024 10.439 10.439 0 0 0-2.081-.634 10.976 10.976 0 0 0-4.341 0c-.712.134-1.414.356-2.093.634a11.24 11.24 0 0 0-1.914 1.024c-.612.401-1.18.868-1.692 1.38-.512.512-.979 1.08-1.38 1.692a10.948 10.948 0 0 0-1.024 1.926 10.439 10.439 0 0 0-.634 2.081 10.94 10.94 0 0 0-.223 2.17c0 2.927 1.191 5.799 3.261 7.869a10.73 10.73 0 0 0 1.693 1.38zM200.348 200.348h111.304c6.146 0 11.13-4.983 11.13-11.13v-44.522c0-6.147-4.984-11.13-11.13-11.13H200.348c-6.147 0-11.13 4.983-11.13 11.13v44.522c-.001 6.147 4.982 11.13 11.13 11.13zm11.13-44.522h89.043v22.261h-89.043v-22.261zM311.652 378.435H200.348c-6.147 0-11.13 4.983-11.13 11.13v44.522c0 6.147 4.983 11.13 11.13 11.13h111.304c6.146 0 11.13-4.983 11.13-11.13v-44.522c.001-6.147-4.984-11.13-11.13-11.13zm-11.13 44.522h-89.043v-22.261h89.043v22.261z"/></svg>