<svg id="Layer_1" style="enable-background:new 0 0 512 512" version="1.1" viewBox="0 0 512 512" xml:space="preserve" xmlns="http://www.w3.org/2000/svg"><style>.st1{fill:#bf6149}.st3{fill:#fff}</style><g id="XMLID_168_"><g id="XMLID_83_"><path id="XMLID_87_" style="fill:#ffdbd4" d="M330.7 6H87.9v500h361.3V122.8z"/><path class="st1" id="XMLID_86_" d="m330.7 6 118.5 116.8H330.7z"/><path class="st1" id="XMLID_85_" d="M62.8 298.8h329v156.1h-329z"/><path id="XMLID_84_" style="fill:#a84835" d="m62.8 454.9 25.1 21.2v-21.2z"/></g><g id="XMLID_3113_"><path class="st3" d="M149 400.1c3.1 0 5.4-.8 6.9-2.5s2.3-4.1 2.3-7.2h20.6l.1.4c.2 7.9-2.5 14.3-8.2 19.3-5.6 5-12.9 7.4-21.7 7.4-11 0-19.5-3.4-25.4-10.2-5.9-6.8-8.9-15.6-8.9-26.5v-1.5c0-10.9 3-19.7 8.9-26.5 5.9-6.8 14.4-10.2 25.3-10.2 9.2 0 16.5 2.5 22 7.6s8.2 12.1 8 20.9l-.1.4h-20.6c0-3.4-.8-6.2-2.3-8.4-1.6-2.2-3.9-3.2-6.9-3.2-4.4 0-7.4 1.7-9.1 5.2-1.7 3.5-2.6 8.2-2.6 14.1v1.5c0 6.1.9 10.8 2.6 14.2 1.5 3.5 4.6 5.2 9.1 5.2z" id="XMLID_3004_"/><path class="st3" d="M235.3 395.8c0-1.8-1-3.4-3-4.8s-5.7-2.7-11.1-3.8c-8.4-1.6-14.8-4.2-19-7.6-4.3-3.4-6.4-8.2-6.4-14.3 0-6.4 2.7-11.8 8-16.2 5.3-4.4 12.6-6.6 21.7-6.6 9.6 0 17.3 2.1 23 6.4 5.7 4.3 8.4 9.9 8.1 16.7l-.1.4h-21.9c0-2.8-.7-5-2.1-6.5-1.4-1.5-3.8-2.2-7-2.2-2.4 0-4.3.6-5.9 1.9-1.6 1.3-2.4 2.9-2.4 4.9 0 1.9.9 3.5 2.8 4.9 1.8 1.3 5.6 2.5 11.2 3.6 8.9 1.7 15.4 4.3 19.6 7.8 4.2 3.5 6.3 8.3 6.3 14.7 0 6.5-2.9 11.9-8.6 16.1-5.8 4.2-13.4 6.3-22.9 6.3-9.8 0-17.6-2.5-23.3-7.5-5.7-5-8.4-10.6-8.2-16.7l.1-.4h20.4c.1 3.4 1.1 5.9 3.1 7.4s4.8 2.3 8.4 2.3c3 0 5.3-.6 6.9-1.8 1.5-1.2 2.3-2.8 2.3-5z" id="XMLID_3006_"/><path class="st3" d="m304.2 386.3 1.3 7.7.4.1 1.5-7.7 9.6-42.5h23.7l-23.5 72.3h-22.9l-23.5-72.3h23.8l9.6 42.4z" id="XMLID_3008_"/></g></g></svg>