<svg width="500" height="500" xmlns="http://www.w3.org/2000/svg"><path fill="none" d="M-1-1h502v502H-1z"/><path stroke-linejoin="round" stroke-linecap="round" stroke="#000" stroke-width="5.6109271" fill="#67d2ed" d="M296.213 140.539c8.336-2.086 13.381-4.812 13.381-7.793 0-6.563-24.446-11.883-54.602-11.883-30.156 0-54.602 5.32-54.602 11.883 0 2.981 5.045 5.706 13.378 7.792-.761 3.818-1.194 8.191-1.194 12.86V253.96a44.23 44.23 0 0 0-5.565 5.684L63.587 436.79c-21.514 26.829 5.516 59.575 47.44 59.97H397.87c43.026 0 70.056-33.141 48.542-59.575l-143.422-177.54a42.918 42.918 0 0 0-5.58-5.8h0V153.398c0-4.635-.433-9.019-1.198-12.86z"/><path stroke-linecap="square" stroke="#f7f9fe" stroke-width=".08423912" fill="#fff" d="M163.848 481.783h0a6.35 6.35 0 0 1-2.364-8.667h0a6.35 6.35 0 0 1 8.667-2.365h0a6.35 6.35 0 0 1 2.365 8.668h0a6.35 6.35 0 0 1-8.668 2.364zM190.516 484.296h0a5.263 5.263 0 0 1-4.32-6.066h0a5.264 5.264 0 0 1 6.067-4.32h0a5.264 5.264 0 0 1 4.32 6.066h0a5.264 5.264 0 0 1-6.067 4.32zM202.055 488.156h0a3.71 3.71 0 0 1 1.557-5.014h0a3.71 3.71 0 0 1 5.014 1.558h0a3.71 3.71 0 0 1-1.557 5.014h0a3.71 3.71 0 0 1-5.014-1.558zM214.875 488.912h0a3.71 3.71 0 0 1 1.558-5.014h0a3.71 3.71 0 0 1 5.013 1.557h0a3.71 3.71 0 0 1-1.557 5.014h0a3.71 3.71 0 0 1-5.014-1.557zM251.688 488.286h0a3.711 3.711 0 0 1 1.558-5.014h0a3.711 3.711 0 0 1 5.014 1.558h0a3.71 3.71 0 0 1-1.558 5.014h0a3.71 3.71 0 0 1-5.014-1.558zM241.71 428.725h0a7.369 7.369 0 0 1 10.145 2.404h0a7.369 7.369 0 0 1-2.404 10.145h0a7.369 7.369 0 0 1-10.145-2.404h0a7.369 7.369 0 0 1 2.405-10.145zM300.533 471.378h0a3.71 3.71 0 0 1 1.558-5.014h0a3.71 3.71 0 0 1 5.014 1.558h0a3.71 3.71 0 0 1-1.558 5.014h0a3.71 3.71 0 0 1-5.014-1.558zM322.242 485.364h0a3.711 3.711 0 0 1 1.558-5.014h0a3.71 3.71 0 0 1 5.014 1.557h0a3.71 3.71 0 0 1-1.558 5.014h0a3.711 3.711 0 0 1-5.014-1.557zM285.742 477.731h0a5.14 5.14 0 0 1 5.404-4.866h0a5.14 5.14 0 0 1 4.866 5.403h0a5.14 5.14 0 0 1-5.404 4.866h0a5.14 5.14 0 0 1-4.866-5.403zM304.917 487.66h0a3.711 3.711 0 0 1 1.557-5.014h0a3.711 3.711 0 0 1 5.014 1.558h0a3.711 3.711 0 0 1-1.557 5.014h0a3.711 3.711 0 0 1-5.014-1.558zM229.08 484.73h0a3.71 3.71 0 0 1 1.557-5.014h0a3.71 3.71 0 0 1 5.014 1.557h0a3.71 3.71 0 0 1-1.558 5.014h0a3.71 3.71 0 0 1-5.014-1.558zM225.523 468.782h0a3.71 3.71 0 0 1 1.557-5.014h0a3.71 3.71 0 0 1 5.014 1.558h0a3.71 3.71 0 0 1-1.557 5.014h0a3.71 3.71 0 0 1-5.014-1.558zM239.107 482.655h0a3.71 3.71 0 0 1 1.557-5.014h0a3.71 3.71 0 0 1 5.014 1.557h0a3.711 3.711 0 0 1-1.557 5.014h0a3.711 3.711 0 0 1-5.014-1.557z"/><path stroke-linecap="square" stroke="#000" stroke-width="4.07958024" fill="#e55a5a" d="m171.917 393.093-14.008 49.042-10.857-3.1 12.446-43.578-5.465-1.56 1.287-4.506 1.814-6.352 10.857 3.101q2.29.654 3.472 2.67 1.087 2.067.454 4.283z"/><path stroke-linecap="square" stroke="#343838" stroke-width="5.541730680000001" fill="#00b4ce" d="m208.685 439.06 2.86 8.474 16.89-5.7 2.84 8.418-25.307 8.539-1.43-4.237-1.41-4.18-1.778-5.268-2.511-7.443q-.58-1.718.255-3.402.797-1.608 2.571-2.207l12.654-4.27-2.86-8.474-8.473 2.859 1.062 3.15-8.416 2.84-2.493-7.387q-.58-1.717.255-3.402.797-1.608 2.572-2.207l16.89-5.7q1.719-.58 3.384.198 1.627.854 2.207 2.572l5.7 16.89q.598 1.776-.18 3.44-.853 1.628-2.57 2.208l-12.712 4.29z"/><path stroke-linecap="square" stroke="#000" stroke-width="5.541730680000001" fill="#57a32b" d="M281.88 461.64q1.4 1.693 1.183 3.96-.206 2.165-1.956 3.61l-12.474 10.303q-1.75 1.445-3.914 1.239-2.268-.217-3.666-1.91L247.3 462.191q-1.445-1.75-1.182-3.961.16-2.22 1.91-3.666l2.991-2.47 4.29-3.543 6.853 8.297-3.161 2.61q2.33 2.823 6.9 8.354l8.353-6.899-6.9-8.354 8.298-6.853 6.9 8.354 8.353-6.9-6.899-8.353-3.104 2.564-6.853-8.298 7.281-6.013q1.693-1.399 3.96-1.183 2.165.207 3.61 1.956l13.753 16.652q1.398 1.693 1.238 3.914-.262 2.21-1.956 3.61l-12.53 10.348q-1.694 1.399-3.915 1.24-2.21-.264-3.61-1.957z"/><path stroke-linecap="square" stroke="#000" stroke-width="5.541730680000001" fill="#d97fbd" d="m271.514 369.257-19.17 48.199-9.614-3.824 7.673-19.293-14.453-5.748q-2.027-.807-2.854-2.726-.867-2.011-.06-4.039l3.98-10.006q2.392-6.017 5.592-14.06l9.613 3.823-7.673 19.293 9.679 3.85 7.673-19.293 9.614 3.824z"/><path stroke-linecap="square" stroke="#000" stroke-width="5.541730680000001" fill="#7fa7d9" d="m344.017 427.299-4.797 8.816 13.224 7.196q1.787.973 2.417 2.937.538 1.991-.435 3.778l-9.562 17.574q-.843 1.549-2.385 2.254-1.601.672-3.225.252l-.065.119-18.646-10.146q-1.847-1.005-2.384-2.996-.63-1.964.375-3.811l4.765-8.757 8.757 4.765-2.4 4.408 8.817 4.798 4.798-8.817-8.817-4.797-4.348-2.366q-1.49-.81-4.408-2.4l3.987-7.326 5.575-10.246 2.982-5.481 1.783-3.276 26.33 14.327-4.765 8.757-17.573-9.562z"/><path stroke-linecap="square" stroke="#000" stroke-width="5.541730680000001" fill="#e60000" d="M401.324 472.322q.72 1.903 2.643 2.772 1.835.829 3.802.085l14.02-5.298q1.967-.743 2.795-2.579.869-1.923.15-3.826l-7.073-18.715q-.743-1.967-2.643-2.771-1.86-.893-3.826-.15l-14.02 5.299q-1.967.743-2.771 2.642-.893 1.86-.15 3.827-.743-1.967-2.578-2.796-1.924-.868-3.827-.149l-5.836 2.206-8.247 3.117q-1.904.719-2.772 2.642-.829 1.835-.085 3.802l7.072 18.715q.72 1.903 2.58 2.796 1.898.804 3.801.085l14.084-5.322q1.903-.72 2.795-2.58.805-1.899.086-3.802zm2.92-6.468-3.548-9.39 9.39-3.548 3.548 9.39-1.65.623-7.74 2.925zm-9.325 3.524-1.65.623-7.74 2.925-3.548-9.389 9.39-3.548 3.548 9.39z"/><path stroke-linecap="square" stroke="#000" stroke-width="5.541730680000001" fill="#ccdbe0" d="m349.816 388.606 1.819 4.677 9.354-3.637-3.638-9.355-13.969 5.432q-1.959.762-3.802-.05-1.932-.849-2.694-2.808l-3.023-7.775q-1.82-4.677-4.228-10.872-.737-1.896.112-3.827.812-1.844 2.771-2.606l18.646-7.251q1.897-.737 3.803.05 1.868.874 2.606 2.77l14.502 37.292q.762 1.96-.049 3.804-.85 1.93-2.746 2.668l-18.646 7.251q-1.96.762-3.828-.112-1.907-.787-2.669-2.746l-3.613-9.292 9.292-3.613zM353.738 371l-.639-1.643-2.999-7.712-9.355 3.638 3.638 9.355 9.355-3.638z"/><path stroke-linecap="square" stroke="#000" stroke-width="5.541730680000001" fill="#fdf4af" d="m117.182 445.462-2.433-4.062-8.125 4.866 4.866 8.124 12.187-7.298q1.647-.986 3.545-.557 1.876.518 2.863 2.165l9.698 16.194q1.02 1.702.557 3.545-.485 1.931-2.132 2.918l-16.194 9.698q-1.702 1.02-3.578.502-1.899-.43-2.918-2.131l-7.298-12.188-4.997-8.344-7.101-11.858q-.987-1.647-.502-3.578.462-1.843 2.164-2.862l16.195-9.699q1.647-.986 3.545-.556 1.876.517 2.862 2.164l4.866 8.125-8.07 4.832zm-.86 16.999 4.866 8.124 8.125-4.865-.855-1.428-4.01-6.697-8.125 4.866z"/><path stroke-linecap="square" stroke="#000" stroke-width="5.541730680000001" fill="#bef200" d="m300.01 371.077-1.681.912-17.1 9.29 1.792 3.3 2.999 5.52 13.62-7.399q1.404 10.739 5.612 42.801l9.48-5.15q-2.318-17.857-6.983-53.48l-7.74 4.206z"/><path stroke-linecap="square" stroke="#000" stroke-width="4.1668279" fill-opacity=".281" fill="#cbe8fe" d="M230.45 107.789h0c-8.664 2.977-18.087-1.625-21.065-10.288h0c-2.977-8.664 1.625-18.087 10.288-21.065h0c8.663-2.977 18.087 1.625 21.064 10.288h0c2.978 8.663-1.625 18.087-10.288 21.065z"/><path stroke-linecap="square" stroke="#000" stroke-width="4.1668279" fill-opacity=".316" fill="#cbe8fe" d="M265.997 79.39h0c-9.187 1.351-17.718-4.991-19.07-14.178h0c-1.352-9.186 4.99-17.717 14.177-19.07h0c9.186-1.351 17.717 4.99 19.07 14.177h0c1.351 9.187-4.99 17.718-14.177 19.07z"/><path stroke-linecap="square" stroke="#000" stroke-width="4.1668279" fill-opacity=".261" fill="#bef2fe" d="M220.387 33.474h0c-8.426-1.178-14.294-8.952-13.117-17.379h0c1.178-8.427 8.952-14.294 17.379-13.117h0c8.427 1.176 14.295 8.952 13.117 17.379h0c-1.177 8.426-8.952 14.295-17.379 13.117z"/><path fill="#f7f9fe" d="m200.016 310.929 6.007 4.833-32.898 40.887-6.006-4.833 32.897-40.887zM95.677 412.372l5.156 4.571-17.479 19.714-5.156-4.572 17.48-19.713zM199.906 285.005l6.006 4.833-54.392 67.603-6.007-4.833 54.393-67.603zM222.087 172.307h7.003v72.113h-7.003v-72.113z"/><path fill="#f7f9fe" d="m72.138 449.168 11.585-13.034-5.213-4.634-11.586 13.034c-6.395 7.195-5.746 18.224 1.449 24.62l4.634-5.214a10.45 10.45 0 0 1-.87-14.772z"/></svg>