<svg xmlns="http://www.w3.org/2000/svg" viewBox="0 0 511.999 511.999" style="enable-background:new 0 0 511.999 511.999" xml:space="preserve"><circle style="fill:#ffd960" cx="341.239" cy="72.717" r="64.621"/><circle style="fill:#ffd960" cx="168.536" cy="72.717" r="64.623"/><circle style="fill:#f5f5f5" cx="341.239" cy="72.717" r="25.626"/><circle style="fill:#f5f5f5" cx="168.536" cy="72.717" r="25.626"/><path style="fill:#59c384" d="M350.424 351.181v-62.744c0-52.149-42.273-94.426-94.426-94.426-52.151 0-94.426 42.277-94.426 94.426v158.644h-48.467c-11.076 0-20.054 8.978-20.054 20.056v16.712c0 11.076 8.978 20.054 20.054 20.054H398.89c11.076 0 20.055-8.978 20.055-20.054v-16.712c0-11.077-8.978-20.056-20.055-20.056h-48.467v-69.993"/><g style="opacity:.2"><path style="fill:#231f20" d="M301.981 72.718c0-31.347 22.323-57.474 51.936-63.37a64.886 64.886 0 0 0-12.685-1.252c-35.69 0-64.621 28.933-64.621 64.622 0 35.69 28.931 64.623 64.621 64.623 4.342 0 8.582-.435 12.685-1.252-29.613-5.894-51.936-32.023-51.936-63.371z"/></g><g style="opacity:.2"><path style="fill:#231f20" d="M129.283 72.718c0-31.347 22.325-57.474 51.939-63.37a64.963 64.963 0 0 0-12.685-1.252c-35.689 0-64.623 28.933-64.623 64.622 0 35.69 28.935 64.623 64.623 64.623 4.342 0 8.582-.435 12.685-1.252-29.616-5.894-51.939-32.023-51.939-63.371z"/></g><g style="opacity:.2"><path style="fill:#231f20" d="M255.999 194.012c-52.151 0-94.426 42.277-94.426 94.426v166.201h3.166c6.801-.303 22.203-2.753 22.203-18.735V288.437c0-47.847 35.59-87.377 81.741-93.575a95.279 95.279 0 0 0-12.684-.85z"/></g><path style="fill:#231f20" d="M398.892 438.985h-40.37V377.09a8.097 8.097 0 0 0-16.192 0v69.992a8.096 8.096 0 0 0 8.096 8.096h48.467c6.594 0 11.958 5.365 11.958 11.959v16.712c0 6.594-5.364 11.958-11.958 11.958H113.107c-6.594 0-11.958-5.364-11.958-11.958v-16.712c0-6.594 5.364-11.959 11.958-11.959h48.467a8.095 8.095 0 0 0 8.096-8.096V288.437c0-47.602 38.727-86.329 86.329-86.329s86.329 38.727 86.329 86.329v62.744a8.096 8.096 0 1 0 16.192 0v-62.744c0-39.934-22.953-74.604-56.357-91.522l20.695-53.833a72.563 72.563 0 0 0 18.375 2.357c40.097 0 72.717-32.622 72.717-72.72C413.951 32.621 381.33 0 341.234 0s-72.717 32.621-72.717 72.718c0 28.029 15.949 52.388 39.239 64.523l-20.577 53.527A102.121 102.121 0 0 0 256 185.914a102.116 102.116 0 0 0-32.077 5.145l-21.343-54.107c22.985-12.231 38.678-36.43 38.678-64.233C241.255 32.621 208.635 0 168.537 0c-40.097 0-72.72 32.621-72.72 72.718 0 40.098 32.622 72.72 72.72 72.72a72.57 72.57 0 0 0 18.985-2.53l21.473 54.435c-32.948 17.071-55.517 51.495-55.517 91.093v150.547h-40.37c-15.523 0-28.151 12.629-28.151 28.152v16.712c0 15.523 12.628 28.151 28.151 28.151h285.785c15.523 0 28.151-12.628 28.151-28.151v-16.712c-.001-15.522-12.63-28.15-28.152-28.15zM284.709 72.718c0-31.168 25.356-56.525 56.524-56.525s56.524 25.357 56.524 56.525c0 31.169-25.356 56.527-56.524 56.527-31.167.001-56.524-25.357-56.524-56.527zm-172.699 0c0-31.168 25.357-56.525 56.527-56.525 31.168 0 56.525 25.357 56.525 56.525 0 31.169-25.357 56.527-56.525 56.527-31.17.001-56.527-25.357-56.527-56.527z"/><path style="fill:#231f20" d="M374.956 72.717c0-18.594-15.129-33.721-33.722-33.721-18.594 0-33.722 15.128-33.722 33.721s15.129 33.721 33.722 33.721c18.594.001 33.722-15.127 33.722-33.721zm-51.253 0c0-9.665 7.863-17.528 17.529-17.528s17.529 7.863 17.529 17.528-7.863 17.528-17.529 17.528c-9.665.001-17.529-7.863-17.529-17.528zM168.539 38.996c-18.596 0-33.724 15.128-33.724 33.721s15.129 33.721 33.724 33.721c18.594 0 33.72-15.128 33.72-33.721s-15.126-33.721-33.72-33.721zm0 51.251c-9.666 0-17.531-7.863-17.531-17.528s7.864-17.528 17.531-17.528c9.665 0 17.527 7.863 17.527 17.528s-7.862 17.528-17.527 17.528zM283.558 301.125c0 15.194-12.363 27.555-27.558 27.555-15.194 0-27.555-12.362-27.555-27.555a8.096 8.096 0 0 0-8.096-8.096 8.095 8.095 0 0 0-8.096 8.096c0 24.123 19.626 43.748 43.748 43.748 24.125 0 43.751-19.626 43.751-43.748a8.096 8.096 0 0 0-8.096-8.096 8.096 8.096 0 0 0-8.098 8.096z"/></svg>