<svg xmlns="http://www.w3.org/2000/svg" viewBox="0 0 298.167 298.167" style="enable-background:new 0 0 298.167 298.167" xml:space="preserve"><path style="fill:#fff" d="M147.833 147.083v101h16v-76c0-4.418 3.915-8 8.333-8h69c4.418 0 7.667 3.582 7.667 8v76h17v-101h-118zM58.833 199.083c0-4.418 3.915-8 8.333-8h31c4.418 0 7.667 3.582 7.667 8v49h26v-101h-99v101h26v-49zm49.001-34.5a8 8 0 1 1 0 16 8 8 0 0 1 0-16zm-59.001 8a8 8 0 1 1 16 0 8 8 0 0 1-16 0z"/><path style="fill:#c52d2f" d="M160.408 131.083h111.231l-39.806-43.327v5.327c0 4.418-3.249 8-7.667 8h-33c-4.418 0-8.333-3.582-8.333-8v-26h-81.758l59.333 64zM138.589 131.083l-55.84-60.232-55.84 60.232z"/><path d="M289.75 147.083c.01-.002.014 0 .019 0a8 8 0 0 0 5.576-13.737l-61.062-67.024c8.241-2.082 14.869-8.262 17.571-16.238h21.313c13.785 0 25-11.215 25-25s-11.215-25-25-25h-41c-10.988 0-20.344 7.127-23.688 17h-21.312c-13.785 0-25 11.215-25 25 0 3.172.601 6.205 1.683 9h-81.1c-.066 0-.131.009-.196.01a8.45 8.45 0 0 0-.799.058 9.89 9.89 0 0 0-.483.076c-.1.02-.198.039-.297.061a8.41 8.41 0 0 0-.496.131c-.09.027-.18.053-.268.083a7.89 7.89 0 0 0-.497.188c-.084.034-.167.067-.25.104a8.261 8.261 0 0 0-.471.235c-.085.045-.17.089-.254.137-.141.082-.278.173-.416.264-.093.062-.186.122-.276.188-.119.086-.233.181-.349.274-.101.082-.201.163-.298.249-.028.026-.06.048-.088.074-.079.073-.147.152-.223.229-.067.068-.141.129-.206.2l-74.166 80a8.001 8.001 0 0 0 5.867 13.439h8.25v102.32C6.833 252.748 0 262.096 0 273.083c0 13.785 11.381 25 25.167 25h247c13.785 0 24.833-11.215 24.833-25 0-10.23-6.167-19.041-15.167-22.906V147.083h7.917zm-17.583 135h-247c-4.963 0-9-4.037-9-9s4.037-9 9-9h247c4.963 0 9 4.037 9 9s-4.038 9-9 9zm-85-249h28a8 8 0 0 0 8-8c0-4.963 4.037-9 9-9h41c4.963 0 9 4.037 9 9s-4.037 9-9 9h-28a8 8 0 0 0-8 8c0 4.963-4.037 9-9 9h-41c-4.963 0-9-4.037-9-9s4.037-9 9-9zm-97.333 215h-15v-41h15v41zm142.999 0h-53v-68h53v68zm-94.244-117H26.909L82.75 70.851l55.839 60.232zm60.244-64h17v18h-17v-18zm-16 0v26c0 4.418 3.915 8 8.333 8h33c4.418 0 7.667-3.582 7.667-8v-5.327l39.806 43.327H160.408l-59.332-64h81.757zm-150 80h99v101h-26v-49c0-4.418-3.249-8-7.667-8h-31c-4.418 0-8.333 3.582-8.333 8v49h-26v-101zm233 101h-17v-76c0-4.418-3.249-8-7.667-8h-69c-4.418 0-8.333 3.582-8.333 8v76h-16v-101h118v101z"/><path style="fill:#9696a0" d="M179.833 180.083h53v68h-53z"/><path style="fill:#a05200" d="M74.834 207.083h15v41h-15z"/><circle cx="56.833" cy="172.583" r="8"/><circle cx="107.834" cy="172.583" r="8"/><path style="fill:#a05200" d="M215.833 67.083h-17v18h17z"/><path style="fill:#a9bd34" d="M272.167 264.083h-247c-4.963 0-9 4.037-9 9s4.037 9 9 9h247c4.963 0 9-4.037 9-9s-4.038-9-9-9z"/><path style="fill:#c8f1de" d="M187.167 51.083h41c4.963 0 9-4.037 9-9a8 8 0 0 1 8-8h28c4.963 0 9-4.037 9-9s-4.037-9-9-9h-41c-4.963 0-9 4.037-9 9a8 8 0 0 1-8 8h-28c-4.963 0-9 4.037-9 9s4.037 9 9 9z"/></svg>