<svg width="500" height="500" xmlns="http://www.w3.org/2000/svg"><path fill="none" d="M-1-1h502v502H-1z"/><path stroke-linecap="square" stroke="#000" stroke-width="3.4544639999999998" fill="#c82343" d="M211.976 362.869V176.67c0-8.89-7.408-16.298-16.792-16.298H111.716c-10.372 0-15.805 7.408-18.768 16.792l-23.707 80.999h0-47.414c-7.902 0-13.829 5.432-13.829 12.347v97.297c0 6.914 6.421 12.347 13.83 12.347h467.716v-16.792l-277.568-.494z"/><path stroke-linecap="square" stroke="#000" stroke-width="3.4544639999999998" fill="#f7f9fe" d="m198.147 178.647-1.481-1.482-4.446-2.963c-1.481-.494-2.963-.988-4.444-.988h-67.664c-8.396 0-12.841 5.927-15.31 13.335L85.54 252.237H201.11v-66.182c0-2.47-.988-5.433-2.964-7.408z"/><path stroke-linecap="square" stroke="#000" stroke-width="3.4544639999999998" fill="none" d="M99.369 357.93h85.443c5.927 0 10.866-5.927 10.866-13.335v-74.578H88.997v74.578c0 7.408 4.445 13.335 10.372 13.335z"/><path stroke-linecap="square" stroke="#000" stroke-width="2.972832" fill="#ab893b" d="M435.462 267.438v8.08h-.778c.213-1.276.425-2.552.425-4.04.213-1.488 0-2.764-.425-4.04h.778zm-93.487-196.05c1.914 0 3.615 1.49 3.828 3.403 7.867 65.917 30.62 127.368 64.853 180.74-2.551 1.063-4.465 2.764-6.166 4.89-35.085-54.434-58.474-117.162-66.555-184.567-.212-2.339 1.701-4.465 4.04-4.465zm62.515 200.09c0-7.398 5.997-13.396 13.396-13.396 7.398 0 13.396 5.998 13.396 13.396 0 7.398-5.998 13.396-13.396 13.396-7.399 0-13.396-5.998-13.396-13.396z"/><path stroke-linecap="square" stroke="#000" stroke-width="3.4544639999999998" fill="#c82242" d="M209.013 273.474h280.531v92.852H209.013v-92.852z"/><path stroke-linecap="square" stroke="#000" stroke-width="3.4544639999999998" fill="#298c74" d="M194.69 333.73c0 7.902-4.445 14.322-10.372 14.322h-81.986c-5.433 0-10.372-6.42-10.372-14.323v-80.998h-6.42v80.998c0 11.854 7.408 21.732 16.792 21.732h81.986c9.384 0 16.793-9.878 16.793-21.732v-80.998h-6.42v80.998z"/><path stroke-linecap="square" stroke="#000" stroke-width="3.4544639999999998" fill="#273438" d="M497.447 372.747c0 4.445-3.458 7.902-7.903 7.902H11.456c-4.445 0-7.903-3.457-7.903-7.902h0c0-4.445 3.458-7.903 7.903-7.903H489.05c4.938 0 8.396 3.458 8.396 7.903h0z"/><path stroke-linecap="square" stroke="#000" stroke-width="3.4544639999999998" fill="#f6f6f6" d="M202.592 267.547c0 2.47-1.975 3.952-3.95 3.952h-18.275c-2.47 0-3.951-1.976-3.951-3.952h0c0-2.469 1.976-3.95 3.951-3.95h18.274c2.47 0 3.951 1.481 3.951 3.95h0z"/><path stroke-linecap="square" stroke="#000" stroke-width="3.4544639999999998" fill="#298c74" d="M102.826 326.32c-30.128 0-54.822 24.202-54.822 54.823h109.644c0-30.621-24.2-54.822-54.822-54.822z"/><path stroke-linecap="square" stroke="#000" stroke-width="3.4544639999999998" fill="#273438" d="M150.734 381.143c0 26.459-21.45 47.908-47.908 47.908-26.459 0-47.908-21.45-47.908-47.908 0-26.459 21.45-47.908 47.908-47.908 26.459 0 47.908 21.45 47.908 47.908z"/><path stroke-linecap="square" stroke="#000" stroke-width="3.4544639999999998" fill="#3fb19a" d="M138.386 381.143c0 19.64-15.92 35.56-35.56 35.56s-35.56-15.92-35.56-35.56 15.92-35.56 35.56-35.56 35.56 15.92 35.56 35.56z"/><path stroke-linecap="square" stroke="#000" stroke-width="3.4544639999999998" fill="#ededed" d="M133.447 381.143c0 16.912-13.71 30.621-30.621 30.621-16.912 0-30.621-13.71-30.621-30.621 0-16.912 13.71-30.621 30.62-30.621 16.913 0 30.622 13.71 30.622 30.62z"/><path stroke-linecap="square" stroke="#000" stroke-width="3.4544639999999998" fill="#273438" d="M111.222 381.143a8.396 8.396 0 1 1-16.792 0 8.396 8.396 0 0 1 16.792 0z"/><path stroke-linecap="square" stroke="#000" stroke-width="3.4544639999999998" fill="#c6c6c6" d="M7.504 278.413v-1.482h-.987c-1.482 0-2.964.988-2.964 2.47v28.152c0 .988 1.482 1.975 2.964 1.975h.987V278.413z"/><path stroke-linecap="square" stroke="#000" stroke-width="3.4544639999999998" fill="#f6f6f6" d="M13.431 271.499c-2.47 0-4.939 1.975-5.433 4.939v33.09c.494 2.47 2.47 4.94 5.433 4.94 2.964 0 5.927-2.964 5.927-6.421v-29.634c-.494-3.951-2.963-6.914-5.927-6.914z"/><path stroke-linecap="square" stroke="#000" stroke-width="3.4544639999999998" fill="#298c74" d="M398.174 326.32c-30.127 0-54.822 24.695-54.822 54.823h109.644c0-30.621-24.694-54.822-54.822-54.822z"/><path stroke-linecap="square" stroke="#000" stroke-width="3.4544639999999998" fill="#273438" d="M446.082 381.143c0 26.459-21.45 47.908-47.908 47.908-26.459 0-47.908-21.45-47.908-47.908 0-26.459 21.45-47.908 47.908-47.908 26.459 0 47.908 21.45 47.908 47.908z"/><path stroke-linecap="square" stroke="#000" stroke-width="3.4544639999999998" fill="#3fb19a" d="M433.734 381.143c0 19.64-15.92 35.56-35.56 35.56s-35.56-15.92-35.56-35.56 15.92-35.56 35.56-35.56 35.56 15.92 35.56 35.56z"/><path stroke-linecap="square" stroke="#000" stroke-width="3.4544639999999998" fill="#ededed" d="M428.795 381.143c0 16.912-13.71 30.621-30.62 30.621-16.913 0-30.622-13.71-30.622-30.621 0-16.912 13.71-30.621 30.621-30.621 16.912 0 30.621 13.71 30.621 30.62z"/><path stroke-linecap="square" stroke="#000" stroke-width="3.4544639999999998" fill="#273438" d="M406.57 381.143a8.396 8.396 0 1 1-16.792 0 8.396 8.396 0 0 1 16.792 0z"/><path stroke-linecap="square" stroke="#000" stroke-width="3.4544639999999998" fill="#dedc00" d="M486.581 267.547H211.482v11.854H486.581c3.951 0 6.915-2.963 6.915-5.927 0-3.457-2.964-5.927-6.915-5.927z"/><path stroke-linecap="square" stroke="#000" stroke-width="3.4544639999999998" fill="#155444" d="M93.442 253.718c0 2.964-2.47 5.927-5.927 5.927h0c-2.963 0-5.927-2.47-5.927-5.927v-22.225c0-2.963 2.47-5.926 5.927-5.926h0c2.964 0 5.927 2.469 5.927 5.926v22.225z"/><path stroke-linecap="square" stroke="#000" stroke-width="3.4544639999999998" fill="#dadada" d="M466.331 330.272h-8.89c-3.457 0-5.926 2.963-5.926 6.914l4.445 8.89c1.975 2.964 3.95 5.433 7.408 5.433h26.67v-21.731h-23.707v.494z"/><path stroke-linecap="square" stroke="#000" stroke-width="3.4544639999999998" fill="#de2d32" d="M468.307 332.248h20.744v17.286h-20.744v-17.286z"/><path stroke-linecap="square" stroke="#000" stroke-width="3.4544639999999998" fill="#ff9409" d="M460.405 332.248c-2.964 0-5.433 2.469-5.433 5.432 0 0 1.975 3.952 4.445 7.409 1.482 2.47 3.457 4.445 6.42 4.445h2.964v-17.286h-8.396z"/><path stroke-linecap="square" stroke="#000" stroke-width="4.838463999999999" fill="#373737" d="M379.36 239.358c-.429-1.997-.636-3.993-1.066-5.99l-52.953-.366c-.47 3.763-1.386 8.188-2.963 11.944-1.578 3.978-3.597 7.509-6.496 10.148-2.897 2.417-6.454 4.165-11.55 4.13l-.032 4.652 94.385.653.032-4.653c-5.096-.035-8.63-1.61-11.492-4.289-3.962-3.794-6.578-10.016-7.864-16.23m78.258-166.523-208.932-1.445c-3.545-.025-6.223 2.837-6.246 6.16l-.95 137.369c-.025 3.545 2.837 6.223 6.16 6.246l208.932 1.445c3.545.025 6.224-2.837 6.247-6.16l.95-137.368c.023-3.324-2.837-6.224-6.16-6.247M447.603 207.48l-190.986-1.32.826-119.422 190.986 1.32-.826 119.422z"/><path fill="#fff" d="M443.337 204.36H261.64V89.601h181.696v114.757z"/><path fill="#5cbcff" d="m350.147 127.516 21.651-.042.037 18.94-21.651.041-.037-18.939zM325.83 127.564l21.65-.043.037 18.94-21.651.042-.037-18.94zM325.871 149.169l21.651-.042.037 18.94-21.651.04-.037-18.938zM350.189 149.122l21.65-.042.038 18.939-21.652.042-.036-18.94z"/><path stroke-linecap="square" stroke="#000" stroke-width="3.2274879999999997" fill="#cfb463" d="M251.77 266.117v8.08h.778c-.212-1.276-.425-2.552-.425-4.04-.213-1.488 0-2.764.425-4.04h-.777 0zm93.487-196.05c-1.914 0-3.615 1.49-3.827 3.403-7.868 65.917-30.62 127.368-64.854 180.74 2.552 1.063 4.465 2.764 6.166 4.89 35.085-54.435 58.475-117.162 66.555-184.567.213-2.339-1.701-4.465-4.04-4.465zm-62.514 200.09c0-7.398-5.998-13.396-13.397-13.396-7.398 0-13.396 5.998-13.396 13.396 0 7.398 5.998 13.396 13.396 13.396 7.399 0 13.397-5.998 13.397-13.396z"/></svg>