<svg xmlns="http://www.w3.org/2000/svg" viewBox="0 0 511.999 511.999" style="enable-background:new 0 0 511.999 511.999" xml:space="preserve"><path style="fill:#ffe6b8" d="M10.199 67.458h377.075v377.075H10.199z"/><path style="fill:#d35b38" d="M496.297 89.587 484.91 78.199c-7.337-7.337-19.234-7.337-26.571 0l-35.302 35.302 37.959 37.959 35.302-35.302c7.338-7.338 7.338-19.234-.001-26.571z"/><path style="fill:#ffad61" d="M423.036 113.501 197.559 338.979l-18.98 56.939 56.939-18.98L460.996 151.46z"/><path style="fill:#4d3d36" d="M397.473 124.639V67.463c0-5.632-4.567-10.199-10.199-10.199H10.199C4.566 57.263 0 61.831 0 67.463v377.074c0 5.632 4.566 10.199 10.199 10.199h377.075c5.632 0 10.199-4.567 10.199-10.199l-.004-215.126 106.04-106.041c5.475-5.475 8.49-12.755 8.49-20.498s-3.015-15.022-8.49-20.496l-11.386-11.388c-5.475-5.475-12.755-8.49-20.498-8.49s-15.022 3.015-20.498 8.49l-53.654 53.651zM230.008 368.024l-35.304 11.767 11.768-35.304 216.563-216.563 23.536 23.536-216.563 216.564zm147.067 66.313H20.398V77.663h356.676v67.376L190.347 331.766a10.21 10.21 0 0 0-2.464 3.987l-18.98 56.939a10.198 10.198 0 0 0 12.902 12.901l56.939-18.979a10.203 10.203 0 0 0 3.987-2.464l134.344-134.344v184.531zm112.01-325.392-28.09 28.091-11.768-11.768L437.46 113.5l28.091-28.091c1.623-1.623 3.779-2.516 6.074-2.516s4.451.893 6.074 2.515l11.387 11.388.001.001a8.534 8.534 0 0 1 2.515 6.073 8.531 8.531 0 0 1-2.517 6.075z"/><path style="fill:#4d3d36" d="M308.401 141.408h9.724c5.632 0 10.199-4.567 10.199-10.199s-4.567-10.199-10.199-10.199h-9.724c-5.632 0-10.199 4.567-10.199 10.199s4.566 10.199 10.199 10.199zM78.267 141.408h185.837c5.632 0 10.199-4.567 10.199-10.199s-4.567-10.199-10.199-10.199H78.267c-5.633 0-10.199 4.567-10.199 10.199s4.566 10.199 10.199 10.199zM78.267 200.833H254.38c5.632 0 10.199-4.567 10.199-10.199s-4.567-10.199-10.199-10.199H78.267c-5.633 0-10.199 4.567-10.199 10.199-.001 5.631 4.566 10.199 10.199 10.199zM78.267 260.257h112.367c5.633 0 10.199-4.567 10.199-10.199s-4.566-10.199-10.199-10.199H78.267c-5.633 0-10.199 4.567-10.199 10.199s4.566 10.199 10.199 10.199zM142.014 298.202H78.267c-5.633 0-10.199 4.567-10.199 10.199S72.634 318.6 78.267 318.6h63.746c5.633 0 10.199-4.567 10.199-10.199s-4.565-10.199-10.198-10.199z"/></svg>