<svg xmlns="http://www.w3.org/2000/svg" viewBox="0 0 455.88 455.88" style="enable-background:new 0 0 455.88 455.88" xml:space="preserve"><path d="M408.68 180.74c4.14 0 7.5 3.36 7.5 7.5s-3.36 7.5-7.5 7.5h-42c-4.15 0-7.5-3.36-7.5-7.5s3.35-7.5 7.5-7.5h42zM390.96 94.12c2.07 3.59.84 8.17-2.74 10.25l-36.36 20.99c-1.18.68-2.47 1-3.75 1-2.59 0-5.11-1.34-6.5-3.75a7.493 7.493 0 0 1 2.75-10.24l36.36-20.99c3.58-2.08 8.17-.85 10.24 2.74zM388.22 272.12a7.499 7.499 0 0 1 2.74 10.24 7.488 7.488 0 0 1-6.5 3.75 7.47 7.47 0 0 1-3.74-1l-36.36-20.99c-3.59-2.08-4.82-6.66-2.75-10.25a7.493 7.493 0 0 1 10.25-2.74l36.36 20.99zM344.93 186.93c0 25.74-8.2 50.17-23.72 70.63-26.18 34.53-39.87 74.88-39.87 116.68v45.24c0 20.07-16.33 36.4-36.4 36.4h-33.85c-20.07 0-36.4-16.33-36.4-36.4v-45.24c0-41.35-14.17-82.72-39.89-116.5-15.84-20.8-24.09-45.66-23.85-71.89.27-30.6 12.4-59.48 34.14-81.34 21.74-21.85 50.57-34.13 81.16-34.56 31.56-.46 61.35 11.51 83.82 33.67 22.48 22.16 34.86 51.75 34.86 83.31zm-35.67 61.56c13.52-17.83 20.67-39.12 20.67-61.56 0-27.51-10.79-53.31-30.39-72.63-19.59-19.32-45.53-29.72-73.08-29.35-54.93.77-100.02 46.1-100.51 101.03-.21 22.87 6.98 44.54 20.79 62.68 27.11 35.6 42.3 79.09 42.93 122.76h76.53c.61-44.09 15.47-86.54 43.06-122.93zm-42.92 170.99v-2.37l-76.65-8.78v6.07l76.31 8.74c.21-1.19.34-2.41.34-3.66zm0-17.47v-15.59h-76.65v6.81l76.65 8.78zm-9.42 35.19-64.57-7.4c3.65 6.6 10.68 11.08 18.74 11.08h33.85c4.44 0 8.56-1.36 11.98-3.68zM322.06 25.22a7.499 7.499 0 0 1 2.74 10.24l-20.99 36.36a7.488 7.488 0 0 1-6.5 3.75 7.47 7.47 0 0 1-3.74-1 7.505 7.505 0 0 1-2.75-10.25l20.99-36.36a7.493 7.493 0 0 1 10.25-2.74z"/><path d="M317.93 186.93c0 2.81-.13 5.64-.38 8.41a7.503 7.503 0 0 1-8.16 6.79 7.503 7.503 0 0 1-6.78-8.16c.21-2.32.32-4.69.32-7.04 0-41.35-33.64-74.99-74.99-74.99-4.14 0-7.5-3.36-7.5-7.5s3.36-7.5 7.5-7.5c49.62 0 89.99 40.37 89.99 89.99zM306.74 212.61a7.497 7.497 0 0 1 3.92 9.86 89.846 89.846 0 0 1-10.96 18.77 7.461 7.461 0 0 1-5.98 2.97c-1.58 0-3.17-.5-4.53-1.52a7.506 7.506 0 0 1-1.44-10.51 75.314 75.314 0 0 0 9.14-15.65c1.64-3.8 6.05-5.56 9.85-3.92z"/><path style="fill:#3dd0f2" d="M266.34 417.11v2.37c0 1.25-.13 2.47-.34 3.66l-76.31-8.74v-6.07l76.65 8.78zM266.34 386.42v15.59l-76.65-8.78v-6.81zM192.35 429.8l64.57 7.4a21.264 21.264 0 0 1-11.98 3.68h-33.85c-8.06 0-15.09-4.48-18.74-11.08z"/><path d="M235.44 7.5v42c0 4.14-3.36 7.5-7.5 7.5-4.15 0-7.5-3.36-7.5-7.5v-42c0-4.14 3.35-7.5 7.5-7.5 4.14 0 7.5 3.36 7.5 7.5zM205.04 302.29a7.507 7.507 0 0 1-4.79 9.47c-.77.25-1.56.38-2.34.38-3.15 0-6.09-2.01-7.12-5.16a222.81 222.81 0 0 0-34.51-65.59 91.083 91.083 0 0 1-8.41-13.28c-1.9-3.68-.46-8.21 3.22-10.11 3.68-1.9 8.21-.46 10.11 3.22a75.43 75.43 0 0 0 7.02 11.08c16.12 21.16 28.5 44.71 36.82 69.99zM165.05 64.32c2.07 3.59.84 8.18-2.74 10.25-1.18.68-2.47 1-3.75 1-2.59 0-5.11-1.34-6.5-3.75l-20.99-36.36a7.493 7.493 0 0 1 2.75-10.24c3.58-2.08 8.17-.85 10.24 2.74l20.99 36.36zM153.77 198.21c.61 4.1-2.21 7.92-6.31 8.53-.37.05-.75.08-1.11.08-3.66 0-6.86-2.67-7.41-6.39-.7-4.7-1.04-9.53-.99-14.34.03-4.14 3.45-7.46 7.56-7.43 4.15.04 7.47 3.43 7.44 7.57-.04 4.03.24 8.06.82 11.98zM111.52 112.37a7.499 7.499 0 0 1 2.74 10.24 7.488 7.488 0 0 1-6.5 3.75 7.47 7.47 0 0 1-3.74-1l-36.36-20.99c-3.59-2.08-4.82-6.66-2.75-10.25a7.493 7.493 0 0 1 10.25-2.74l36.36 20.99zM114.26 253.87c2.07 3.59.84 8.17-2.74 10.25l-36.36 20.99c-1.18.68-2.47 1-3.75 1-2.59 0-5.11-1.34-6.5-3.75a7.493 7.493 0 0 1 2.75-10.24l36.36-20.99c3.58-2.08 8.17-.85 10.24 2.74zM89.2 180.74c4.14 0 7.5 3.36 7.5 7.5s-3.36 7.5-7.5 7.5h-42c-4.15 0-7.5-3.36-7.5-7.5s3.35-7.5 7.5-7.5h42z"/></svg>