<svg xmlns="http://www.w3.org/2000/svg" viewBox="0 0 442.983 442.983" style="enable-background:new 0 0 442.983 442.983" xml:space="preserve"><path style="fill:#ffeefb" d="M343.891 200.33c12.2 6.02 20.59 18.59 20.59 33.12 0 20.39-16.53 36.92-36.92 36.92h-.41l-.03-.01c3.78-11.2 5.83-23.19 5.83-35.66v-22.89c4.06-3.41 7.72-7.26 10.91-11.5l.03.02z"/><path style="fill:#4d4d4d" d="M185.191 120.51c-17.56 22.83-44.59 37.98-75.19 39.62v51.68c-4.05-3.4-7.71-7.25-10.91-11.48-8.86-11.72-14.11-26.33-14.11-42.16V121.7c0-61.69 50.01-111.7 111.7-111.7h49.58c61.7 0 111.71 50.01 111.71 111.7v36.47c0 15.82-5.25 30.42-14.11 42.14a69.885 69.885 0 0 1-10.91 11.5v-50.13c-15.12 7.04-31.99 10.97-49.78 10.97-40.79 0-76.77-20.68-97.98-52.14z"/><path style="fill:#ffeefb" d="M332.951 211.81v22.89c0 12.47-2.05 24.46-5.83 35.66-14.87 44.06-56.55 75.8-105.64 75.8-30.79 0-58.66-12.47-78.82-32.64-12-12-21.28-26.72-26.83-43.15-3.78-11.2-5.83-23.2-5.83-35.67v-74.57c30.6-1.64 57.63-16.79 75.19-39.62 21.21 31.46 57.19 52.14 97.98 52.14 17.79 0 34.66-3.93 49.78-10.97v50.13z"/><path style="fill:#7ee085" d="M289.001 361.34c3.57 11.12 5.35 22.65 5.35 34.18s-1.78 23.07-5.35 34.18c-.91 2.87-4.24 4.15-6.85 2.65l-46.95-27.11-.2-.04c.13-.68.2-1.38.2-2.1v-15.16c0-.72-.07-1.42-.2-2.1l.2-.04 46.95-27.11c2.61-1.5 5.94-.21 6.85 2.65z"/><path style="fill:#7ee085" d="M235.201 387.94v15.16c0 .72-.07 1.42-.2 2.1-.98 5.27-5.6 9.25-11.14 9.25h-4.77a11.34 11.34 0 0 1-11.15-9.25c-.13-.68-.2-1.38-.2-2.1v-15.16c0-.72.07-1.42.2-2.1.98-5.27 5.6-9.25 11.15-9.25h4.77c5.54 0 10.16 3.98 11.14 9.25.13.68.2 1.38.2 2.1z"/><path style="fill:#7ee085" d="m207.741 385.8.2.04c-.13.68-.2 1.38-.2 2.1v15.16c0 .72.07 1.42.2 2.1l-.2.04-46.95 27.11c-2.6 1.5-5.93.22-6.85-2.65a112.036 112.036 0 0 1 0-68.36c.92-2.86 4.25-4.15 6.85-2.65l46.95 27.11z"/><path style="fill:#ffeefb" d="M115.831 270.37h-.41c-20.39 0-36.92-16.53-36.92-36.92 0-14.53 8.39-27.1 20.59-33.12 3.2 4.23 6.86 8.08 10.91 11.48v22.89c0 12.47 2.05 24.47 5.83 35.67z"/><path style="fill:none;stroke:#000;stroke-width:20;stroke-linejoin:round;stroke-miterlimit:10" d="M110.001 211.81v-51.68c30.6-1.64 57.63-16.79 75.19-39.62 21.21 31.46 57.19 52.14 97.98 52.14 17.79 0 34.66-3.93 49.78-10.97V234.7c0 12.47-2.05 24.46-5.83 35.66-14.87 44.06-56.55 75.8-105.64 75.8-30.79 0-58.66-12.47-78.82-32.64-12-12-21.28-26.72-26.83-43.15-3.78-11.2-5.83-23.2-5.83-35.67v-22.89zM207.741 405.24l-46.95 27.11c-2.6 1.5-5.93.22-6.85-2.65a112.036 112.036 0 0 1 0-68.36c.92-2.86 4.25-4.15 6.85-2.65l46.95 27.11M235.201 385.8l46.95-27.11c2.61-1.5 5.94-.21 6.85 2.65 3.57 11.12 5.35 22.65 5.35 34.18s-1.78 23.07-5.35 34.18c-.91 2.87-4.24 4.15-6.85 2.65l-46.95-27.11"/><path style="fill:none;stroke:#000;stroke-width:20;stroke-linejoin:round;stroke-miterlimit:10" d="M235.001 405.2c-.98 5.27-5.6 9.25-11.14 9.25h-4.77a11.34 11.34 0 0 1-11.15-9.25c-.13-.68-.2-1.38-.2-2.1v-15.16c0-.72.07-1.42.2-2.1.98-5.27 5.6-9.25 11.15-9.25h4.77c5.54 0 10.16 3.98 11.14 9.25.13.68.2 1.38.2 2.1v15.16c0 .72-.07 1.42-.2 2.1z"/><path style="fill:none;stroke:#000;stroke-width:20;stroke-linecap:round;stroke-linejoin:round;stroke-miterlimit:10" d="M170.481 225.59v-16.76M272.471 225.59v-16.76"/><path style="fill:none;stroke:#000;stroke-width:20;stroke-linejoin:round;stroke-miterlimit:10" d="M332.951 211.81c4.06-3.41 7.72-7.26 10.91-11.5 8.86-11.72 14.11-26.32 14.11-42.14V121.7c0-61.69-50.01-111.7-111.71-111.7h-49.58c-61.69 0-111.7 50.01-111.7 111.7v36.47c0 15.83 5.25 30.44 14.11 42.16 3.2 4.23 6.86 8.08 10.91 11.48"/><path style="fill:none;stroke:#000;stroke-width:20;stroke-linecap:round;stroke-linejoin:round;stroke-miterlimit:10" d="M246.931 280.36c-14.06 14.06-36.85 14.06-50.91 0M185.191 120.51s-6.59-11.19-7.77-26.94"/><path style="fill:none;stroke:#000;stroke-width:20;stroke-linejoin:round;stroke-miterlimit:10" d="M99.091 200.33c-12.2 6.02-20.59 18.59-20.59 33.12 0 20.39 16.53 36.92 36.92 36.92h.41M327.151 270.37h.41c20.39 0 36.92-16.53 36.92-36.92 0-14.53-8.39-27.1-20.59-33.12"/></svg>