<svg xmlns="http://www.w3.org/2000/svg" viewBox="0 0 380.163 380.163" style="enable-background:new 0 0 380.163 380.163" xml:space="preserve"><path d="M371.057 327.022c6.07 6.07 9.1 14.04 9.1 22.02 0 7.97-3.03 15.94-9.1 22.01-6.07 6.07-14.05 9.11-22.02 9.11s-15.94-3.04-22.01-9.11l-90.77-90.77a7.468 7.468 0 0 1-2.2-5.3c0-1.99.79-3.9 2.2-5.3l3.63-3.63-8.91-8.91c-25.69 19.81-56.62 29.72-87.54 29.72-36.75 0-73.5-13.98-101.47-41.96-55.95-55.95-55.95-146.99 0-202.94s146.99-55.95 202.94 0c51.51 51.52 55.59 132.79 12.24 189.02l8.9 8.9 3.63-3.63a7.502 7.502 0 0 1 10.61 0l90.77 90.77zm-10.609 33.431c6.29-6.3 6.29-16.53 0-22.82l-85.46-85.47-22.82 22.82 85.46 85.47c6.29 6.289 16.53 6.289 22.82 0zm-88.51-217.021c0-34.32-13.37-66.59-37.64-90.86s-56.54-37.64-90.86-37.64c-34.33 0-66.6 13.37-90.87 37.64s-37.63 56.54-37.63 90.86 13.36 66.59 37.63 90.86 56.54 37.64 90.87 37.64c34.32 0 66.59-13.37 90.86-37.64s37.64-56.539 37.64-90.86zm-21.441 112.011 4.95-4.95-8.1-8.1c-.8.85-1.62 1.68-2.44 2.51-.83.83-1.67 1.64-2.51 2.44l8.1 8.1z"/><path style="fill:#3dd0f2" d="M360.448 337.633c6.29 6.29 6.29 16.52 0 22.82-6.29 6.29-16.53 6.29-22.82 0l-85.46-85.47 22.82-22.82 85.46 85.47z"/><path style="fill:#f48c6c" d="M234.298 52.572c24.27 24.27 37.64 56.54 37.64 90.86s-13.37 66.59-37.64 90.86-56.54 37.64-90.86 37.64c-34.33 0-66.6-13.37-90.87-37.64s-37.63-56.54-37.63-90.86 13.36-66.59 37.63-90.86 56.54-37.64 90.87-37.64c34.32 0 66.589 13.37 90.86 37.64zm21.819 90.86c0-30.1-11.73-58.39-33.01-79.68-21.28-21.28-49.58-33-79.67-33-30.1 0-58.4 11.72-79.68 33-21.28 21.29-33 49.58-33 79.68s11.72 58.39 33 79.68c21.28 21.28 49.58 33 79.68 33 30.09 0 58.39-11.72 79.67-33 21.28-21.29 33.01-49.579 33.01-79.68zM255.447 250.492l-4.95 4.95-8.1-8.1c.84-.8 1.68-1.61 2.51-2.44.82-.83 1.64-1.66 2.44-2.51l8.1 8.1z"/><path d="M223.107 63.752c21.28 21.29 33.01 49.58 33.01 79.68s-11.73 58.39-33.01 79.68c-21.28 21.28-49.58 33-79.67 33-30.1 0-58.4-11.72-79.68-33-21.28-21.29-33-49.58-33-79.68s11.72-58.39 33-79.68c21.28-21.28 49.58-33 79.68-33 30.09.001 58.39 11.72 79.67 33zm-10.599 148.751c38.08-38.09 38.08-100.05 0-138.14-18.45-18.45-42.98-28.61-69.07-28.61s-50.62 10.16-69.07 28.61c-38.09 38.09-38.09 100.05 0 138.14 18.45 18.45 42.98 28.61 69.07 28.61s50.619-10.161 69.07-28.61z"/><path d="M205.568 81.302a7.49 7.49 0 0 1 0 10.6c-1.47 1.47-3.38 2.2-5.3 2.2s-3.84-.73-5.31-2.2a72.936 72.936 0 0 0-13.71-10.78c-3.54-2.15-4.66-6.77-2.51-10.31 2.15-3.53 6.77-4.66 10.31-2.51a88.712 88.712 0 0 1 16.52 13zM205.568 194.962a7.49 7.49 0 0 1 0 10.6c-16.65 16.65-38.8 25.75-61.99 25.75-3.5 0-7.02-.21-10.55-.63-4.11-.48-7.05-4.21-6.56-8.33.48-4.11 4.21-7.05 8.33-6.56 22.34 2.65 44.27-4.94 60.16-20.83a7.504 7.504 0 0 1 10.61 0zM157.018 56.612c4.1.64 6.9 4.47 6.26 8.57a7.498 7.498 0 0 1-8.57 6.25c-22.93-3.57-46.41 4.08-62.8 20.47-1.46 1.47-3.38 2.2-5.3 2.2s-3.84-.73-5.31-2.2a7.49 7.49 0 0 1 0-10.6c19.769-19.769 48.069-28.99 75.72-24.69zM104.938 205.322c3.51 2.19 4.58 6.82 2.39 10.33a7.492 7.492 0 0 1-6.37 3.53c-1.35 0-2.73-.36-3.96-1.13a88.384 88.384 0 0 1-15.7-12.49 7.49 7.49 0 0 1 0-10.6 7.502 7.502 0 0 1 10.61 0 73.122 73.122 0 0 0 13.03 10.36z"/></svg>