<svg xmlns="http://www.w3.org/2000/svg" viewBox="0 0 296.345 296.345" style="enable-background:new 0 0 296.345 296.345" xml:space="preserve"><path style="fill:#b4f5f5" d="M236.414 79.206a43.947 43.947 0 0 0-21.136 5.415 7.997 7.997 0 0 1-7.634.043 7.997 7.997 0 0 1-4.194-6.378c-1.153-13.65-7.351-26.31-17.452-35.644-10.157-9.387-23.374-14.557-37.216-14.557-28.58 0-52.614 22.308-54.715 50.785a7.999 7.999 0 0 1-12.016 6.318 43.875 43.875 0 0 0-22.12-5.983C35.708 79.206 16 98.913 16 123.135c0 19.539 13.119 36.913 31.904 42.25a8 8 0 0 1 5.435 10.125 47.903 47.903 0 0 0-2.258 14.566c0 26.461 21.527 47.989 47.987 47.989a47.973 47.973 0 0 0 42.263-25.245 7.998 7.998 0 0 1 14.082-.001 47.978 47.978 0 0 0 42.267 25.246c26.459 0 47.985-21.528 47.985-47.989 0-4.99-.77-9.922-2.288-14.66a8.003 8.003 0 0 1 5.375-10.12c18.601-5.434 31.592-22.77 31.592-42.161.001-24.222-19.706-43.929-43.93-43.929zM124.005 188.172h-47v-6.351l28.738-45.649H77.005v-12h47v6.785l-28.584 46.215h28.584v11zm0-32v-7.174l29.371-45.826h-29.371v-11h47v5.962l-27.952 46.038h28.952v12h-48zm95 32h-47v-6.351l28.523-45.649h-29.523v-12h48v6.785l-28.799 46.215h28.799v11z"/><path d="M296.345 123.135c0-33.045-26.885-59.93-59.931-59.93a60.088 60.088 0 0 0-18.761 3.011c-3.265-13.481-10.442-25.758-20.796-35.325-13.123-12.127-30.196-18.806-48.075-18.806-33.114 0-61.503 23.19-68.957 54.52a59.944 59.944 0 0 0-19.893-3.4C26.885 63.206 0 90.09 0 123.135c0 24.032 14.55 45.663 36.196 55.025a64.038 64.038 0 0 0-1.114 11.916c0 35.284 28.705 63.989 63.987 63.989a63.93 63.93 0 0 0 49.305-23.193 63.932 63.932 0 0 0 49.307 23.193c35.281 0 63.985-28.705 63.985-63.989 0-4.068-.385-8.108-1.146-12.079 21.424-9.452 35.825-31.019 35.825-54.862zm-47.592 42.161a8.003 8.003 0 0 0-5.375 10.12 47.95 47.95 0 0 1 2.288 14.66c0 26.461-21.526 47.989-47.985 47.989a47.979 47.979 0 0 1-42.267-25.246 8 8 0 0 0-14.082.001 47.971 47.971 0 0 1-42.263 25.245c-26.46 0-47.987-21.528-47.987-47.989 0-4.966.76-9.866 2.258-14.566a8.002 8.002 0 0 0-5.435-10.125C29.119 160.048 16 142.674 16 123.135c0-24.223 19.708-43.93 43.932-43.93a43.875 43.875 0 0 1 22.12 5.983 8.001 8.001 0 0 0 12.016-6.318c2.101-28.478 26.135-50.785 54.715-50.785 13.842 0 27.059 5.17 37.216 14.557 10.102 9.334 16.299 21.993 17.452 35.644a8.002 8.002 0 0 0 11.828 6.335 43.947 43.947 0 0 1 21.136-5.415c24.224 0 43.931 19.707 43.931 43.93-.001 19.39-12.992 36.727-31.593 42.16z"/><path d="M124.005 130.958v-6.786h-47v12h28.738l-28.738 45.65v6.35h47v-11H95.421zM219.005 130.958v-6.786h-48v12h29.523l-28.523 45.65v6.35h47v-11h-28.799z"/><path d="M172.005 144.172h-28.952l27.952-46.038v-5.962h-47v11h29.371l-29.371 45.827v7.173h48z"/><path style="fill:#b4f5f5" d="M24.077 252.106c-4.454 0-8.077 3.623-8.077 8.076 0 4.454 3.623 8.077 8.077 8.077 4.453 0 8.076-3.623 8.076-8.077 0-4.453-3.623-8.076-8.076-8.076z"/><path d="M24.077 236.106C10.801 236.106 0 246.907 0 260.182c0 13.276 10.801 24.077 24.077 24.077 13.275 0 24.076-10.801 24.076-24.077 0-13.275-10.8-24.076-24.076-24.076zm0 32.153c-4.454 0-8.077-3.623-8.077-8.077 0-4.453 3.623-8.076 8.077-8.076 4.453 0 8.076 3.623 8.076 8.076 0 4.454-3.623 8.077-8.076 8.077z"/></svg>